<?xml version="1.0" encoding="utf-8"?>
<!-- Generator: Adobe Illustrator 26.1.0, SVG Export Plug-In . SVG Version: 6.00 Build 0)  -->
<svg version="1.1" id="Layer_1" xmlns="http://www.w3.org/2000/svg" xmlns:xlink="http://www.w3.org/1999/xlink" x="0px" y="0px"
	 viewBox="0 0 292.2 292.9" style="enable-background:new 0 0 292.2 292.9;" xml:space="preserve">
<style type="text/css">
	.st0{fill:#130303;}
	.st1{fill:none;stroke:#414042;stroke-width:10;stroke-miterlimit:10;}
	.st2{fill:none;}
	.st3{fill:#2D080A;}
	.st4{font-family:'Roboto-Bold';}
	.st5{font-size:20px;}
	.st6{fill:#FFCDBC;}
</style>
<circle class="st0" cx="146.4" cy="146.4" r="139.8"/>
<circle class="st1" cx="146.1" cy="146.4" r="139.8"/>
<rect x="45" y="80.6" class="st2" width="202.8" height="167.3"/>
<text transform="matrix(1 0 0 1 60.5219 95.6417)"><tspan x="0" y="0" class="st3 st4 st5">Search through the </tspan><tspan x="13.4" y="24" class="st3 st4 st5">entire UoGuelph </tspan><tspan x="-13.3" y="48" class="st3 st4 st5">course list and find all </tspan><tspan x="-5.5" y="72" class="st3 st4 st5">relevant information </tspan><tspan x="1.8" y="96" class="st3 st4 st5">regarding selected </tspan><tspan x="50.1" y="120" class="st3 st4 st5">courses</tspan></text>
<g>
	<path class="st6" d="M67.8,90.8c0-0.6-0.2-1-0.6-1.3s-1.1-0.6-2.1-0.9s-1.8-0.7-2.4-1c-1.6-0.9-2.4-2-2.4-3.5
		c0-0.8,0.2-1.5,0.6-2.1s1.1-1.1,1.9-1.4s1.7-0.5,2.7-0.5c1,0,1.9,0.2,2.7,0.6s1.4,0.9,1.9,1.6s0.7,1.4,0.7,2.3h-2.9
		c0-0.7-0.2-1.2-0.6-1.5s-1-0.5-1.7-0.5c-0.7,0-1.3,0.2-1.7,0.5s-0.6,0.7-0.6,1.2c0,0.5,0.2,0.8,0.7,1.2s1.2,0.6,2.1,0.9
		c1.7,0.5,2.9,1.1,3.6,1.9s1.1,1.7,1.1,2.8c0,1.2-0.5,2.2-1.4,2.9s-2.2,1-3.8,1c-1.1,0-2.1-0.2-3-0.6s-1.6-0.9-2.1-1.6
		s-0.7-1.5-0.7-2.4h2.9c0,1.6,0.9,2.4,2.8,2.4c0.7,0,1.2-0.1,1.6-0.4S67.8,91.3,67.8,90.8z"/>
	<path class="st6" d="M77.4,94.7c-1.5,0-2.8-0.5-3.8-1.4s-1.5-2.2-1.5-3.8v-0.3c0-1.1,0.2-2,0.6-2.8s1-1.5,1.7-1.9s1.6-0.7,2.6-0.7
		c1.4,0,2.6,0.5,3.4,1.4s1.2,2.2,1.2,3.9v1.2H75c0.1,0.7,0.4,1.2,0.8,1.7s1,0.6,1.7,0.6c1.1,0,1.9-0.4,2.5-1.2l1.4,1.6
		c-0.4,0.6-1,1.1-1.7,1.4S78.3,94.7,77.4,94.7z M77.1,86c-0.6,0-1,0.2-1.4,0.6s-0.6,0.9-0.7,1.6H79V88c0-0.6-0.2-1.1-0.5-1.5
		S77.7,86,77.1,86z"/>
	<path class="st6" d="M89.5,94.5c-0.1-0.3-0.2-0.6-0.3-0.9c-0.7,0.8-1.6,1.1-2.7,1.1c-1,0-1.9-0.3-2.6-0.9s-1-1.4-1-2.3
		c0-1.1,0.4-2,1.2-2.6s2-0.9,3.6-0.9h1.3v-0.6c0-0.5-0.1-0.9-0.4-1.2s-0.6-0.4-1.2-0.4c-0.5,0-0.8,0.1-1.1,0.3S86,86.7,86,87.1h-2.8
		c0-0.6,0.2-1.2,0.6-1.7s0.9-0.9,1.6-1.2s1.5-0.4,2.3-0.4c1.3,0,2.3,0.3,3.1,1s1.1,1.6,1.1,2.8v4.6c0,1,0.1,1.8,0.4,2.3v0.2H89.5z
		 M87.1,92.5c0.4,0,0.8-0.1,1.2-0.3s0.6-0.4,0.8-0.7v-1.8H88c-1.4,0-2.2,0.5-2.3,1.5l0,0.2c0,0.4,0.1,0.6,0.4,0.9
		S86.7,92.5,87.1,92.5z"/>
	<path class="st6" d="M100,86.6c-0.4-0.1-0.7-0.1-1-0.1c-1.1,0-1.8,0.4-2.1,1.1v6.9h-2.8V83.9h2.7l0.1,1.3c0.6-1,1.4-1.5,2.4-1.5
		c0.3,0,0.6,0,0.9,0.1L100,86.6z"/>
	<path class="st6" d="M105.6,92.4c0.5,0,0.9-0.1,1.3-0.4s0.5-0.7,0.5-1.1h2.6c0,0.7-0.2,1.4-0.6,2s-0.9,1.1-1.6,1.4
		s-1.4,0.5-2.2,0.5c-1.5,0-2.7-0.5-3.6-1.4s-1.3-2.3-1.3-4v-0.2c0-1.6,0.4-2.9,1.3-3.9s2.1-1.5,3.6-1.5c1.3,0,2.4,0.4,3.2,1.1
		s1.2,1.8,1.2,3h-2.6c0-0.5-0.2-1-0.5-1.3c-0.3-0.3-0.8-0.5-1.3-0.5c-0.7,0-1.2,0.2-1.5,0.7c-0.3,0.5-0.5,1.3-0.5,2.3v0.3
		c0,1.1,0.2,1.9,0.5,2.3S104.9,92.4,105.6,92.4z"/>
	<path class="st6" d="M114.4,85.1c0.7-0.9,1.7-1.3,2.8-1.3c2.3,0,3.5,1.3,3.5,4v6.8h-2.8v-6.7c0-0.6-0.1-1.1-0.4-1.3
		s-0.7-0.4-1.3-0.4c-0.8,0-1.4,0.3-1.8,1v7.5h-2.8v-15h2.8V85.1z"/>
	<path class="st6" d="M131.2,81.3v2.6h1.8V86h-1.8v5.3c0,0.4,0.1,0.7,0.2,0.8s0.4,0.3,0.9,0.3c0.3,0,0.6,0,0.8-0.1v2.1
		c-0.6,0.2-1.1,0.3-1.7,0.3c-2,0-3-1-3-3V86h-1.5v-2.1h1.5v-2.6H131.2z"/>
	<path class="st6" d="M137.3,85.1c0.7-0.9,1.7-1.3,2.8-1.3c2.3,0,3.5,1.3,3.5,4v6.8h-2.8v-6.7c0-0.6-0.1-1.1-0.4-1.3
		s-0.7-0.4-1.3-0.4c-0.8,0-1.4,0.3-1.8,1v7.5h-2.8v-15h2.8V85.1z"/>
	<path class="st6" d="M151.7,86.6c-0.4-0.1-0.7-0.1-1-0.1c-1.1,0-1.8,0.4-2.1,1.1v6.9h-2.8V83.9h2.7l0.1,1.3c0.6-1,1.4-1.5,2.4-1.5
		c0.3,0,0.6,0,0.9,0.1L151.7,86.6z"/>
	<path class="st6" d="M152.2,89.1c0-1,0.2-2,0.6-2.8s1-1.5,1.7-1.9s1.6-0.7,2.6-0.7c1.4,0,2.6,0.4,3.5,1.3s1.4,2.1,1.5,3.6l0,0.7
		c0,1.6-0.5,2.9-1.4,3.9s-2.1,1.5-3.6,1.5s-2.7-0.5-3.6-1.5s-1.4-2.3-1.4-4V89.1z M155.1,89.3c0,1,0.2,1.8,0.6,2.3
		c0.4,0.5,0.9,0.8,1.6,0.8c0.7,0,1.2-0.3,1.6-0.8c0.4-0.5,0.6-1.4,0.6-2.5c0-1-0.2-1.7-0.6-2.3c-0.4-0.5-0.9-0.8-1.6-0.8
		c-0.7,0-1.2,0.3-1.6,0.8C155.2,87.4,155.1,88.2,155.1,89.3z"/>
	<path class="st6" d="M170.3,93.4c-0.7,0.8-1.7,1.3-2.9,1.3c-1.1,0-2-0.3-2.6-1s-0.9-1.6-0.9-2.9v-6.9h2.8v6.8
		c0,1.1,0.5,1.7,1.5,1.7c1,0,1.6-0.3,2-1v-7.5h2.8v10.6h-2.7L170.3,93.4z"/>
	<path class="st6" d="M174.8,89.1c0-1.6,0.4-2.9,1.2-3.9s1.8-1.5,3.1-1.5c1.2,0,2.1,0.4,2.7,1.2l0.1-1h2.6v10.2
		c0,0.9-0.2,1.7-0.6,2.4s-1,1.2-1.8,1.6s-1.7,0.5-2.7,0.5c-0.8,0-1.5-0.2-2.3-0.5s-1.3-0.7-1.7-1.2l1.2-1.7c0.7,0.8,1.6,1.2,2.6,1.2
		c0.7,0,1.3-0.2,1.7-0.6s0.6-1,0.6-1.7v-0.6c-0.7,0.7-1.5,1.1-2.6,1.1c-1.3,0-2.3-0.5-3.1-1.5s-1.2-2.3-1.2-4V89.1z M177.6,89.3
		c0,1,0.2,1.7,0.6,2.3c0.4,0.5,0.9,0.8,1.6,0.8c0.9,0,1.5-0.3,1.8-1V87c-0.4-0.6-1-1-1.8-1c-0.7,0-1.2,0.3-1.6,0.8
		S177.6,88.2,177.6,89.3z"/>
	<path class="st6" d="M189.3,85.1c0.7-0.9,1.7-1.3,2.8-1.3c2.3,0,3.5,1.3,3.5,4v6.8h-2.8v-6.7c0-0.6-0.1-1.1-0.4-1.3
		s-0.7-0.4-1.3-0.4c-0.8,0-1.4,0.3-1.8,1v7.5h-2.8v-15h2.8V85.1z"/>
	<path class="st6" d="M206.1,81.3v2.6h1.8V86h-1.8v5.3c0,0.4,0.1,0.7,0.2,0.8s0.4,0.3,0.9,0.3c0.3,0,0.6,0,0.8-0.1v2.1
		c-0.6,0.2-1.1,0.3-1.7,0.3c-2,0-3-1-3-3V86h-1.5v-2.1h1.5v-2.6H206.1z"/>
	<path class="st6" d="M212.3,85.1c0.7-0.9,1.7-1.3,2.8-1.3c2.3,0,3.5,1.3,3.5,4v6.8h-2.8v-6.7c0-0.6-0.1-1.1-0.4-1.3
		s-0.7-0.4-1.3-0.4c-0.8,0-1.4,0.3-1.8,1v7.5h-2.8v-15h2.8V85.1z"/>
	<path class="st6" d="M225.6,94.7c-1.5,0-2.8-0.5-3.8-1.4s-1.5-2.2-1.5-3.8v-0.3c0-1.1,0.2-2,0.6-2.8s1-1.5,1.7-1.9s1.6-0.7,2.6-0.7
		c1.4,0,2.6,0.5,3.4,1.4s1.2,2.2,1.2,3.9v1.2h-6.7c0.1,0.7,0.4,1.2,0.8,1.7s1,0.6,1.7,0.6c1.1,0,1.9-0.4,2.5-1.2l1.4,1.6
		c-0.4,0.6-1,1.1-1.7,1.4S226.4,94.7,225.6,94.7z M225.2,86c-0.6,0-1,0.2-1.4,0.6s-0.6,0.9-0.7,1.6h3.9V88c0-0.6-0.2-1.1-0.5-1.5
		S225.8,86,225.2,86z"/>
	<path class="st6" d="M78.2,118.7c-1.5,0-2.8-0.5-3.8-1.4S73,115,73,113.5v-0.3c0-1.1,0.2-2,0.6-2.8s1-1.5,1.7-1.9s1.6-0.7,2.6-0.7
		c1.4,0,2.6,0.5,3.4,1.4s1.2,2.2,1.2,3.9v1.2h-6.7c0.1,0.7,0.4,1.2,0.8,1.7s1,0.6,1.7,0.6c1.1,0,1.9-0.4,2.5-1.2l1.4,1.6
		c-0.4,0.6-1,1.1-1.7,1.4S79.1,118.7,78.2,118.7z M77.9,110c-0.6,0-1,0.2-1.4,0.6s-0.6,0.9-0.7,1.6h3.9V112c0-0.6-0.2-1.1-0.5-1.5
		S78.5,110,77.9,110z"/>
	<path class="st6" d="M86.8,107.9l0.1,1.2c0.8-0.9,1.8-1.4,3-1.4c1.1,0,2,0.3,2.5,1s0.8,1.6,0.8,2.9v6.8h-2.8v-6.8
		c0-0.6-0.1-1-0.4-1.3s-0.7-0.4-1.3-0.4c-0.8,0-1.4,0.3-1.8,1v7.5h-2.8v-10.6H86.8z"/>
	<path class="st6" d="M98.8,105.3v2.6h1.8v2.1h-1.8v5.3c0,0.4,0.1,0.7,0.2,0.8s0.4,0.3,0.9,0.3c0.3,0,0.6,0,0.8-0.1v2.1
		c-0.6,0.2-1.1,0.3-1.7,0.3c-2,0-3-1-3-3V110h-1.5v-2.1h1.5v-2.6H98.8z"/>
	<path class="st6" d="M102.1,105.2c0-0.4,0.1-0.8,0.4-1s0.7-0.4,1.2-0.4c0.5,0,0.9,0.1,1.2,0.4s0.4,0.6,0.4,1c0,0.4-0.1,0.8-0.4,1.1
		s-0.7,0.4-1.1,0.4s-0.9-0.1-1.1-0.4S102.1,105.6,102.1,105.2z M105.1,118.5h-2.8v-10.6h2.8V118.5z"/>
	<path class="st6" d="M113.4,110.6c-0.4-0.1-0.7-0.1-1-0.1c-1.1,0-1.8,0.4-2.1,1.1v6.9h-2.8v-10.6h2.7l0.1,1.3
		c0.6-1,1.4-1.5,2.4-1.5c0.3,0,0.6,0,0.9,0.1L113.4,110.6z"/>
	<path class="st6" d="M119.6,118.7c-1.5,0-2.8-0.5-3.8-1.4s-1.5-2.2-1.5-3.8v-0.3c0-1.1,0.2-2,0.6-2.8s1-1.5,1.7-1.9
		s1.6-0.7,2.6-0.7c1.4,0,2.6,0.5,3.4,1.4s1.2,2.2,1.2,3.9v1.2h-6.7c0.1,0.7,0.4,1.2,0.8,1.7s1,0.6,1.7,0.6c1.1,0,1.9-0.4,2.5-1.2
		l1.4,1.6c-0.4,0.6-1,1.1-1.7,1.4S120.5,118.7,119.6,118.7z M119.3,110c-0.6,0-1,0.2-1.4,0.6s-0.6,0.9-0.7,1.6h3.9V112
		c0-0.6-0.2-1.1-0.5-1.5S119.9,110,119.3,110z"/>
	<path class="st6" d="M141.5,104.3v9.4c0,1.6-0.5,2.8-1.5,3.7s-2.3,1.4-4,1.4c-1.7,0-3-0.4-4-1.3s-1.5-2.1-1.5-3.6v-9.5h2.9v9.4
		c0,0.9,0.2,1.6,0.7,2s1.1,0.6,1.9,0.6c1.6,0,2.5-0.9,2.5-2.6v-9.5H141.5z"/>
	<path class="st6" d="M143.3,113.1c0-1,0.2-2,0.6-2.8s1-1.5,1.7-1.9s1.6-0.7,2.6-0.7c1.4,0,2.6,0.4,3.5,1.3s1.4,2.1,1.5,3.6l0,0.7
		c0,1.6-0.5,2.9-1.4,3.9s-2.1,1.5-3.6,1.5s-2.7-0.5-3.6-1.5s-1.4-2.3-1.4-4V113.1z M146.1,113.3c0,1,0.2,1.8,0.6,2.3
		c0.4,0.5,0.9,0.8,1.6,0.8c0.7,0,1.2-0.3,1.6-0.8c0.4-0.5,0.6-1.4,0.6-2.5c0-1-0.2-1.7-0.6-2.3c-0.4-0.5-0.9-0.8-1.6-0.8
		c-0.7,0-1.2,0.3-1.6,0.8C146.3,111.4,146.1,112.2,146.1,113.3z"/>
	<path class="st6" d="M166.4,116.7c-0.5,0.6-1.3,1.1-2.2,1.5s-2,0.5-3.2,0.5c-1.2,0-2.3-0.3-3.2-0.8s-1.6-1.3-2.1-2.3
		s-0.8-2.2-0.8-3.6v-1c0-1.4,0.2-2.6,0.7-3.7s1.2-1.8,2.1-2.4s2-0.8,3.2-0.8c1.7,0,3,0.4,4,1.2s1.5,2,1.7,3.5h-2.9
		c-0.1-0.8-0.4-1.4-0.9-1.8s-1.1-0.6-1.8-0.6c-1,0-1.8,0.4-2.3,1.1s-0.8,1.9-0.8,3.3v0.9c0,1.5,0.3,2.6,0.8,3.4s1.4,1.1,2.5,1.1
		c1.1,0,1.9-0.2,2.4-0.7v-2.5h-2.7V111h5.6V116.7z"/>
	<path class="st6" d="M175,117.4c-0.7,0.8-1.7,1.3-2.9,1.3c-1.1,0-2-0.3-2.6-1s-0.9-1.6-0.9-2.9v-6.9h2.8v6.8c0,1.1,0.5,1.7,1.5,1.7
		c1,0,1.6-0.3,2-1v-7.5h2.8v10.6H175L175,117.4z"/>
	<path class="st6" d="M184.7,118.7c-1.5,0-2.8-0.5-3.8-1.4s-1.5-2.2-1.5-3.8v-0.3c0-1.1,0.2-2,0.6-2.8s1-1.5,1.7-1.9
		s1.6-0.7,2.6-0.7c1.4,0,2.6,0.5,3.4,1.4s1.2,2.2,1.2,3.9v1.2h-6.7c0.1,0.7,0.4,1.2,0.8,1.7s1,0.6,1.7,0.6c1.1,0,1.9-0.4,2.5-1.2
		l1.4,1.6c-0.4,0.6-1,1.1-1.7,1.4S185.6,118.7,184.7,118.7z M184.4,110c-0.6,0-1,0.2-1.4,0.6s-0.6,0.9-0.7,1.6h3.9V112
		c0-0.6-0.2-1.1-0.5-1.5S185,110,184.4,110z"/>
	<path class="st6" d="M193.6,118.5h-2.8v-15h2.8V118.5z"/>
	<path class="st6" d="M205.4,113.3c0,1.6-0.4,2.9-1.1,3.9s-1.7,1.5-3,1.5c-1.1,0-1.9-0.4-2.6-1.1v5h-2.8v-14.6h2.6l0.1,1
		c0.7-0.8,1.6-1.2,2.7-1.2c1.3,0,2.3,0.5,3,1.4s1.1,2.3,1.1,4V113.3z M202.6,113.1c0-1-0.2-1.7-0.5-2.3s-0.9-0.8-1.5-0.8
		c-0.9,0-1.5,0.3-1.8,1v4.3c0.3,0.7,1,1,1.8,1C201.9,116.4,202.6,115.3,202.6,113.1z"/>
	<path class="st6" d="M209.9,109.1c0.7-0.9,1.7-1.3,2.8-1.3c2.3,0,3.5,1.3,3.5,4v6.8h-2.8v-6.7c0-0.6-0.1-1.1-0.4-1.3
		s-0.7-0.4-1.3-0.4c-0.8,0-1.4,0.3-1.8,1v7.5h-2.8v-15h2.8V109.1z"/>
	<path class="st6" d="M51.1,140.4c0.5,0,0.9-0.1,1.3-0.4s0.5-0.7,0.5-1.1h2.6c0,0.7-0.2,1.4-0.6,2s-0.9,1.1-1.6,1.4
		s-1.4,0.5-2.2,0.5c-1.5,0-2.7-0.5-3.6-1.4s-1.3-2.3-1.3-4v-0.2c0-1.6,0.4-2.9,1.3-3.9s2.1-1.5,3.6-1.5c1.3,0,2.4,0.4,3.2,1.1
		s1.2,1.8,1.2,3h-2.6c0-0.5-0.2-1-0.5-1.3c-0.3-0.3-0.8-0.5-1.3-0.5c-0.7,0-1.2,0.2-1.5,0.7c-0.3,0.5-0.5,1.3-0.5,2.3v0.3
		c0,1.1,0.2,1.9,0.5,2.3S50.4,140.4,51.1,140.4z"/>
	<path class="st6" d="M56.7,137.1c0-1,0.2-2,0.6-2.8s1-1.5,1.7-1.9s1.6-0.7,2.6-0.7c1.4,0,2.6,0.4,3.5,1.3s1.4,2.1,1.5,3.6l0,0.7
		c0,1.6-0.5,2.9-1.4,3.9s-2.1,1.5-3.6,1.5s-2.7-0.5-3.6-1.5s-1.4-2.3-1.4-4V137.1z M59.5,137.3c0,1,0.2,1.8,0.6,2.3
		c0.4,0.5,0.9,0.8,1.6,0.8c0.7,0,1.2-0.3,1.6-0.8c0.4-0.5,0.6-1.4,0.6-2.5c0-1-0.2-1.7-0.6-2.3c-0.4-0.5-0.9-0.8-1.6-0.8
		c-0.7,0-1.2,0.3-1.6,0.8C59.7,135.4,59.5,136.2,59.5,137.3z"/>
	<path class="st6" d="M74.8,141.4c-0.7,0.8-1.7,1.3-2.9,1.3c-1.1,0-2-0.3-2.6-1s-0.9-1.6-0.9-2.9v-6.9h2.8v6.8
		c0,1.1,0.5,1.7,1.5,1.7c1,0,1.6-0.3,2-1v-7.5h2.8v10.6h-2.7L74.8,141.4z"/>
	<path class="st6" d="M85.6,134.6c-0.4-0.1-0.7-0.1-1-0.1c-1.1,0-1.8,0.4-2.1,1.1v6.9h-2.8v-10.6h2.7l0.1,1.3c0.6-1,1.4-1.5,2.4-1.5
		c0.3,0,0.6,0,0.9,0.1L85.6,134.6z"/>
	<path class="st6" d="M92.6,139.6c0-0.3-0.2-0.6-0.5-0.8s-0.9-0.4-1.6-0.5c-2.5-0.5-3.8-1.6-3.8-3.2c0-0.9,0.4-1.7,1.2-2.3
		s1.8-0.9,3.1-0.9c1.3,0,2.4,0.3,3.2,0.9s1.2,1.5,1.2,2.5h-2.8c0-0.4-0.1-0.7-0.4-1s-0.7-0.4-1.2-0.4c-0.5,0-0.8,0.1-1.1,0.3
		s-0.4,0.5-0.4,0.8c0,0.3,0.1,0.6,0.4,0.8s0.8,0.4,1.5,0.5s1.3,0.3,1.8,0.5c1.5,0.5,2.2,1.5,2.2,2.8c0,1-0.4,1.7-1.2,2.3
		s-1.9,0.9-3.2,0.9c-0.9,0-1.7-0.2-2.4-0.5s-1.2-0.7-1.6-1.3s-0.6-1.1-0.6-1.8h2.7c0,0.5,0.2,0.9,0.6,1.2s0.8,0.4,1.4,0.4
		c0.5,0,0.9-0.1,1.2-0.3S92.6,139.9,92.6,139.6z"/>
	<path class="st6" d="M102.1,142.7c-1.5,0-2.8-0.5-3.8-1.4s-1.5-2.2-1.5-3.8v-0.3c0-1.1,0.2-2,0.6-2.8s1-1.5,1.7-1.9
		s1.6-0.7,2.6-0.7c1.4,0,2.6,0.5,3.4,1.4s1.2,2.2,1.2,3.9v1.2h-6.7c0.1,0.7,0.4,1.2,0.8,1.7s1,0.6,1.7,0.6c1.1,0,1.9-0.4,2.5-1.2
		l1.4,1.6c-0.4,0.6-1,1.1-1.7,1.4S103,142.7,102.1,142.7z M101.8,134c-0.6,0-1,0.2-1.4,0.6s-0.6,0.9-0.7,1.6h3.9V136
		c0-0.6-0.2-1.1-0.5-1.5S102.3,134,101.8,134z"/>
	<path class="st6" d="M116,142.5h-2.8v-15h2.8V142.5z"/>
	<path class="st6" d="M118.3,129.2c0-0.4,0.1-0.8,0.4-1c0.3-0.3,0.7-0.4,1.2-0.4c0.5,0,0.9,0.1,1.2,0.4c0.3,0.3,0.4,0.6,0.4,1
		c0,0.4-0.1,0.8-0.4,1.1s-0.7,0.4-1.1,0.4s-0.9-0.1-1.1-0.4S118.3,129.6,118.3,129.2z M121.3,142.5h-2.8v-10.6h2.8V142.5z"/>
	<path class="st6" d="M129.3,139.6c0-0.3-0.2-0.6-0.5-0.8s-0.9-0.4-1.6-0.5c-2.5-0.5-3.8-1.6-3.8-3.2c0-0.9,0.4-1.7,1.2-2.3
		s1.8-0.9,3.1-0.9c1.3,0,2.4,0.3,3.2,0.9s1.2,1.5,1.2,2.5h-2.8c0-0.4-0.1-0.7-0.4-1s-0.7-0.4-1.2-0.4c-0.5,0-0.8,0.1-1.1,0.3
		s-0.4,0.5-0.4,0.8c0,0.3,0.1,0.6,0.4,0.8s0.8,0.4,1.5,0.5c0.7,0.1,1.3,0.3,1.8,0.5c1.5,0.5,2.2,1.5,2.2,2.8c0,1-0.4,1.7-1.2,2.3
		s-1.9,0.9-3.2,0.9c-0.9,0-1.7-0.2-2.4-0.5s-1.2-0.7-1.6-1.3s-0.6-1.1-0.6-1.8h2.7c0,0.5,0.2,0.9,0.6,1.2s0.8,0.4,1.4,0.4
		c0.5,0,0.9-0.1,1.2-0.3S129.3,139.9,129.3,139.6z"/>
	<path class="st6" d="M137.3,129.3v2.6h1.8v2.1h-1.8v5.3c0,0.4,0.1,0.7,0.2,0.8s0.4,0.3,0.9,0.3c0.3,0,0.6,0,0.8-0.1v2.1
		c-0.6,0.2-1.1,0.3-1.7,0.3c-2,0-3-1-3-3V134h-1.5v-2.1h1.5v-2.6H137.3z"/>
	<path class="st6" d="M151.8,142.5c-0.1-0.3-0.2-0.6-0.3-0.9c-0.7,0.8-1.6,1.1-2.7,1.1c-1,0-1.9-0.3-2.6-0.9s-1-1.4-1-2.3
		c0-1.1,0.4-2,1.2-2.6s2-0.9,3.6-0.9h1.3v-0.6c0-0.5-0.1-0.9-0.4-1.2s-0.6-0.4-1.2-0.4c-0.5,0-0.8,0.1-1.1,0.3s-0.4,0.5-0.4,0.9
		h-2.8c0-0.6,0.2-1.2,0.6-1.7s0.9-0.9,1.6-1.2c0.7-0.3,1.5-0.4,2.3-0.4c1.3,0,2.3,0.3,3.1,1s1.1,1.6,1.1,2.8v4.6
		c0,1,0.1,1.8,0.4,2.3v0.2H151.8z M149.4,140.5c0.4,0,0.8-0.1,1.2-0.3s0.6-0.4,0.8-0.7v-1.8h-1.1c-1.4,0-2.2,0.5-2.3,1.5l0,0.2
		c0,0.4,0.1,0.6,0.4,0.9S149,140.5,149.4,140.5z"/>
	<path class="st6" d="M158.9,131.9l0.1,1.2c0.8-0.9,1.8-1.4,3-1.4c1.1,0,2,0.3,2.5,1s0.8,1.6,0.8,2.9v6.8h-2.8v-6.8
		c0-0.6-0.1-1-0.4-1.3s-0.7-0.4-1.3-0.4c-0.8,0-1.4,0.3-1.8,1v7.5h-2.8v-10.6H158.9z"/>
	<path class="st6" d="M167.1,137.1c0-1.6,0.4-3,1.1-3.9s1.8-1.5,3-1.5c1,0,1.9,0.4,2.5,1.2v-5.4h2.8v15h-2.5l-0.1-1.1
		c-0.7,0.9-1.6,1.3-2.7,1.3c-1.2,0-2.2-0.5-3-1.5S167.1,138.9,167.1,137.1z M169.9,137.3c0,1,0.2,1.8,0.5,2.3
		c0.3,0.5,0.8,0.8,1.5,0.8c0.9,0,1.5-0.4,1.8-1.1v-4.2c-0.4-0.7-1-1.1-1.8-1.1C170.6,134,169.9,135.1,169.9,137.3z"/>
	<path class="st6" d="M184.6,142.5V134H183v-2.1h1.6V131c0-1.2,0.3-2.1,1-2.8c0.7-0.7,1.6-1,2.9-1c0.4,0,0.9,0.1,1.4,0.2l0,2.2
		c-0.2-0.1-0.5-0.1-0.9-0.1c-1.1,0-1.6,0.5-1.6,1.5v0.8h2.1v2.1h-2.1v8.5H184.6z"/>
	<path class="st6" d="M190.9,129.2c0-0.4,0.1-0.8,0.4-1c0.3-0.3,0.7-0.4,1.2-0.4c0.5,0,0.9,0.1,1.2,0.4c0.3,0.3,0.4,0.6,0.4,1
		c0,0.4-0.1,0.8-0.4,1.1s-0.7,0.4-1.1,0.4s-0.9-0.1-1.1-0.4S190.9,129.6,190.9,129.2z M193.9,142.5h-2.8v-10.6h2.8V142.5z"/>
	<path class="st6" d="M198.9,131.9l0.1,1.2c0.8-0.9,1.8-1.4,3-1.4c1.1,0,2,0.3,2.5,1s0.8,1.6,0.8,2.9v6.8h-2.8v-6.8
		c0-0.6-0.1-1-0.4-1.3s-0.7-0.4-1.3-0.4c-0.8,0-1.4,0.3-1.8,1v7.5h-2.8v-10.6H198.9z"/>
	<path class="st6" d="M207,137.1c0-1.6,0.4-3,1.1-3.9s1.8-1.5,3-1.5c1,0,1.9,0.4,2.5,1.2v-5.4h2.8v15H214l-0.1-1.1
		c-0.7,0.9-1.6,1.3-2.7,1.3c-1.2,0-2.2-0.5-3-1.5S207,138.9,207,137.1z M209.9,137.3c0,1,0.2,1.8,0.5,2.3c0.3,0.5,0.8,0.8,1.5,0.8
		c0.9,0,1.5-0.4,1.8-1.1v-4.2c-0.4-0.7-1-1.1-1.8-1.1C210.5,134,209.9,135.1,209.9,137.3z"/>
	<path class="st6" d="M229.8,142.5c-0.1-0.3-0.2-0.6-0.3-0.9c-0.7,0.8-1.6,1.1-2.7,1.1c-1,0-1.9-0.3-2.6-0.9s-1-1.4-1-2.3
		c0-1.1,0.4-2,1.2-2.6s2-0.9,3.6-0.9h1.3v-0.6c0-0.5-0.1-0.9-0.4-1.2s-0.6-0.4-1.2-0.4c-0.5,0-0.8,0.1-1.1,0.3s-0.4,0.5-0.4,0.9
		h-2.8c0-0.6,0.2-1.2,0.6-1.7s0.9-0.9,1.6-1.2s1.5-0.4,2.3-0.4c1.3,0,2.3,0.3,3.1,1s1.1,1.6,1.1,2.8v4.6c0,1,0.1,1.8,0.4,2.3v0.2
		H229.8z M227.5,140.5c0.4,0,0.8-0.1,1.2-0.3s0.6-0.4,0.8-0.7v-1.8h-1.1c-1.4,0-2.2,0.5-2.3,1.5l0,0.2c0,0.4,0.1,0.6,0.4,0.9
		S227.1,140.5,227.5,140.5z"/>
	<path class="st6" d="M237.4,142.5h-2.8v-15h2.8V142.5z"/>
	<path class="st6" d="M242.7,142.5h-2.8v-15h2.8V142.5z"/>
	<path class="st6" d="M60.5,158.6c-0.4-0.1-0.7-0.1-1-0.1c-1.1,0-1.8,0.4-2.1,1.1v6.9h-2.8v-10.6h2.7l0.1,1.3c0.6-1,1.4-1.5,2.4-1.5
		c0.3,0,0.6,0,0.9,0.1L60.5,158.6z"/>
	<path class="st6" d="M66.7,166.7c-1.5,0-2.8-0.5-3.8-1.4s-1.5-2.2-1.5-3.8v-0.3c0-1.1,0.2-2,0.6-2.8c0.4-0.8,1-1.5,1.7-1.9
		c0.8-0.5,1.6-0.7,2.6-0.7c1.4,0,2.6,0.5,3.4,1.4c0.8,0.9,1.2,2.2,1.2,3.9v1.2h-6.7c0.1,0.7,0.4,1.2,0.8,1.7c0.5,0.4,1,0.6,1.7,0.6
		c1.1,0,1.9-0.4,2.5-1.2l1.4,1.6c-0.4,0.6-1,1.1-1.7,1.4S67.6,166.7,66.7,166.7z M66.4,158c-0.6,0-1,0.2-1.4,0.6
		c-0.3,0.4-0.6,0.9-0.7,1.6h3.9V160c0-0.6-0.2-1.1-0.5-1.5C67.5,158.2,67,158,66.4,158z"/>
	<path class="st6" d="M75.7,166.5h-2.8v-15h2.8V166.5z"/>
	<path class="st6" d="M82.8,166.7c-1.5,0-2.8-0.5-3.8-1.4s-1.5-2.2-1.5-3.8v-0.3c0-1.1,0.2-2,0.6-2.8c0.4-0.8,1-1.5,1.7-1.9
		c0.8-0.5,1.6-0.7,2.6-0.7c1.4,0,2.6,0.5,3.4,1.4c0.8,0.9,1.2,2.2,1.2,3.9v1.2h-6.7c0.1,0.7,0.4,1.2,0.8,1.7c0.5,0.4,1,0.6,1.7,0.6
		c1.1,0,1.9-0.4,2.5-1.2l1.4,1.6c-0.4,0.6-1,1.1-1.7,1.4S83.7,166.7,82.8,166.7z M82.5,158c-0.6,0-1,0.2-1.4,0.6
		c-0.3,0.4-0.6,0.9-0.7,1.6h3.9V160c0-0.6-0.2-1.1-0.5-1.5C83.6,158.2,83.1,158,82.5,158z"/>
	<path class="st6" d="M92.6,163.1l2-7.1h2.9L94,166.5h-2.7l-3.6-10.6h2.9L92.6,163.1z"/>
	<path class="st6" d="M104.8,166.5c-0.1-0.3-0.2-0.6-0.3-0.9c-0.7,0.8-1.6,1.1-2.7,1.1c-1,0-1.9-0.3-2.6-0.9s-1-1.4-1-2.3
		c0-1.1,0.4-2,1.2-2.6c0.8-0.6,2-0.9,3.6-0.9h1.3v-0.6c0-0.5-0.1-0.9-0.4-1.2s-0.6-0.4-1.2-0.4c-0.5,0-0.8,0.1-1.1,0.3
		c-0.3,0.2-0.4,0.5-0.4,0.9h-2.8c0-0.6,0.2-1.2,0.6-1.7c0.4-0.5,0.9-0.9,1.6-1.2c0.7-0.3,1.5-0.4,2.3-0.4c1.3,0,2.3,0.3,3.1,1
		s1.1,1.6,1.1,2.8v4.6c0,1,0.1,1.8,0.4,2.3v0.2H104.8z M102.4,164.5c0.4,0,0.8-0.1,1.2-0.3s0.6-0.4,0.8-0.7v-1.8h-1.1
		c-1.4,0-2.2,0.5-2.3,1.5l0,0.2c0,0.4,0.1,0.6,0.4,0.9C101.7,164.4,102,164.5,102.4,164.5z"/>
	<path class="st6" d="M112,155.9l0.1,1.2c0.8-0.9,1.8-1.4,3-1.4c1.1,0,2,0.3,2.5,1c0.5,0.7,0.8,1.6,0.8,2.9v6.8h-2.8v-6.8
		c0-0.6-0.1-1-0.4-1.3c-0.3-0.3-0.7-0.4-1.3-0.4c-0.8,0-1.4,0.3-1.8,1v7.5h-2.8v-10.6H112z"/>
	<path class="st6" d="M123.9,153.3v2.6h1.8v2.1h-1.8v5.3c0,0.4,0.1,0.7,0.2,0.8c0.1,0.2,0.4,0.3,0.9,0.3c0.3,0,0.6,0,0.8-0.1v2.1
		c-0.6,0.2-1.1,0.3-1.7,0.3c-2,0-3-1-3-3V158h-1.5v-2.1h1.5v-2.6H123.9z"/>
	<path class="st6" d="M132.3,153.2c0-0.4,0.1-0.8,0.4-1s0.7-0.4,1.2-0.4c0.5,0,0.9,0.1,1.2,0.4s0.4,0.6,0.4,1c0,0.4-0.1,0.8-0.4,1.1
		s-0.7,0.4-1.1,0.4s-0.9-0.1-1.1-0.4S132.3,153.6,132.3,153.2z M135.3,166.5h-2.8v-10.6h2.8V166.5z"/>
	<path class="st6" d="M140.2,155.9l0.1,1.2c0.8-0.9,1.8-1.4,3-1.4c1.1,0,2,0.3,2.5,1c0.5,0.7,0.8,1.6,0.8,2.9v6.8h-2.8v-6.8
		c0-0.6-0.1-1-0.4-1.3c-0.3-0.3-0.7-0.4-1.3-0.4c-0.8,0-1.4,0.3-1.8,1v7.5h-2.8v-10.6H140.2z"/>
	<path class="st6" d="M149.6,166.5V158H148v-2.1h1.6V155c0-1.2,0.3-2.1,1-2.8s1.6-1,2.9-1c0.4,0,0.9,0.1,1.4,0.2l0,2.2
		c-0.2-0.1-0.5-0.1-0.9-0.1c-1.1,0-1.6,0.5-1.6,1.5v0.8h2.1v2.1h-2.1v8.5H149.6z"/>
	<path class="st6" d="M155.5,161.1c0-1,0.2-2,0.6-2.8s1-1.5,1.7-1.9s1.6-0.7,2.6-0.7c1.4,0,2.6,0.4,3.5,1.3c0.9,0.9,1.4,2.1,1.5,3.6
		l0,0.7c0,1.6-0.5,2.9-1.4,3.9s-2.1,1.5-3.6,1.5s-2.7-0.5-3.6-1.5s-1.4-2.3-1.4-4V161.1z M158.3,161.3c0,1,0.2,1.8,0.6,2.3
		s0.9,0.8,1.6,0.8c0.7,0,1.2-0.3,1.6-0.8c0.4-0.5,0.6-1.4,0.6-2.5c0-1-0.2-1.7-0.6-2.3c-0.4-0.5-0.9-0.8-1.6-0.8
		c-0.7,0-1.2,0.3-1.6,0.8C158.5,159.4,158.3,160.2,158.3,161.3z"/>
	<path class="st6" d="M173.2,158.6c-0.4-0.1-0.7-0.1-1-0.1c-1.1,0-1.8,0.4-2.1,1.1v6.9h-2.8v-10.6h2.7l0.1,1.3
		c0.6-1,1.4-1.5,2.4-1.5c0.3,0,0.6,0,0.9,0.1L173.2,158.6z"/>
	<path class="st6" d="M177.2,155.9l0.1,1.2c0.7-0.9,1.8-1.4,3-1.4c1.4,0,2.3,0.5,2.8,1.6c0.7-1.1,1.8-1.6,3.2-1.6c1.1,0,2,0.3,2.6,1
		c0.6,0.7,0.8,1.7,0.8,3v6.7h-2.8v-6.7c0-0.6-0.1-1-0.4-1.3c-0.2-0.3-0.6-0.4-1.2-0.4c-0.8,0-1.4,0.4-1.8,1.2l0,7.3h-2.8v-6.7
		c0-0.6-0.1-1.1-0.4-1.3s-0.7-0.4-1.2-0.4c-0.8,0-1.4,0.3-1.7,1v7.5h-2.8v-10.6H177.2z"/>
	<path class="st6" d="M198,166.5c-0.1-0.3-0.2-0.6-0.3-0.9c-0.7,0.8-1.6,1.1-2.7,1.1c-1,0-1.9-0.3-2.6-0.9s-1-1.4-1-2.3
		c0-1.1,0.4-2,1.2-2.6c0.8-0.6,2-0.9,3.6-0.9h1.3v-0.6c0-0.5-0.1-0.9-0.4-1.2s-0.6-0.4-1.2-0.4c-0.5,0-0.8,0.1-1.1,0.3
		c-0.3,0.2-0.4,0.5-0.4,0.9h-2.8c0-0.6,0.2-1.2,0.6-1.7c0.4-0.5,0.9-0.9,1.6-1.2c0.7-0.3,1.5-0.4,2.3-0.4c1.3,0,2.3,0.3,3.1,1
		s1.1,1.6,1.1,2.8v4.6c0,1,0.1,1.8,0.4,2.3v0.2H198z M195.7,164.5c0.4,0,0.8-0.1,1.2-0.3s0.6-0.4,0.8-0.7v-1.8h-1.1
		c-1.4,0-2.2,0.5-2.3,1.5l0,0.2c0,0.4,0.1,0.6,0.4,0.9C194.9,164.4,195.2,164.5,195.7,164.5z"/>
	<path class="st6" d="M206,153.3v2.6h1.8v2.1H206v5.3c0,0.4,0.1,0.7,0.2,0.8c0.1,0.2,0.4,0.3,0.9,0.3c0.3,0,0.6,0,0.8-0.1v2.1
		c-0.6,0.2-1.1,0.3-1.7,0.3c-2,0-3-1-3-3V158h-1.5v-2.1h1.5v-2.6H206z"/>
	<path class="st6" d="M209.3,153.2c0-0.4,0.1-0.8,0.4-1s0.7-0.4,1.2-0.4c0.5,0,0.9,0.1,1.2,0.4s0.4,0.6,0.4,1c0,0.4-0.1,0.8-0.4,1.1
		s-0.7,0.4-1.1,0.4s-0.9-0.1-1.1-0.4S209.3,153.6,209.3,153.2z M212.3,166.5h-2.8v-10.6h2.8V166.5z"/>
	<path class="st6" d="M214.2,161.1c0-1,0.2-2,0.6-2.8s1-1.5,1.7-1.9s1.6-0.7,2.6-0.7c1.4,0,2.6,0.4,3.5,1.3c0.9,0.9,1.4,2.1,1.5,3.6
		l0,0.7c0,1.6-0.5,2.9-1.4,3.9s-2.1,1.5-3.6,1.5s-2.7-0.5-3.6-1.5s-1.4-2.3-1.4-4V161.1z M217,161.3c0,1,0.2,1.8,0.6,2.3
		s0.9,0.8,1.6,0.8c0.7,0,1.2-0.3,1.6-0.8c0.4-0.5,0.6-1.4,0.6-2.5c0-1-0.2-1.7-0.6-2.3c-0.4-0.5-0.9-0.8-1.6-0.8
		c-0.7,0-1.2,0.3-1.6,0.8C217.2,159.4,217,160.2,217,161.3z"/>
	<path class="st6" d="M228.6,155.9l0.1,1.2c0.8-0.9,1.8-1.4,3-1.4c1.1,0,2,0.3,2.5,1c0.5,0.7,0.8,1.6,0.8,2.9v6.8h-2.8v-6.8
		c0-0.6-0.1-1-0.4-1.3c-0.3-0.3-0.7-0.4-1.3-0.4c-0.8,0-1.4,0.3-1.8,1v7.5h-2.8v-10.6H228.6z"/>
	<path class="st6" d="M67.7,182.6c-0.4-0.1-0.7-0.1-1-0.1c-1.1,0-1.8,0.4-2.1,1.1v6.9h-2.8v-10.6h2.7l0.1,1.3c0.6-1,1.4-1.5,2.4-1.5
		c0.3,0,0.6,0,0.9,0.1L67.7,182.6z"/>
	<path class="st6" d="M73.9,190.7c-1.5,0-2.8-0.5-3.8-1.4s-1.5-2.2-1.5-3.8v-0.3c0-1.1,0.2-2,0.6-2.8s1-1.5,1.7-1.9s1.6-0.7,2.6-0.7
		c1.4,0,2.6,0.5,3.4,1.4s1.2,2.2,1.2,3.9v1.2h-6.7c0.1,0.7,0.4,1.2,0.8,1.7s1,0.6,1.7,0.6c1.1,0,1.9-0.4,2.5-1.2l1.4,1.6
		c-0.4,0.6-1,1.1-1.7,1.4S74.8,190.7,73.9,190.7z M73.6,182c-0.6,0-1,0.2-1.4,0.6c-0.3,0.4-0.6,0.9-0.7,1.6h3.9V184
		c0-0.6-0.2-1.1-0.5-1.5C74.7,182.2,74.2,182,73.6,182z"/>
	<path class="st6" d="M79.5,185.1c0-1.6,0.4-2.9,1.2-3.9s1.8-1.5,3.1-1.5c1.2,0,2.1,0.4,2.7,1.2l0.1-1h2.6v10.2
		c0,0.9-0.2,1.7-0.6,2.4s-1,1.2-1.8,1.6s-1.7,0.5-2.7,0.5c-0.8,0-1.5-0.2-2.3-0.5s-1.3-0.7-1.7-1.2l1.2-1.7c0.7,0.8,1.6,1.2,2.6,1.2
		c0.7,0,1.3-0.2,1.7-0.6s0.6-1,0.6-1.7v-0.6c-0.7,0.7-1.5,1.1-2.6,1.1c-1.3,0-2.3-0.5-3.1-1.5s-1.2-2.3-1.2-4V185.1z M82.3,185.3
		c0,1,0.2,1.7,0.6,2.3c0.4,0.5,0.9,0.8,1.6,0.8c0.9,0,1.5-0.3,1.8-1V183c-0.4-0.6-1-1-1.8-1c-0.7,0-1.2,0.3-1.6,0.8
		C82.5,183.4,82.3,184.2,82.3,185.3z"/>
	<path class="st6" d="M97.4,190.5c-0.1-0.3-0.2-0.6-0.3-0.9c-0.7,0.8-1.6,1.1-2.7,1.1c-1,0-1.9-0.3-2.6-0.9s-1-1.4-1-2.3
		c0-1.1,0.4-2,1.2-2.6s2-0.9,3.6-0.9H97v-0.6c0-0.5-0.1-0.9-0.4-1.2s-0.6-0.4-1.2-0.4c-0.5,0-0.8,0.1-1.1,0.3s-0.4,0.5-0.4,0.9h-2.8
		c0-0.6,0.2-1.2,0.6-1.7s0.9-0.9,1.6-1.2s1.5-0.4,2.3-0.4c1.3,0,2.3,0.3,3.1,1s1.1,1.6,1.1,2.8v4.6c0,1,0.1,1.8,0.4,2.3v0.2H97.4z
		 M95.1,188.5c0.4,0,0.8-0.1,1.2-0.3s0.6-0.4,0.8-0.7v-1.8H96c-1.4,0-2.2,0.5-2.3,1.5l0,0.2c0,0.4,0.1,0.6,0.4,0.9
		S94.7,188.5,95.1,188.5z"/>
	<path class="st6" d="M108,182.6c-0.4-0.1-0.7-0.1-1-0.1c-1.1,0-1.8,0.4-2.1,1.1v6.9H102v-10.6h2.7l0.1,1.3c0.6-1,1.4-1.5,2.4-1.5
		c0.3,0,0.6,0,0.9,0.1L108,182.6z"/>
	<path class="st6" d="M108.9,185.1c0-1.6,0.4-3,1.1-3.9s1.7-1.5,3-1.5c1,0,1.9,0.4,2.5,1.2v-5.4h2.8v15h-2.5l-0.1-1.1
		c-0.7,0.9-1.6,1.3-2.7,1.3c-1.2,0-2.2-0.5-3-1.5S108.9,186.9,108.9,185.1z M111.7,185.3c0,1,0.2,1.8,0.5,2.3s0.8,0.8,1.5,0.8
		c0.9,0,1.5-0.4,1.8-1.1v-4.2c-0.4-0.7-1-1.1-1.8-1.1C112.4,182,111.7,183.1,111.7,185.3z"/>
	<path class="st6" d="M120.6,177.2c0-0.4,0.1-0.8,0.4-1s0.7-0.4,1.2-0.4c0.5,0,0.9,0.1,1.2,0.4s0.4,0.6,0.4,1c0,0.4-0.1,0.8-0.4,1.1
		s-0.7,0.4-1.1,0.4s-0.9-0.1-1.1-0.4S120.6,177.6,120.6,177.2z M123.6,190.5h-2.8v-10.6h2.8V190.5z"/>
	<path class="st6" d="M128.5,179.9l0.1,1.2c0.8-0.9,1.8-1.4,3-1.4c1.1,0,2,0.3,2.5,1s0.8,1.6,0.8,2.9v6.8h-2.8v-6.8
		c0-0.6-0.1-1-0.4-1.3s-0.7-0.4-1.3-0.4c-0.8,0-1.4,0.3-1.8,1v7.5h-2.8v-10.6H128.5z"/>
	<path class="st6" d="M136.7,185.1c0-1.6,0.4-2.9,1.2-3.9s1.8-1.5,3.1-1.5c1.2,0,2.1,0.4,2.7,1.2l0.1-1h2.6v10.2
		c0,0.9-0.2,1.7-0.6,2.4s-1,1.2-1.8,1.6s-1.7,0.5-2.7,0.5c-0.8,0-1.5-0.2-2.3-0.5s-1.3-0.7-1.7-1.2l1.2-1.7c0.7,0.8,1.6,1.2,2.6,1.2
		c0.7,0,1.3-0.2,1.7-0.6s0.6-1,0.6-1.7v-0.6c-0.7,0.7-1.5,1.1-2.6,1.1c-1.3,0-2.3-0.5-3.1-1.5s-1.2-2.3-1.2-4V185.1z M139.5,185.3
		c0,1,0.2,1.7,0.6,2.3c0.4,0.5,0.9,0.8,1.6,0.8c0.9,0,1.5-0.3,1.8-1V183c-0.4-0.6-1-1-1.8-1c-0.7,0-1.2,0.3-1.6,0.8
		C139.7,183.4,139.5,184.2,139.5,185.3z"/>
	<path class="st6" d="M159.2,187.6c0-0.3-0.2-0.6-0.5-0.8s-0.9-0.4-1.6-0.5c-2.5-0.5-3.8-1.6-3.8-3.2c0-0.9,0.4-1.7,1.2-2.3
		s1.8-0.9,3.1-0.9c1.3,0,2.4,0.3,3.2,0.9s1.2,1.5,1.2,2.5h-2.8c0-0.4-0.1-0.7-0.4-1s-0.7-0.4-1.2-0.4c-0.5,0-0.8,0.1-1.1,0.3
		s-0.4,0.5-0.4,0.8c0,0.3,0.1,0.6,0.4,0.8s0.8,0.4,1.5,0.5s1.3,0.3,1.8,0.5c1.5,0.5,2.2,1.5,2.2,2.8c0,1-0.4,1.7-1.2,2.3
		s-1.9,0.9-3.2,0.9c-0.9,0-1.7-0.2-2.4-0.5s-1.2-0.7-1.6-1.3s-0.6-1.1-0.6-1.8h2.7c0,0.5,0.2,0.9,0.6,1.2s0.8,0.4,1.4,0.4
		c0.5,0,0.9-0.1,1.2-0.3S159.2,187.9,159.2,187.6z"/>
	<path class="st6" d="M168.6,190.7c-1.5,0-2.8-0.5-3.8-1.4s-1.5-2.2-1.5-3.8v-0.3c0-1.1,0.2-2,0.6-2.8s1-1.5,1.7-1.9
		s1.6-0.7,2.6-0.7c1.4,0,2.6,0.5,3.4,1.4s1.2,2.2,1.2,3.9v1.2h-6.7c0.1,0.7,0.4,1.2,0.8,1.7s1,0.6,1.7,0.6c1.1,0,1.9-0.4,2.5-1.2
		l1.4,1.6c-0.4,0.6-1,1.1-1.7,1.4S169.5,190.7,168.6,190.7z M168.3,182c-0.6,0-1,0.2-1.4,0.6c-0.3,0.4-0.6,0.9-0.7,1.6h3.9V184
		c0-0.6-0.2-1.1-0.5-1.5C169.4,182.2,168.9,182,168.3,182z"/>
	<path class="st6" d="M177.6,190.5h-2.8v-15h2.8V190.5z"/>
	<path class="st6" d="M184.8,190.7c-1.5,0-2.8-0.5-3.8-1.4s-1.5-2.2-1.5-3.8v-0.3c0-1.1,0.2-2,0.6-2.8s1-1.5,1.7-1.9
		s1.6-0.7,2.6-0.7c1.4,0,2.6,0.5,3.4,1.4s1.2,2.2,1.2,3.9v1.2h-6.7c0.1,0.7,0.4,1.2,0.8,1.7s1,0.6,1.7,0.6c1.1,0,1.9-0.4,2.5-1.2
		l1.4,1.6c-0.4,0.6-1,1.1-1.7,1.4S185.6,190.7,184.8,190.7z M184.4,182c-0.6,0-1,0.2-1.4,0.6c-0.3,0.4-0.6,0.9-0.7,1.6h3.9V184
		c0-0.6-0.2-1.1-0.5-1.5C185.5,182.2,185,182,184.4,182z"/>
	<path class="st6" d="M195.1,188.4c0.5,0,0.9-0.1,1.3-0.4s0.5-0.7,0.5-1.1h2.6c0,0.7-0.2,1.4-0.6,2s-0.9,1.1-1.6,1.4
		s-1.4,0.5-2.2,0.5c-1.5,0-2.7-0.5-3.6-1.4s-1.3-2.3-1.3-4v-0.2c0-1.6,0.4-2.9,1.3-3.9s2.1-1.5,3.6-1.5c1.3,0,2.4,0.4,3.2,1.1
		s1.2,1.8,1.2,3h-2.6c0-0.5-0.2-1-0.5-1.3s-0.8-0.5-1.3-0.5c-0.7,0-1.2,0.2-1.5,0.7s-0.5,1.3-0.5,2.3v0.3c0,1.1,0.2,1.9,0.5,2.3
		S194.4,188.4,195.1,188.4z"/>
	<path class="st6" d="M204.5,177.3v2.6h1.8v2.1h-1.8v5.3c0,0.4,0.1,0.7,0.2,0.8s0.4,0.3,0.9,0.3c0.3,0,0.6,0,0.8-0.1v2.1
		c-0.6,0.2-1.1,0.3-1.7,0.3c-2,0-3-1-3-3V182h-1.5v-2.1h1.5v-2.6H204.5z"/>
	<path class="st6" d="M212.8,190.7c-1.5,0-2.8-0.5-3.8-1.4s-1.5-2.2-1.5-3.8v-0.3c0-1.1,0.2-2,0.6-2.8s1-1.5,1.7-1.9
		s1.6-0.7,2.6-0.7c1.4,0,2.6,0.5,3.4,1.4s1.2,2.2,1.2,3.9v1.2h-6.7c0.1,0.7,0.4,1.2,0.8,1.7s1,0.6,1.7,0.6c1.1,0,1.9-0.4,2.5-1.2
		l1.4,1.6c-0.4,0.6-1,1.1-1.7,1.4S213.6,190.7,212.8,190.7z M212.4,182c-0.6,0-1,0.2-1.4,0.6c-0.3,0.4-0.6,0.9-0.7,1.6h3.9V184
		c0-0.6-0.2-1.1-0.5-1.5C213.5,182.2,213,182,212.4,182z"/>
	<path class="st6" d="M218.3,185.1c0-1.6,0.4-3,1.1-3.9s1.8-1.5,3-1.5c1,0,1.9,0.4,2.5,1.2v-5.4h2.8v15h-2.5l-0.1-1.1
		c-0.7,0.9-1.6,1.3-2.7,1.3c-1.2,0-2.2-0.5-3-1.5S218.3,186.9,218.3,185.1z M221.1,185.3c0,1,0.2,1.8,0.5,2.3s0.8,0.8,1.5,0.8
		c0.9,0,1.5-0.4,1.8-1.1v-4.2c-0.4-0.7-1-1.1-1.8-1.1C221.8,182,221.1,183.1,221.1,185.3z"/>
	<path class="st6" d="M114.5,212.4c0.5,0,0.9-0.1,1.3-0.4s0.5-0.7,0.5-1.1h2.6c0,0.7-0.2,1.4-0.6,2s-0.9,1.1-1.6,1.4
		s-1.4,0.5-2.2,0.5c-1.5,0-2.7-0.5-3.6-1.4s-1.3-2.3-1.3-4v-0.2c0-1.6,0.4-2.9,1.3-3.9s2.1-1.5,3.6-1.5c1.3,0,2.4,0.4,3.2,1.1
		s1.2,1.8,1.2,3h-2.6c0-0.5-0.2-1-0.5-1.3s-0.8-0.5-1.3-0.5c-0.7,0-1.2,0.2-1.5,0.7s-0.5,1.3-0.5,2.3v0.3c0,1.1,0.2,1.9,0.5,2.3
		S113.8,212.4,114.5,212.4z"/>
	<path class="st6" d="M120.1,209.1c0-1,0.2-2,0.6-2.8s1-1.5,1.7-1.9s1.6-0.7,2.6-0.7c1.4,0,2.6,0.4,3.5,1.3c0.9,0.9,1.4,2.1,1.5,3.6
		l0,0.7c0,1.6-0.5,2.9-1.4,3.9c-0.9,1-2.1,1.5-3.6,1.5s-2.7-0.5-3.6-1.5s-1.4-2.3-1.4-4V209.1z M122.9,209.3c0,1,0.2,1.8,0.6,2.3
		s0.9,0.8,1.6,0.8c0.7,0,1.2-0.3,1.6-0.8c0.4-0.5,0.6-1.4,0.6-2.5c0-1-0.2-1.7-0.6-2.3s-0.9-0.8-1.6-0.8c-0.7,0-1.2,0.3-1.6,0.8
		S122.9,208.2,122.9,209.3z"/>
	<path class="st6" d="M138.1,213.4c-0.7,0.8-1.7,1.3-2.9,1.3c-1.1,0-2-0.3-2.6-1s-0.9-1.6-0.9-2.9v-6.9h2.8v6.8
		c0,1.1,0.5,1.7,1.5,1.7c1,0,1.6-0.3,2-1v-7.5h2.8v10.6h-2.7L138.1,213.4z"/>
	<path class="st6" d="M148.9,206.6c-0.4-0.1-0.7-0.1-1-0.1c-1.1,0-1.8,0.4-2.1,1.1v6.9H143v-10.6h2.7l0.1,1.3c0.6-1,1.4-1.5,2.4-1.5
		c0.3,0,0.6,0,0.9,0.1L148.9,206.6z"/>
	<path class="st6" d="M156,211.6c0-0.3-0.2-0.6-0.5-0.8s-0.9-0.4-1.6-0.5c-2.5-0.5-3.8-1.6-3.8-3.2c0-0.9,0.4-1.7,1.2-2.3
		s1.8-0.9,3.1-0.9c1.3,0,2.4,0.3,3.2,0.9s1.2,1.5,1.2,2.5h-2.8c0-0.4-0.1-0.7-0.4-1s-0.7-0.4-1.2-0.4c-0.5,0-0.8,0.1-1.1,0.3
		s-0.4,0.5-0.4,0.8c0,0.3,0.1,0.6,0.4,0.8s0.8,0.4,1.5,0.5s1.3,0.3,1.8,0.5c1.5,0.5,2.2,1.5,2.2,2.8c0,1-0.4,1.7-1.2,2.3
		s-1.9,0.9-3.2,0.9c-0.9,0-1.7-0.2-2.4-0.5s-1.2-0.7-1.6-1.3s-0.6-1.1-0.6-1.8h2.7c0,0.5,0.2,0.9,0.6,1.2s0.8,0.4,1.4,0.4
		c0.5,0,0.9-0.1,1.2-0.3S156,211.9,156,211.6z"/>
	<path class="st6" d="M165.4,214.7c-1.5,0-2.8-0.5-3.8-1.4s-1.5-2.2-1.5-3.8v-0.3c0-1.1,0.2-2,0.6-2.8s1-1.5,1.7-1.9
		s1.6-0.7,2.6-0.7c1.4,0,2.6,0.5,3.4,1.4s1.2,2.2,1.2,3.9v1.2h-6.7c0.1,0.7,0.4,1.2,0.8,1.7s1,0.6,1.7,0.6c1.1,0,1.9-0.4,2.5-1.2
		l1.4,1.6c-0.4,0.6-1,1.1-1.7,1.4S166.3,214.7,165.4,214.7z M165.1,206c-0.6,0-1,0.2-1.4,0.6c-0.3,0.4-0.6,0.9-0.7,1.6h3.9V208
		c0-0.6-0.2-1.1-0.5-1.5C166.2,206.2,165.7,206,165.1,206z"/>
	<path class="st6" d="M177.1,211.6c0-0.3-0.2-0.6-0.5-0.8s-0.9-0.4-1.6-0.5c-2.5-0.5-3.8-1.6-3.8-3.2c0-0.9,0.4-1.7,1.2-2.3
		s1.8-0.9,3.1-0.9c1.3,0,2.4,0.3,3.2,0.9s1.2,1.5,1.2,2.5H177c0-0.4-0.1-0.7-0.4-1s-0.7-0.4-1.2-0.4c-0.5,0-0.8,0.1-1.1,0.3
		s-0.4,0.5-0.4,0.8c0,0.3,0.1,0.6,0.4,0.8s0.8,0.4,1.5,0.5s1.3,0.3,1.8,0.5c1.5,0.5,2.2,1.5,2.2,2.8c0,1-0.4,1.7-1.2,2.3
		s-1.9,0.9-3.2,0.9c-0.9,0-1.7-0.2-2.4-0.5s-1.2-0.7-1.6-1.3s-0.6-1.1-0.6-1.8h2.7c0,0.5,0.2,0.9,0.6,1.2s0.8,0.4,1.4,0.4
		c0.5,0,0.9-0.1,1.2-0.3S177.1,211.9,177.1,211.6z"/>
</g>
</svg>
