<?xml version="1.0" encoding="utf-8"?>
<!-- Generator: Adobe Illustrator 26.1.0, SVG Export Plug-In . SVG Version: 6.00 Build 0)  -->
<svg version="1.1" id="Layer_1" xmlns="http://www.w3.org/2000/svg" xmlns:xlink="http://www.w3.org/1999/xlink" x="0px" y="0px"
	 viewBox="0 0 292.2 292.9" style="enable-background:new 0 0 292.2 292.9;" xml:space="preserve">
<style type="text/css">
	.st0{fill:#130303;}
	.st1{fill:#2D080A;}
	.st2{fill:#FFCDBC;}
	.st3{fill:none;stroke:#414042;stroke-width:10;stroke-miterlimit:10;}
</style>
<circle class="st0" cx="146.4" cy="146.4" r="139.8"/>
<g>
	<path class="st1" d="M71.4,147c-0.2,2.1-1,3.8-2.4,5.1c-1.4,1.2-3.3,1.9-5.7,1.9c-2.6,0-4.6-0.9-6.1-2.6c-1.5-1.7-2.2-4.1-2.2-7.1
		V143c0-1.9,0.3-3.6,1-5.1s1.7-2.6,2.9-3.4s2.8-1.2,4.4-1.2c2.3,0,4.2,0.6,5.6,1.8s2.2,3,2.5,5.2h-4.2c-0.1-1.3-0.5-2.2-1.1-2.8
		s-1.6-0.9-2.8-0.9c-1.4,0-2.4,0.5-3.1,1.5c-0.7,1-1,2.5-1.1,4.6v1.5c0,2.2,0.3,3.7,1,4.7s1.7,1.5,3.1,1.5c1.3,0,2.2-0.3,2.9-0.9
		c0.6-0.6,1-1.5,1.1-2.7L71.4,147L71.4,147z"/>
	<path class="st1" d="M73.2,146.1c0-1.5,0.3-2.8,0.9-3.9s1.4-2,2.5-2.7c1.1-0.6,2.3-0.9,3.8-0.9c2,0,3.7,0.6,5,1.8s2,2.9,2.1,5v1
		c0,2.3-0.6,4.1-1.9,5.5s-3,2.1-5.2,2.1s-3.9-0.7-5.2-2.1s-1.9-3.2-1.9-5.6v-0.2H73.2z M77.2,146.4c0,1.4,0.3,2.5,0.8,3.2
		s1.3,1.1,2.3,1.1s1.7-0.4,2.3-1.1c0.6-0.7,0.8-1.9,0.8-3.5c0-1.4-0.3-2.4-0.8-3.2c-0.6-0.8-1.3-1.1-2.3-1.1s-1.7,0.4-2.3,1.1
		C77.5,143.6,77.2,144.8,77.2,146.4z"/>
	<path class="st1" d="M98.9,152.1c-1,1.2-2.4,1.8-4.1,1.8c-1.6,0-2.8-0.5-3.7-1.4s-1.3-2.2-1.3-4v-9.7h4v9.6c0,1.5,0.7,2.3,2.1,2.3
		s2.3-0.5,2.8-1.4v-10.5h4v14.8H99L98.9,152.1z"/>
	<path class="st1" d="M114.2,142.6c-0.6-0.1-1-0.1-1.4-0.1c-1.5,0-2.5,0.5-3,1.5v9.7h-4v-14.8h3.8l0.1,1.8c0.8-1.4,1.9-2,3.3-2
		c0.4,0,0.9,0.1,1.2,0.2V142.6z"/>
	<path class="st1" d="M124.3,149.6c0-0.5-0.2-0.9-0.7-1.1c-0.5-0.3-1.3-0.5-2.3-0.8c-3.6-0.7-5.3-2.2-5.3-4.5c0-1.3,0.6-2.4,1.7-3.3
		c1.1-0.9,2.6-1.3,4.3-1.3c1.9,0,3.4,0.4,4.6,1.3c1.1,0.9,1.7,2,1.7,3.4h-4c0-0.6-0.2-1-0.6-1.4s-0.9-0.6-1.7-0.6
		c-0.7,0-1.2,0.1-1.6,0.4c-0.4,0.3-0.6,0.7-0.6,1.1c0,0.4,0.2,0.8,0.6,1.1s1.1,0.5,2.1,0.7s1.8,0.4,2.5,0.7c2.1,0.8,3.2,2.1,3.2,4
		c0,1.3-0.6,2.4-1.8,3.3c-1.2,0.8-2.7,1.2-4.6,1.2c-1.3,0-2.4-0.2-3.3-0.7c-1-0.4-1.7-1.1-2.3-1.8s-0.8-1.6-0.8-2.5h3.8
		c0,0.7,0.3,1.2,0.8,1.6s1.2,0.6,2,0.6s1.3-0.1,1.7-0.4C124.1,150.4,124.3,150,124.3,149.6z"/>
	<path class="st1" d="M137.6,153.9c-2.2,0-4-0.7-5.4-2s-2.1-3.1-2.1-5.3v-0.4c0-1.5,0.3-2.8,0.9-4c0.6-1.2,1.4-2.1,2.5-2.7
		c1.1-0.6,2.3-0.9,3.6-0.9c2.1,0,3.7,0.6,4.8,1.9c1.2,1.3,1.8,3.1,1.8,5.4v1.6h-9.6c0.1,1,0.5,1.7,1.2,2.3s1.5,0.9,2.5,0.9
		c1.5,0,2.8-0.5,3.6-1.6l2,2.2c-0.6,0.8-1.4,1.5-2.4,2C140,153.7,138.9,153.9,137.6,153.9z M137.2,141.8c-0.8,0-1.4,0.3-1.9,0.8
		s-0.8,1.3-0.9,2.3h5.6v-0.3c0-0.9-0.3-1.6-0.7-2C138.7,142,138,141.8,137.2,141.8z"/>
	<path class="st1" d="M163.9,148.4c0-0.8-0.3-1.4-0.8-1.8s-1.6-0.8-3-1.3s-2.6-0.9-3.4-1.4c-2.3-1.2-3.4-2.9-3.4-4.9
		c0-1.1,0.3-2,0.9-2.9c0.6-0.8,1.5-1.5,2.6-2s2.4-0.7,3.9-0.7c1.4,0,2.7,0.3,3.9,0.8c1.1,0.5,2,1.2,2.6,2.2c0.6,0.9,0.9,2,0.9,3.2
		h-4.2c0-0.9-0.3-1.6-0.9-2.1c-0.6-0.5-1.4-0.8-2.4-0.8s-1.8,0.2-2.4,0.6c-0.6,0.4-0.9,1-0.9,1.7s0.3,1.2,1,1.6s1.6,0.8,2.9,1.2
		c2.4,0.7,4.1,1.6,5.2,2.6c1.1,1,1.6,2.3,1.6,3.9c0,1.7-0.7,3.1-2,4.1s-3.1,1.5-5.3,1.5c-1.6,0-3-0.3-4.2-0.8s-2.2-1.3-2.9-2.3
		s-1-2.1-1-3.4h4.2c0,2.2,1.3,3.3,4,3.3c1,0,1.8-0.2,2.3-0.6C163.6,149.7,163.9,149.1,163.9,148.4z"/>
	<path class="st1" d="M177.5,153.9c-2.2,0-4-0.7-5.4-2s-2.1-3.1-2.1-5.3v-0.4c0-1.5,0.3-2.8,0.9-4c0.6-1.2,1.4-2.1,2.5-2.7
		c1.1-0.6,2.3-0.9,3.6-0.9c2.1,0,3.7,0.6,4.8,1.9c1.2,1.3,1.8,3.1,1.8,5.4v1.6H174c0.1,1,0.5,1.7,1.2,2.3s1.5,0.9,2.5,0.9
		c1.5,0,2.8-0.5,3.6-1.6l2,2.2c-0.6,0.8-1.4,1.5-2.4,2C179.9,153.7,178.8,153.9,177.5,153.9z M177.1,141.8c-0.8,0-1.4,0.3-1.9,0.8
		s-0.8,1.3-0.9,2.3h5.6v-0.3c0-0.9-0.3-1.6-0.7-2C178.6,142,177.9,141.8,177.1,141.8z"/>
	<path class="st1" d="M194.6,153.6c-0.2-0.4-0.3-0.8-0.4-1.3c-1,1.1-2.2,1.6-3.8,1.6c-1.5,0-2.7-0.4-3.6-1.3c-1-0.8-1.4-1.9-1.4-3.2
		c0-1.6,0.6-2.8,1.8-3.6s2.9-1.3,5.1-1.3h1.8v-0.9c0-0.7-0.2-1.2-0.5-1.6c-0.4-0.4-0.9-0.6-1.7-0.6c-0.7,0-1.2,0.2-1.6,0.5
		c-0.4,0.3-0.6,0.8-0.6,1.3h-4c0-0.9,0.3-1.6,0.8-2.4c0.5-0.7,1.3-1.3,2.3-1.7s2.1-0.6,3.3-0.6c1.9,0,3.3,0.5,4.4,1.4
		c1.1,0.9,1.6,2.2,1.6,3.9v6.4c0,1.4,0.2,2.5,0.6,3.2v0.2L194.6,153.6L194.6,153.6z M191.3,150.9c0.6,0,1.1-0.1,1.6-0.4
		c0.5-0.3,0.9-0.6,1.1-1.1v-2.5h-1.5c-2,0-3.1,0.7-3.2,2.1v0.2c0,0.5,0.2,0.9,0.5,1.2C190.2,150.7,190.7,150.9,191.3,150.9z"/>
	<path class="st1" d="M209.6,142.6c-0.6-0.1-1-0.1-1.4-0.1c-1.5,0-2.5,0.5-3,1.5v9.7h-4v-14.8h3.8l0.1,1.8c0.8-1.4,1.9-2,3.3-2
		c0.4,0,0.9,0.1,1.2,0.2L209.6,142.6z"/>
	<path class="st1" d="M217.5,150.7c0.7,0,1.3-0.2,1.8-0.6s0.7-0.9,0.7-1.6h3.8c0,1-0.3,1.9-0.8,2.8c-0.6,0.8-1.3,1.5-2.2,1.9
		c-0.9,0.5-2,0.7-3.1,0.7c-2.1,0-3.8-0.7-5.1-2c-1.2-1.3-1.9-3.2-1.9-5.6V146c0-2.3,0.6-4.1,1.8-5.5s2.9-2,5.1-2
		c1.9,0,3.4,0.5,4.5,1.6s1.7,2.4,1.7,4.2H220c0-0.8-0.3-1.4-0.7-1.9s-1.1-0.7-1.8-0.7c-0.9,0-1.6,0.3-2.1,1s-0.7,1.8-0.7,3.3v0.4
		c0,1.5,0.2,2.6,0.7,3.3C215.8,150.4,216.5,150.7,217.5,150.7z"/>
	<path class="st1" d="M230,140.5c1.1-1.3,2.4-1.9,4-1.9c3.2,0,4.9,1.9,4.9,5.6v9.5h-4v-9.4c0-0.9-0.2-1.5-0.6-1.9
		c-0.4-0.4-1-0.6-1.8-0.6c-1.2,0-2,0.4-2.6,1.3v10.5h-4v-21h4v7.9H230z"/>
</g>
<g>
	<path class="st2" d="M70.5,145.4c-0.2,2.1-1,3.8-2.4,5.1c-1.4,1.2-3.3,1.8-5.7,1.8c-2.6,0-4.6-0.9-6.1-2.6
		c-1.5-1.7-2.2-4.1-2.2-7.1v-1.2c0-1.9,0.3-3.6,1-5.1s1.7-2.6,2.9-3.4s2.8-1.2,4.4-1.2c2.3,0,4.2,0.6,5.6,1.8s2.2,3,2.5,5.2h-4.2
		c-0.1-1.3-0.5-2.2-1.1-2.8s-1.6-0.9-2.8-0.9c-1.4,0-2.4,0.5-3.1,1.5c-0.7,1-1,2.5-1.1,4.6v1.5c0,2.2,0.3,3.7,1,4.7s1.7,1.5,3.1,1.5
		c1.3,0,2.2-0.3,2.9-0.9c0.6-0.6,1-1.5,1.1-2.7L70.5,145.4L70.5,145.4z"/>
	<path class="st2" d="M72.4,144.5c0-1.5,0.3-2.8,0.9-3.9s1.4-2,2.5-2.7c1.1-0.6,2.3-0.9,3.8-0.9c2,0,3.7,0.6,5,1.8s2,2.9,2.1,5v1
		c0,2.3-0.6,4.1-1.9,5.5s-3,2.1-5.2,2.1s-3.9-0.7-5.2-2.1s-1.9-3.2-1.9-5.6v-0.2H72.4z M76.4,144.8c0,1.4,0.3,2.5,0.8,3.2
		s1.3,1.1,2.3,1.1s1.7-0.4,2.3-1.1c0.6-0.7,0.8-1.9,0.8-3.5c0-1.4-0.3-2.4-0.8-3.2c-0.6-0.8-1.3-1.1-2.3-1.1s-1.7,0.4-2.3,1.1
		C76.7,142.1,76.4,143.2,76.4,144.8z"/>
	<path class="st2" d="M98,150.6c-1,1.2-2.4,1.8-4.1,1.8c-1.6,0-2.8-0.5-3.7-1.4s-1.3-2.2-1.3-4v-9.7h4v9.6c0,1.5,0.7,2.3,2.1,2.3
		s2.3-0.5,2.8-1.4v-10.5h4v14.8H98V150.6z"/>
	<path class="st2" d="M113.4,141c-0.6-0.1-1-0.1-1.4-0.1c-1.5,0-2.5,0.5-3,1.5v9.7h-4v-14.8h3.8l0.1,1.8c0.8-1.4,1.9-2,3.3-2
		c0.4,0,0.9,0.1,1.2,0.2V141z"/>
	<path class="st2" d="M123.4,148c0-0.5-0.2-0.9-0.7-1.1c-0.5-0.3-1.3-0.5-2.3-0.8c-3.6-0.7-5.3-2.2-5.3-4.5c0-1.3,0.6-2.4,1.7-3.3
		c1.1-0.9,2.6-1.3,4.3-1.3c1.9,0,3.4,0.4,4.6,1.3c1.1,0.9,1.7,2,1.7,3.4h-4c0-0.6-0.2-1-0.6-1.4s-0.9-0.6-1.7-0.6
		c-0.7,0-1.2,0.1-1.6,0.4c-0.4,0.3-0.6,0.7-0.6,1.1c0,0.4,0.2,0.8,0.6,1.1s1.1,0.5,2.1,0.7s1.8,0.4,2.5,0.7c2.1,0.8,3.2,2.1,3.2,4
		c0,1.4-0.6,2.4-1.8,3.3c-1.2,0.8-2.7,1.2-4.6,1.2c-1.3,0-2.4-0.2-3.3-0.7c-1-0.4-1.7-1-2.3-1.8s-0.8-1.6-0.8-2.5h3.8
		c0,0.7,0.3,1.2,0.8,1.6s1.2,0.6,2,0.6s1.3-0.1,1.7-0.4C123.2,148.8,123.4,148.5,123.4,148z"/>
	<path class="st2" d="M136.8,152.3c-2.2,0-4-0.7-5.4-2s-2.1-3.1-2.1-5.3v-0.4c0-1.5,0.3-2.8,0.9-4c0.6-1.2,1.4-2.1,2.5-2.7
		c1.1-0.6,2.3-0.9,3.6-0.9c2.1,0,3.7,0.6,4.8,1.9c1.2,1.3,1.8,3.1,1.8,5.4v1.6h-9.6c0.1,1,0.5,1.7,1.2,2.3s1.5,0.9,2.5,0.9
		c1.5,0,2.8-0.6,3.6-1.7l2,2.2c-0.6,0.8-1.4,1.5-2.4,2C139.2,152.1,138,152.3,136.8,152.3z M136.3,140.2c-0.8,0-1.4,0.3-1.9,0.8
		s-0.8,1.3-0.9,2.3h5.6V143c0-0.9-0.3-1.6-0.7-2C137.8,140.4,137.2,140.2,136.3,140.2z"/>
	<path class="st2" d="M163,146.9c0-0.8-0.3-1.4-0.8-1.8s-1.6-0.8-3-1.3s-2.6-0.9-3.4-1.4c-2.3-1.2-3.4-2.9-3.4-4.9
		c0-1.1,0.3-2,0.9-2.9c0.6-0.8,1.5-1.5,2.6-2s2.4-0.7,3.9-0.7c1.4,0,2.7,0.3,3.9,0.8c1.1,0.5,2,1.2,2.6,2.2c0.6,0.9,0.9,2,0.9,3.2
		H163c0-0.9-0.3-1.6-0.9-2.1c-0.6-0.5-1.4-0.8-2.4-0.8s-1.8,0.2-2.4,0.6c-0.6,0.4-0.9,1-0.9,1.7s0.3,1.2,1,1.6s1.6,0.8,2.9,1.2
		c2.4,0.7,4.1,1.6,5.2,2.6c1.1,1,1.6,2.3,1.6,3.9c0,1.7-0.7,3.1-2,4.1s-3.1,1.5-5.3,1.5c-1.6,0-3-0.3-4.2-0.8s-2.2-1.3-2.9-2.3
		s-1-2.1-1-3.4h4.2c0,2.2,1.3,3.3,4,3.3c1,0,1.8-0.2,2.3-0.6C162.8,148.1,163,147.6,163,146.9z"/>
	<path class="st2" d="M176.7,152.3c-2.2,0-4-0.7-5.4-2s-2.1-3.1-2.1-5.3v-0.4c0-1.5,0.3-2.8,0.9-4c0.6-1.2,1.4-2.1,2.5-2.7
		c1.1-0.6,2.3-0.9,3.6-0.9c2.1,0,3.7,0.6,4.8,1.9c1.2,1.3,1.8,3.1,1.8,5.4v1.6h-9.6c0.1,1,0.5,1.7,1.2,2.3s1.5,0.9,2.5,0.9
		c1.5,0,2.8-0.6,3.6-1.7l2,2.2c-0.6,0.8-1.4,1.5-2.4,2C179,152.1,177.9,152.3,176.7,152.3z M176.2,140.2c-0.8,0-1.4,0.3-1.9,0.8
		s-0.8,1.3-0.9,2.3h5.6V143c0-0.9-0.3-1.6-0.7-2C177.7,140.4,177.1,140.2,176.2,140.2z"/>
	<path class="st2" d="M193.8,152.1c-0.2-0.4-0.3-0.8-0.4-1.3c-1,1.1-2.2,1.6-3.8,1.6c-1.5,0-2.7-0.4-3.6-1.3c-1-0.8-1.4-1.9-1.4-3.2
		c0-1.6,0.6-2.8,1.8-3.6s2.9-1.3,5.1-1.3h1.8v-0.9c0-0.7-0.2-1.2-0.5-1.6c-0.4-0.4-0.9-0.6-1.7-0.6c-0.7,0-1.2,0.2-1.6,0.5
		c-0.4,0.3-0.6,0.8-0.6,1.3h-4c0-0.9,0.3-1.6,0.8-2.4c0.5-0.7,1.3-1.3,2.3-1.7s2.1-0.6,3.3-0.6c1.9,0,3.3,0.5,4.4,1.4
		c1.1,0.9,1.6,2.2,1.6,3.9v6.4c0,1.4,0.2,2.5,0.6,3.2v0.2L193.8,152.1L193.8,152.1z M190.5,149.3c0.6,0,1.1-0.1,1.6-0.4
		c0.5-0.3,0.9-0.6,1.1-1v-2.5h-1.5c-2,0-3.1,0.7-3.2,2.1v0.2c0,0.5,0.2,0.9,0.5,1.2C189.4,149.2,189.9,149.3,190.5,149.3z"/>
	<path class="st2" d="M208.7,141c-0.6-0.1-1-0.1-1.4-0.1c-1.5,0-2.5,0.5-3,1.5v9.7h-4v-14.8h3.8l0.1,1.8c0.8-1.4,1.9-2,3.3-2
		c0.4,0,0.9,0.1,1.2,0.2L208.7,141z"/>
	<path class="st2" d="M216.6,149.2c0.7,0,1.3-0.2,1.8-0.6s0.7-0.9,0.7-1.6h3.8c0,1-0.3,1.9-0.8,2.8c-0.6,0.8-1.3,1.5-2.2,1.9
		c-0.9,0.5-2,0.7-3.1,0.7c-2.1,0-3.8-0.7-5.1-2c-1.2-1.3-1.9-3.2-1.9-5.6v-0.3c0-2.3,0.6-4.1,1.8-5.5s2.9-2,5.1-2
		c1.9,0,3.4,0.5,4.5,1.6s1.7,2.4,1.7,4.2h-3.8c0-0.8-0.3-1.4-0.7-1.9s-1.1-0.7-1.8-0.7c-0.9,0-1.6,0.3-2.1,1s-0.7,1.8-0.7,3.3v0.4
		c0,1.5,0.2,2.6,0.7,3.3C215,148.8,215.7,149.2,216.6,149.2z"/>
	<path class="st2" d="M229.1,138.9c1.1-1.3,2.4-1.9,4-1.9c3.2,0,4.9,1.9,4.9,5.6v9.5h-4v-9.4c0-0.9-0.2-1.5-0.6-1.9
		c-0.4-0.4-1-0.6-1.8-0.6c-1.2,0-2,0.4-2.6,1.3V152h-4v-21h4v7.9H229.1z"/>
</g>
<circle class="st3" cx="146.1" cy="146.4" r="139.8"/>
</svg>
