<?xml version="1.0" encoding="utf-8"?>
<!-- Generator: Adobe Illustrator 26.1.0, SVG Export Plug-In . SVG Version: 6.00 Build 0)  -->
<svg version="1.1" id="Layer_1" xmlns="http://www.w3.org/2000/svg" xmlns:xlink="http://www.w3.org/1999/xlink" x="0px" y="0px"
	 viewBox="0 0 292.2 292.9" style="enable-background:new 0 0 292.2 292.9;" xml:space="preserve">
<style type="text/css">
	.st0{fill:#F5853F;}
	.st1{fill:#7C3626;}
	.st2{fill:none;stroke:#414042;stroke-width:10;stroke-miterlimit:10;}
	.st3{fill:#2D080A;}
</style>
<image style="overflow:visible;enable-background:new    ;" width="937" height="557" xlink:href="8BA1E81E.jpeg"  transform="matrix(1 0 0 1 -7360.5654 -7926.522)">
</image>
<circle class="st0" cx="146.4" cy="146.4" r="139.8"/>
<g>
	<path class="st1" d="M114.1,160.5c-1.2,1.4-2.9,2.5-5,3.3c-2.2,0.8-4.6,1.2-7.2,1.2c-2.8,0-5.2-0.6-7.3-1.8c-2.1-1.2-3.7-3-4.8-5.3
		c-1.1-2.3-1.7-5-1.7-8.1v-2.2c0-3.2,0.5-6,1.6-8.3c1.1-2.3,2.6-4.1,4.7-5.4c2-1.2,4.4-1.9,7.1-1.9c3.8,0,6.8,0.9,8.9,2.7
		s3.4,4.4,3.8,7.9h-6.4c-0.3-1.8-0.9-3.2-1.9-4c-1-0.8-2.4-1.3-4.1-1.3c-2.2,0-3.9,0.8-5.1,2.5s-1.8,4.2-1.8,7.5v2
		c0,3.4,0.6,5.9,1.9,7.6s3.1,2.6,5.6,2.6c2.5,0,4.2-0.5,5.3-1.6v-5.5h-6v-4.9h12.6V160.5z"/>
	<path class="st1" d="M132.4,146.7c-0.9-0.1-1.6-0.2-2.3-0.2c-2.4,0-4,0.8-4.7,2.4v15.6H119v-23.8h6l0.2,2.8c1.3-2.2,3-3.3,5.3-3.3
		c0.7,0,1.4,0.1,2,0.3L132.4,146.7z"/>
	<path class="st1" d="M148.6,164.6c-0.3-0.6-0.5-1.3-0.6-2.1c-1.5,1.7-3.5,2.6-6,2.6c-2.3,0-4.3-0.7-5.8-2s-2.3-3-2.3-5.1
		c0-2.5,0.9-4.5,2.8-5.8c1.9-1.3,4.6-2,8.1-2h2.9v-1.4c0-1.1-0.3-2-0.8-2.6c-0.6-0.7-1.5-1-2.7-1c-1.1,0-1.9,0.3-2.5,0.8
		s-0.9,1.2-0.9,2.1h-6.4c0-1.4,0.4-2.7,1.3-3.8s2.1-2.1,3.6-2.8s3.3-1,5.2-1c2.9,0,5.3,0.7,7,2.2c1.7,1.5,2.6,3.5,2.6,6.2v10.3
		c0,2.3,0.3,4,0.9,5.1v0.4H148.6z M143.3,160.1c0.9,0,1.8-0.2,2.6-0.6c0.8-0.4,1.4-1,1.8-1.7v-4.1h-2.4c-3.2,0-4.9,1.1-5.1,3.3
		l0,0.4c0,0.8,0.3,1.4,0.8,2S142.4,160.1,143.3,160.1z"/>
	<path class="st1" d="M180.3,152.9c0,3.7-0.8,6.6-2.5,8.8c-1.7,2.2-3.9,3.3-6.7,3.3c-2.4,0-4.3-0.8-5.8-2.5v11.2h-6.3v-32.9h5.9
		l0.2,2.3c1.5-1.8,3.5-2.8,6-2.8c2.9,0,5.2,1.1,6.8,3.3s2.4,5.2,2.4,9V152.9z M174,152.4c0-2.2-0.4-3.9-1.2-5.1
		c-0.8-1.2-1.9-1.8-3.4-1.8c-2,0-3.4,0.8-4.1,2.3v9.7c0.8,1.6,2.2,2.4,4.2,2.4C172.5,159.9,174,157.4,174,152.4z"/>
	<path class="st1" d="M190.5,143.4c1.7-2,3.8-3,6.4-3c5.2,0,7.8,3,7.8,9v15.2h-6.4v-15.1c0-1.4-0.3-2.4-0.9-3s-1.6-1-2.9-1
		c-1.9,0-3.2,0.7-4,2.2v16.9h-6.3v-33.8h6.3V143.4z"/>
</g>
<circle class="st2" cx="146.4" cy="146.4" r="139.8"/>
<g>
	<path class="st3" d="M113,158.8c-1.2,1.4-2.9,2.5-5,3.3c-2.2,0.8-4.6,1.2-7.2,1.2c-2.8,0-5.2-0.6-7.3-1.8c-2.1-1.2-3.7-3-4.8-5.3
		c-1.1-2.3-1.7-5-1.7-8.1v-2.2c0-3.2,0.5-6,1.6-8.3c1.1-2.3,2.6-4.1,4.7-5.4c2-1.2,4.4-1.9,7.1-1.9c3.8,0,6.8,0.9,8.9,2.7
		s3.4,4.4,3.8,7.9h-6.4c-0.3-1.8-0.9-3.2-1.9-4c-1-0.8-2.4-1.3-4.1-1.3c-2.2,0-3.9,0.8-5.1,2.5s-1.8,4.2-1.8,7.5v2
		c0,3.4,0.6,5.9,1.9,7.6s3.1,2.6,5.6,2.6c2.5,0,4.2-0.5,5.3-1.6v-5.5h-6V146H113V158.8z"/>
	<path class="st3" d="M131.3,145c-0.9-0.1-1.6-0.2-2.3-0.2c-2.4,0-4,0.8-4.7,2.4v15.6H118V139h6l0.2,2.8c1.3-2.2,3-3.3,5.3-3.3
		c0.7,0,1.4,0.1,2,0.3L131.3,145z"/>
	<path class="st3" d="M147.5,162.8c-0.3-0.6-0.5-1.3-0.6-2.1c-1.5,1.7-3.5,2.6-6,2.6c-2.3,0-4.3-0.7-5.8-2s-2.3-3-2.3-5.1
		c0-2.5,0.9-4.5,2.8-5.8c1.9-1.3,4.6-2,8.1-2h2.9v-1.4c0-1.1-0.3-2-0.8-2.6c-0.6-0.7-1.5-1-2.7-1c-1.1,0-1.9,0.3-2.5,0.8
		s-0.9,1.2-0.9,2.1h-6.4c0-1.4,0.4-2.7,1.3-3.8s2.1-2.1,3.6-2.8s3.3-1,5.2-1c2.9,0,5.3,0.7,7,2.2c1.7,1.5,2.6,3.5,2.6,6.2v10.3
		c0,2.3,0.3,4,0.9,5.1v0.4H147.5z M142.2,158.4c0.9,0,1.8-0.2,2.6-0.6c0.8-0.4,1.4-1,1.8-1.7V152h-2.4c-3.2,0-4.9,1.1-5.1,3.3l0,0.4
		c0,0.8,0.3,1.4,0.8,2S141.3,158.4,142.2,158.4z"/>
	<path class="st3" d="M179.2,151.2c0,3.7-0.8,6.6-2.5,8.8c-1.7,2.2-3.9,3.3-6.7,3.3c-2.4,0-4.3-0.8-5.8-2.5V172h-6.3V139h5.9
		l0.2,2.3c1.5-1.8,3.5-2.8,6-2.8c2.9,0,5.2,1.1,6.8,3.3s2.4,5.2,2.4,9V151.2z M172.9,150.7c0-2.2-0.4-3.9-1.2-5.1
		c-0.8-1.2-1.9-1.8-3.4-1.8c-2,0-3.4,0.8-4.1,2.3v9.7c0.8,1.6,2.2,2.4,4.2,2.4C171.4,158.1,172.9,155.7,172.9,150.7z"/>
	<path class="st3" d="M189.4,141.6c1.7-2,3.8-3,6.4-3c5.2,0,7.8,3,7.8,9v15.2h-6.4v-15.1c0-1.4-0.3-2.4-0.9-3s-1.6-1-2.9-1
		c-1.9,0-3.2,0.7-4,2.2v16.9H183v-33.8h6.3V141.6z"/>
</g>
</svg>
