<?xml version="1.0" encoding="utf-8"?>
<!-- Generator: Adobe Illustrator 26.1.0, SVG Export Plug-In . SVG Version: 6.00 Build 0)  -->
<svg version="1.1" id="Layer_1" xmlns="http://www.w3.org/2000/svg" xmlns:xlink="http://www.w3.org/1999/xlink" x="0px" y="0px"
	 viewBox="0 0 292.2 292.9" style="enable-background:new 0 0 292.2 292.9;" xml:space="preserve">
<style type="text/css">
	.st0{fill:#F5853F;}
	.st1{fill:none;stroke:#414042;stroke-width:10;stroke-miterlimit:10;}
	.st2{fill:none;}
	.st3{enable-background:new    ;}
	.st4{fill:#7C3626;}
	.st5{fill:#2D080A;}
</style>
<image style="overflow:visible;enable-background:new    ;" width="937" height="557" xlink:href="44BFD265.jpeg"  transform="matrix(1 0 0 1 -7360.5654 -7926.522)">
</image>
<circle class="st0" cx="146.4" cy="149.9" r="139.8"/>
<circle class="st1" cx="146.4" cy="146.4" r="139.8"/>
<rect x="44.6" y="111.7" class="st2" width="203.7" height="157.6"/>
<g>
	<g class="st3">
		<path class="st4" d="M70,95.1v4.5h-2.6V86.8h5c1,0,1.8,0.2,2.5,0.5s1.3,0.8,1.7,1.5s0.6,1.4,0.6,2.2c0,1.3-0.4,2.2-1.3,3
			s-2.1,1.1-3.6,1.1L70,95.1L70,95.1z M70,93h2.4c0.7,0,1.2-0.2,1.6-0.5s0.6-0.8,0.6-1.4c0-0.6-0.2-1.1-0.6-1.5S73.1,89,72.5,89H70
			L70,93L70,93z"/>
		<path class="st4" d="M81.5,99.6H79V86.1h2.6V99.6z"/>
		<path class="st4" d="M89.1,99.6c-0.1-0.2-0.2-0.5-0.2-0.9c-0.6,0.7-1.4,1-2.4,1c-0.9,0-1.7-0.3-2.3-0.8s-0.9-1.2-0.9-2
			c0-1,0.4-1.8,1.1-2.3s1.8-0.8,3.2-0.8h1.2v-0.5c0-0.4-0.1-0.8-0.3-1.1s-0.6-0.4-1.1-0.4c-0.4,0-0.8,0.1-1,0.3S86,92.6,86,93h-2.5
			c0-0.6,0.2-1.1,0.5-1.5s0.8-0.8,1.4-1.1s1.3-0.4,2.1-0.4c1.2,0,2.1,0.3,2.8,0.9s1,1.4,1,2.5v4.1c0,0.9,0.1,1.6,0.4,2.1v0.1
			L89.1,99.6L89.1,99.6z M87,97.9c0.4,0,0.7-0.1,1-0.2s0.6-0.4,0.7-0.7v-1.6h-0.9c-1.3,0-1.9,0.4-2,1.3l0,0.1c0,0.3,0.1,0.6,0.3,0.8
			S86.6,97.9,87,97.9z"/>
		<path class="st4" d="M95.6,90.1l0.1,1.1c0.7-0.8,1.6-1.3,2.7-1.3c1,0,1.8,0.3,2.2,0.9s0.7,1.5,0.8,2.7v6.1h-2.6v-6.1
			c0-0.5-0.1-0.9-0.3-1.2c-0.2-0.2-0.6-0.4-1.2-0.4c-0.7,0-1.2,0.3-1.6,0.9v6.7h-2.5v-9.5L95.6,90.1L95.6,90.1z"/>
		<path class="st4" d="M107.4,94.8c0-0.9,0.2-1.8,0.5-2.5s0.9-1.3,1.6-1.7s1.5-0.6,2.4-0.6c1.3,0,2.3,0.4,3.1,1.2
			c0.8,0.8,1.3,1.9,1.4,3.2l0,0.6c0,1.5-0.4,2.6-1.2,3.5s-1.9,1.3-3.3,1.3s-2.5-0.4-3.3-1.3s-1.2-2.1-1.2-3.6
			C107.4,94.9,107.4,94.8,107.4,94.8z M110,95c0,0.9,0.2,1.6,0.5,2.1c0.3,0.5,0.8,0.7,1.5,0.7c0.6,0,1.1-0.2,1.4-0.7
			c0.3-0.5,0.5-1.2,0.5-2.3c0-0.9-0.2-1.6-0.5-2.1s-0.8-0.7-1.5-0.7c-0.6,0-1.1,0.2-1.4,0.7C110.1,93.2,110,94,110,95z"/>
		<path class="st4" d="M123.7,98.7c-0.6,0.8-1.5,1.1-2.6,1.1c-1,0-1.8-0.3-2.3-0.9s-0.8-1.4-0.8-2.6v-6.2h2.5v6.2
			c0,1,0.4,1.5,1.3,1.5c0.9,0,1.4-0.3,1.8-0.9v-6.7h2.6v9.5h-2.4L123.7,98.7z"/>
		<path class="st4" d="M131.1,87.8v2.3h1.6V92h-1.6v4.8c0,0.4,0.1,0.6,0.2,0.8c0.1,0.2,0.4,0.2,0.8,0.2c0.3,0,0.5,0,0.8-0.1v1.9
			c-0.5,0.1-1,0.2-1.5,0.2c-1.8,0-2.7-0.9-2.7-2.7V92h-1.4v-1.9h1.4v-2.3L131.1,87.8L131.1,87.8z"/>
		<path class="st4" d="M142.2,96l1.8-5.9h2.7l-3.8,11l-0.2,0.5c-0.6,1.2-1.5,1.9-2.8,1.9c-0.4,0-0.7-0.1-1.1-0.2v-1.9l0.4,0
			c0.5,0,0.8-0.1,1.1-0.2s0.4-0.4,0.6-0.7l0.3-0.8l-3.3-9.5h2.7L142.2,96z"/>
		<path class="st4" d="M147.3,94.8c0-0.9,0.2-1.8,0.5-2.5s0.9-1.3,1.6-1.7s1.5-0.6,2.4-0.6c1.3,0,2.3,0.4,3.1,1.2
			c0.8,0.8,1.3,1.9,1.4,3.2l0,0.6c0,1.5-0.4,2.6-1.2,3.5s-1.9,1.3-3.3,1.3s-2.5-0.4-3.3-1.3s-1.2-2.1-1.2-3.6L147.3,94.8L147.3,94.8
			z M149.8,95c0,0.9,0.2,1.6,0.5,2.1c0.3,0.5,0.8,0.7,1.5,0.7c0.6,0,1.1-0.2,1.4-0.7c0.4-0.5,0.5-1.2,0.5-2.3c0-0.9-0.2-1.6-0.5-2.1
			s-0.8-0.7-1.5-0.7c-0.6,0-1.1,0.2-1.4,0.7C150,93.2,149.8,94,149.8,95z"/>
		<path class="st4" d="M163.5,98.7c-0.6,0.8-1.5,1.1-2.6,1.1c-1,0-1.8-0.3-2.3-0.9s-0.8-1.4-0.8-2.6v-6.2h2.5v6.2
			c0,1,0.4,1.5,1.4,1.5c0.9,0,1.4-0.3,1.8-0.9v-6.7h2.6v9.5h-2.4L163.5,98.7z"/>
		<path class="st4" d="M173.3,92.5c-0.4-0.1-0.6-0.1-0.9-0.1c-1,0-1.6,0.3-1.9,1v6.2h-2.5v-9.5h2.4l0.1,1.1c0.5-0.9,1.2-1.3,2.1-1.3
			c0.3,0,0.5,0,0.8,0.1L173.3,92.5z"/>
		<path class="st4" d="M178.6,94.8c0-1.5,0.3-2.7,1-3.5s1.6-1.3,2.7-1.3c0.9,0,1.7,0.3,2.3,1v-4.8h2.6v13.5h-2.3l-0.1-1
			c-0.6,0.8-1.4,1.2-2.4,1.2c-1.1,0-2-0.4-2.7-1.3S178.6,96.4,178.6,94.8z M181.1,95c0,0.9,0.2,1.6,0.5,2.1s0.8,0.7,1.4,0.7
			c0.8,0,1.3-0.3,1.7-1V93c-0.3-0.7-0.9-1-1.6-1C181.7,92,181.1,93,181.1,95z"/>
		<path class="st4" d="M193.5,99.8c-1.4,0-2.5-0.4-3.4-1.3s-1.3-2-1.3-3.4v-0.2c0-1,0.2-1.8,0.6-2.6s0.9-1.3,1.6-1.7
			s1.4-0.6,2.3-0.6c1.3,0,2.3,0.4,3.1,1.2c0.8,0.8,1.1,2,1.1,3.5v1h-6.1c0.1,0.6,0.3,1.1,0.7,1.5s0.9,0.6,1.6,0.6
			c1,0,1.7-0.4,2.3-1.1l1.2,1.4c-0.4,0.5-0.9,1-1.6,1.3C195,99.7,194.3,99.8,193.5,99.8z M193.2,92c-0.5,0-0.9,0.2-1.2,0.5
			c-0.3,0.3-0.5,0.8-0.6,1.5h3.5v-0.2c0-0.6-0.2-1-0.5-1.3C194.1,92.1,193.7,92,193.2,92z"/>
		<path class="st4" d="M198.5,94.8c0-1.5,0.4-2.6,1-3.5s1.6-1.3,2.8-1.3c1,0,1.9,0.4,2.4,1.1l0.1-0.9h2.3v9.2c0,0.8-0.2,1.6-0.6,2.2
			s-0.9,1.1-1.6,1.4s-1.5,0.5-2.4,0.5c-0.7,0-1.4-0.1-2-0.4s-1.2-0.6-1.5-1.1l1.1-1.6c0.6,0.7,1.4,1.1,2.3,1.1
			c0.7,0,1.2-0.2,1.6-0.5c0.4-0.4,0.6-0.9,0.6-1.5v-0.5c-0.6,0.7-1.4,1-2.3,1c-1.1,0-2.1-0.4-2.8-1.3S198.5,96.4,198.5,94.8
			L198.5,94.8L198.5,94.8z M201,95c0,0.9,0.2,1.5,0.5,2s0.8,0.7,1.4,0.7c0.8,0,1.3-0.3,1.7-0.9v-4c-0.3-0.6-0.9-0.9-1.6-0.9
			c-0.6,0-1.1,0.2-1.4,0.8C201.2,93.3,201,94,201,95z"/>
		<path class="st4" d="M214.5,92.5c-0.4-0.1-0.6-0.1-0.9-0.1c-1,0-1.6,0.3-1.9,1v6.2h-2.5v-9.5h2.4l0.1,1.1c0.5-0.9,1.2-1.3,2.1-1.3
			c0.3,0,0.5,0,0.8,0.1L214.5,92.5z"/>
		<path class="st4" d="M220.1,99.8c-1.4,0-2.5-0.4-3.4-1.3s-1.3-2-1.3-3.4v-0.2c0-1,0.2-1.8,0.6-2.6s0.9-1.3,1.6-1.7
			s1.4-0.6,2.3-0.6c1.3,0,2.3,0.4,3.1,1.2c0.8,0.8,1.1,2,1.1,3.5v1h-6.1c0.1,0.6,0.3,1.1,0.7,1.5s0.9,0.6,1.6,0.6
			c1,0,1.7-0.4,2.3-1.1l1.2,1.4c-0.4,0.5-0.9,1-1.6,1.3C221.6,99.7,220.8,99.8,220.1,99.8z M219.8,92c-0.5,0-0.9,0.2-1.2,0.5
			c-0.3,0.3-0.5,0.8-0.6,1.5h3.5v-0.2c0-0.6-0.2-1-0.5-1.3C220.7,92.1,220.3,92,219.8,92z"/>
		<path class="st4" d="M229.8,99.8c-1.4,0-2.5-0.4-3.4-1.3s-1.3-2-1.3-3.4v-0.2c0-1,0.2-1.8,0.6-2.6s0.9-1.3,1.6-1.7
			s1.4-0.6,2.3-0.6c1.3,0,2.3,0.4,3.1,1.2c0.8,0.8,1.1,2,1.1,3.5v1h-6.1c0.1,0.6,0.3,1.1,0.7,1.5s0.9,0.6,1.6,0.6
			c1,0,1.7-0.4,2.3-1.1l1.2,1.4c-0.4,0.5-0.9,1-1.6,1.3C231.3,99.7,230.6,99.8,229.8,99.8z M229.5,92c-0.5,0-0.9,0.2-1.2,0.5
			c-0.3,0.3-0.5,0.8-0.6,1.5h3.5v-0.2c0-0.6-0.2-1-0.5-1.3C230.4,92.1,230,92,229.5,92z"/>
	</g>
	<g class="st3">
		<path class="st4" d="M68.4,120.3c-0.6,0.8-1.5,1.1-2.6,1.1c-1,0-1.8-0.3-2.3-0.9s-0.8-1.4-0.8-2.6v-6.2h2.5v6.1
			c0,1,0.5,1.5,1.3,1.5c0.9,0,1.4-0.3,1.8-0.9v-6.7h2.6v9.5h-2.4L68.4,120.3z"/>
		<path class="st4" d="M78,118.6c0-0.3-0.2-0.6-0.5-0.7s-0.8-0.3-1.5-0.5c-2.3-0.5-3.4-1.4-3.4-2.9c0-0.8,0.3-1.6,1.1-2.1
			c0.7-0.6,1.6-0.9,2.8-0.9c1.2,0,2.2,0.3,2.9,0.9s1.1,1.3,1.1,2.2h-2.6c0-0.4-0.1-0.7-0.3-0.9c-0.2-0.2-0.6-0.4-1.1-0.4
			c-0.4,0-0.8,0.1-1,0.3s-0.3,0.4-0.3,0.7c0,0.3,0.1,0.5,0.4,0.7c0.3,0.2,0.7,0.3,1.3,0.4s1.2,0.3,1.6,0.4c1.3,0.5,2,1.3,2,2.6
			c0,0.9-0.4,1.6-1.1,2.1c-0.7,0.5-1.7,0.8-2.9,0.8c-0.8,0-1.5-0.1-2.1-0.4c-0.6-0.3-1.1-0.7-1.4-1.2c-0.3-0.5-0.5-1-0.5-1.6h2.4
			c0,0.4,0.2,0.8,0.5,1s0.7,0.4,1.2,0.4c0.5,0,0.8-0.1,1.1-0.3C77.8,119.1,78,118.9,78,118.6z"/>
		<path class="st4" d="M82,109.3c0-0.4,0.1-0.7,0.4-0.9s0.6-0.4,1-0.4c0.4,0,0.8,0.1,1,0.4s0.4,0.6,0.4,0.9c0,0.4-0.1,0.7-0.4,0.9
			s-0.6,0.4-1,0.4s-0.8-0.1-1-0.4S82,109.6,82,109.3z M84.7,121.2h-2.6v-9.5h2.6V121.2z"/>
		<path class="st4" d="M89.2,111.7l0.1,1.1c0.7-0.9,1.6-1.3,2.7-1.3c1,0,1.8,0.3,2.2,0.9s0.7,1.5,0.8,2.6v6.1h-2.5v-6.1
			c0-0.5-0.1-0.9-0.3-1.2c-0.2-0.2-0.6-0.4-1.2-0.4c-0.7,0-1.2,0.3-1.6,0.9v6.7h-2.5v-9.5L89.2,111.7L89.2,111.7z"/>
		<path class="st4" d="M96.6,116.4c0-1.5,0.3-2.6,1-3.5s1.6-1.3,2.8-1.3c1,0,1.8,0.4,2.4,1.1l0.1-0.9h2.3v9.2c0,0.8-0.2,1.6-0.6,2.2
			s-0.9,1.1-1.6,1.4s-1.5,0.5-2.4,0.5c-0.7,0-1.4-0.1-2-0.4s-1.2-0.6-1.5-1.1l1.1-1.6c0.6,0.7,1.4,1.1,2.3,1.1
			c0.7,0,1.2-0.2,1.6-0.5c0.4-0.4,0.6-0.9,0.6-1.5v-0.5c-0.6,0.7-1.4,1-2.3,1c-1.1,0-2.1-0.4-2.8-1.3S96.5,118,96.6,116.4
			L96.6,116.4L96.6,116.4z M99.1,116.6c0,0.9,0.2,1.5,0.5,2s0.8,0.7,1.4,0.7c0.8,0,1.3-0.3,1.7-0.9v-4c-0.3-0.6-0.9-0.9-1.6-0.9
			c-0.6,0-1.1,0.2-1.4,0.8C99.3,114.9,99.1,115.6,99.1,116.6z"/>
		<path class="st4" d="M114.7,109.4v2.3h1.6v1.9h-1.6v4.8c0,0.4,0.1,0.6,0.2,0.8s0.4,0.2,0.8,0.2c0.3,0,0.5,0,0.8-0.1v1.9
			c-0.5,0.1-1,0.2-1.5,0.2c-1.8,0-2.7-0.9-2.7-2.7v-5.1h-1.4v-1.9h1.4v-2.3L114.7,109.4L114.7,109.4z"/>
		<path class="st4" d="M120.2,112.8c0.7-0.8,1.5-1.2,2.5-1.2c2.1,0,3.1,1.2,3.1,3.6v6.1h-2.5v-6c0-0.5-0.1-0.9-0.3-1.2
			s-0.6-0.4-1.2-0.4c-0.7,0-1.3,0.3-1.6,0.9v6.8h-2.5v-13.5h2.5V112.8z"/>
		<path class="st4" d="M132.2,121.4c-1.4,0-2.5-0.4-3.4-1.3s-1.3-2-1.3-3.4v-0.2c0-1,0.2-1.8,0.6-2.6c0.4-0.8,0.9-1.3,1.6-1.7
			c0.7-0.4,1.4-0.6,2.3-0.6c1.3,0,2.3,0.4,3.1,1.2s1.1,2,1.1,3.5v1h-6.1c0.1,0.6,0.3,1.1,0.7,1.5c0.4,0.4,0.9,0.6,1.6,0.6
			c1,0,1.7-0.4,2.3-1.1l1.2,1.4c-0.4,0.5-0.9,1-1.6,1.3C133.7,121.3,133,121.4,132.2,121.4z M131.9,113.6c-0.5,0-0.9,0.2-1.2,0.5
			c-0.3,0.3-0.5,0.8-0.6,1.5h3.5v-0.2c0-0.6-0.2-1-0.5-1.3C132.9,113.7,132.5,113.6,131.9,113.6z"/>
		<path class="st4" d="M150.6,116.6c0,1.5-0.3,2.6-1,3.5s-1.6,1.3-2.7,1.3c-1,0-1.7-0.3-2.3-1v4.5H142v-13.2h2.4l0.1,0.9
			c0.6-0.7,1.4-1.1,2.4-1.1c1.2,0,2.1,0.4,2.7,1.3s1,2.1,1,3.6L150.6,116.6L150.6,116.6z M148.1,116.4c0-0.9-0.2-1.6-0.5-2.1
			s-0.8-0.7-1.4-0.7c-0.8,0-1.3,0.3-1.6,0.9v3.9c0.3,0.6,0.9,0.9,1.7,0.9C147.5,119.4,148.1,118.4,148.1,116.4z"/>
		<path class="st4" d="M157.5,114.1c-0.4-0.1-0.6-0.1-0.9-0.1c-1,0-1.6,0.3-1.9,1v6.2h-2.5v-9.5h2.4l0.1,1.1
			c0.5-0.9,1.2-1.3,2.1-1.3c0.3,0,0.5,0,0.8,0.1L157.5,114.1z"/>
		<path class="st4" d="M163.1,121.4c-1.4,0-2.5-0.4-3.4-1.3s-1.3-2-1.3-3.4v-0.2c0-1,0.2-1.8,0.6-2.6s0.9-1.3,1.6-1.7
			s1.4-0.6,2.3-0.6c1.3,0,2.3,0.4,3.1,1.2s1.1,2,1.1,3.5v1H161c0.1,0.6,0.3,1.1,0.7,1.5s0.9,0.6,1.6,0.6c1,0,1.7-0.4,2.3-1.1
			l1.2,1.4c-0.4,0.5-0.9,1-1.6,1.3C164.6,121.3,163.9,121.4,163.1,121.4z M162.8,113.6c-0.5,0-0.9,0.2-1.2,0.5
			c-0.3,0.3-0.5,0.8-0.6,1.5h3.5v-0.2c0-0.6-0.2-1-0.5-1.3C163.8,113.7,163.4,113.6,162.8,113.6z"/>
		<path class="st4" d="M173.8,114.1c-0.4-0.1-0.6-0.1-0.9-0.1c-1,0-1.6,0.3-1.9,1v6.2h-2.5v-9.5h2.4l0.1,1.1
			c0.5-0.9,1.2-1.3,2.1-1.3c0.3,0,0.5,0,0.8,0.1L173.8,114.1z"/>
		<path class="st4" d="M179.4,121.4c-1.4,0-2.5-0.4-3.4-1.3s-1.3-2-1.3-3.4v-0.2c0-1,0.2-1.8,0.6-2.6s0.9-1.3,1.6-1.7
			s1.4-0.6,2.3-0.6c1.3,0,2.3,0.4,3.1,1.2s1.1,2,1.1,3.5v1h-6.1c0.1,0.6,0.3,1.1,0.7,1.5s0.9,0.6,1.6,0.6c1,0,1.7-0.4,2.3-1.1
			l1.2,1.4c-0.4,0.5-0.9,1-1.6,1.3C180.9,121.3,180.2,121.4,179.4,121.4z M179.1,113.6c-0.5,0-0.9,0.2-1.2,0.5
			c-0.3,0.3-0.5,0.8-0.6,1.5h3.5v-0.2c0-0.6-0.2-1-0.5-1.3C180.1,113.7,179.7,113.6,179.1,113.6z"/>
		<path class="st4" d="M184.4,116.4c0-1.5,0.3-2.7,1-3.5s1.6-1.3,2.7-1.3c1,0,1.8,0.4,2.4,1.2l0.2-1h2.2v13.2h-2.6v-4.5
			c-0.6,0.7-1.4,1-2.3,1c-1.1,0-2-0.4-2.7-1.3S184.4,118,184.4,116.4z M186.9,116.6c0,0.9,0.2,1.6,0.5,2.1s0.8,0.7,1.4,0.7
			c0.8,0,1.3-0.3,1.6-0.9v-3.9c-0.3-0.6-0.9-0.9-1.6-0.9c-0.6,0-1,0.2-1.4,0.7S186.9,115.5,186.9,116.6z"/>
		<path class="st4" d="M200.6,120.3c-0.6,0.8-1.5,1.1-2.6,1.1c-1,0-1.8-0.3-2.3-0.9s-0.8-1.4-0.8-2.6v-6.2h2.5v6.1
			c0,1,0.4,1.5,1.4,1.5c0.9,0,1.4-0.3,1.8-0.9v-6.7h2.6v9.5h-2.4L200.6,120.3z"/>
		<path class="st4" d="M205,109.3c0-0.4,0.1-0.7,0.4-0.9s0.6-0.4,1-0.4c0.4,0,0.8,0.1,1,0.4s0.4,0.6,0.4,0.9c0,0.4-0.1,0.7-0.4,0.9
			s-0.6,0.4-1,0.4s-0.8-0.1-1-0.4S205,109.6,205,109.3z M207.7,121.2h-2.6v-9.5h2.6V121.2z"/>
		<path class="st4" d="M214.9,118.6c0-0.3-0.1-0.6-0.5-0.7s-0.8-0.3-1.5-0.5c-2.3-0.5-3.4-1.4-3.4-2.9c0-0.8,0.4-1.6,1.1-2.1
			s1.6-0.9,2.8-0.9c1.2,0,2.2,0.3,2.9,0.9s1.1,1.3,1.1,2.2h-2.5c0-0.4-0.1-0.7-0.4-0.9c-0.2-0.2-0.6-0.4-1.1-0.4
			c-0.4,0-0.8,0.1-1,0.3s-0.4,0.4-0.4,0.7c0,0.3,0.1,0.5,0.4,0.7c0.3,0.2,0.7,0.3,1.4,0.4s1.2,0.3,1.6,0.4c1.3,0.5,2,1.3,2,2.6
			c0,0.9-0.4,1.6-1.1,2.1c-0.7,0.5-1.7,0.8-2.9,0.8c-0.8,0-1.5-0.1-2.1-0.4c-0.6-0.3-1.1-0.7-1.5-1.2c-0.4-0.5-0.5-1-0.5-1.6h2.4
			c0,0.4,0.2,0.8,0.5,1s0.7,0.4,1.2,0.4c0.5,0,0.9-0.1,1.1-0.3C214.8,119.1,214.9,118.9,214.9,118.6z"/>
		<path class="st4" d="M219,109.3c0-0.4,0.1-0.7,0.4-0.9s0.6-0.4,1-0.4c0.4,0,0.8,0.1,1,0.4s0.4,0.6,0.4,0.9c0,0.4-0.1,0.7-0.4,0.9
			s-0.6,0.4-1,0.4s-0.8-0.1-1-0.4S219,109.6,219,109.3z M221.7,121.2h-2.6v-9.5h2.6V121.2z"/>
		<path class="st4" d="M226.8,109.4v2.3h1.6v1.9h-1.6v4.8c0,0.4,0.1,0.6,0.2,0.8s0.4,0.2,0.8,0.2c0.3,0,0.5,0,0.8-0.1v1.9
			c-0.5,0.1-1,0.2-1.5,0.2c-1.8,0-2.7-0.9-2.7-2.7v-5.1h-1.4v-1.9h1.4v-2.3L226.8,109.4L226.8,109.4z"/>
		<path class="st4" d="M234.3,121.4c-1.4,0-2.5-0.4-3.4-1.3s-1.3-2-1.3-3.4v-0.2c0-1,0.2-1.8,0.6-2.6s0.9-1.3,1.6-1.7
			s1.4-0.6,2.3-0.6c1.3,0,2.3,0.4,3.1,1.2s1.1,2,1.1,3.5v1h-6.1c0.1,0.6,0.3,1.1,0.7,1.5s0.9,0.6,1.6,0.6c1,0,1.7-0.4,2.3-1.1
			l1.2,1.4c-0.4,0.5-0.9,1-1.6,1.3C235.8,121.3,235.1,121.4,234.3,121.4z M234,113.6c-0.5,0-0.9,0.2-1.2,0.5
			c-0.3,0.3-0.5,0.8-0.6,1.5h3.5v-0.2c0-0.6-0.2-1-0.5-1.3C234.9,113.7,234.5,113.6,234,113.6z"/>
	</g>
	<g class="st3">
		<path class="st4" d="M61.2,138c0-1.5,0.3-2.6,1-3.5s1.6-1.3,2.8-1.3c1,0,1.8,0.4,2.4,1.1l0.1-0.9h2.3v9.2c0,0.8-0.2,1.6-0.6,2.2
			s-0.9,1.1-1.6,1.4s-1.5,0.5-2.4,0.5c-0.7,0-1.4-0.1-2-0.4s-1.2-0.6-1.5-1.1l1.1-1.6c0.6,0.7,1.4,1.1,2.3,1.1
			c0.7,0,1.2-0.2,1.6-0.5c0.4-0.4,0.6-0.9,0.6-1.5V142c-0.6,0.7-1.4,1-2.3,1c-1.1,0-2.1-0.4-2.8-1.3S61.2,139.6,61.2,138L61.2,138
			L61.2,138z M63.8,138.2c0,0.9,0.2,1.5,0.5,2c0.3,0.5,0.8,0.7,1.4,0.7c0.8,0,1.3-0.3,1.7-0.9v-4c-0.3-0.6-0.9-0.9-1.6-0.9
			c-0.6,0-1.1,0.2-1.4,0.8C63.9,136.5,63.8,137.2,63.8,138.2z"/>
		<path class="st4" d="M77.2,135.7c-0.3-0.1-0.7-0.1-0.9-0.1c-1,0-1.6,0.3-1.9,1v6.2h-2.5v-9.5h2.4l0.1,1.1c0.5-0.9,1.2-1.3,2.1-1.3
			c0.3,0,0.5,0,0.8,0.1L77.2,135.7z"/>
		<path class="st4" d="M83.7,142.8c-0.1-0.2-0.2-0.5-0.2-0.9c-0.6,0.7-1.4,1-2.4,1c-0.9,0-1.7-0.3-2.3-0.8s-0.9-1.2-0.9-2
			c0-1,0.4-1.8,1.1-2.3s1.8-0.8,3.2-0.8h1.2v-0.5c0-0.4-0.1-0.8-0.3-1.1s-0.6-0.4-1.1-0.4c-0.4,0-0.8,0.1-1,0.3s-0.4,0.5-0.4,0.8H78
			c0-0.6,0.2-1.1,0.5-1.5s0.8-0.8,1.4-1.1s1.3-0.4,2.1-0.4c1.2,0,2.1,0.3,2.8,0.9c0.7,0.6,1,1.4,1,2.5v4.1c0,0.9,0.1,1.6,0.4,2.1
			v0.1L83.7,142.8L83.7,142.8z M81.6,141.1c0.4,0,0.7-0.1,1-0.2s0.6-0.4,0.7-0.7v-1.6h-0.9c-1.3,0-1.9,0.4-2,1.3l0,0.1
			c0,0.3,0.1,0.6,0.3,0.8S81.2,141.1,81.6,141.1z"/>
		<path class="st4" d="M96.4,138.2c0,1.5-0.3,2.6-1,3.5s-1.6,1.3-2.7,1.3c-1,0-1.7-0.3-2.3-1v4.5h-2.5v-13.2h2.4l0.1,0.9
			c0.6-0.7,1.4-1.1,2.4-1.1c1.2,0,2.1,0.4,2.7,1.3s1,2.1,1,3.6L96.4,138.2L96.4,138.2z M93.8,138c0-0.9-0.2-1.6-0.5-2.1
			s-0.8-0.7-1.4-0.7c-0.8,0-1.3,0.3-1.6,0.9v3.9c0.3,0.6,0.9,0.9,1.7,0.9C93.2,141,93.8,140,93.8,138z"/>
		<path class="st4" d="M100.4,134.4c0.7-0.8,1.5-1.2,2.5-1.2c2.1,0,3.1,1.2,3.1,3.6v6.1h-2.5v-6c0-0.5-0.1-0.9-0.3-1.2
			s-0.6-0.4-1.2-0.4c-0.7,0-1.3,0.3-1.6,0.9v6.8h-2.5v-13.5h2.5V134.4z"/>
		<path class="st4" d="M108,130.9c0-0.4,0.1-0.7,0.4-0.9s0.6-0.4,1-0.4c0.4,0,0.8,0.1,1,0.4s0.4,0.6,0.4,0.9c0,0.4-0.1,0.7-0.4,0.9
			s-0.6,0.4-1,0.4s-0.8-0.1-1-0.4S108,131.2,108,130.9z M110.7,142.8h-2.6v-9.5h2.6V142.8z"/>
		<path class="st4" d="M115.1,133.3l0.1,1.1c0.7-0.9,1.6-1.3,2.7-1.3c1,0,1.8,0.3,2.2,0.9s0.7,1.5,0.8,2.6v6.1h-2.5v-6.1
			c0-0.5-0.1-0.9-0.3-1.2c-0.2-0.2-0.6-0.4-1.2-0.4c-0.7,0-1.2,0.3-1.6,0.9v6.7h-2.5v-9.5L115.1,133.3L115.1,133.3z"/>
		<path class="st4" d="M122.5,138c0-1.5,0.3-2.6,1-3.5s1.6-1.3,2.8-1.3c1,0,1.8,0.4,2.4,1.1l0.1-0.9h2.3v9.2c0,0.8-0.2,1.6-0.6,2.2
			c-0.4,0.6-0.9,1.1-1.6,1.4c-0.7,0.3-1.5,0.5-2.4,0.5c-0.7,0-1.4-0.1-2-0.4s-1.2-0.6-1.5-1.1l1.1-1.6c0.6,0.7,1.4,1.1,2.3,1.1
			c0.7,0,1.2-0.2,1.6-0.5c0.4-0.4,0.6-0.9,0.6-1.5V142c-0.6,0.7-1.4,1-2.3,1c-1.1,0-2.1-0.4-2.8-1.3S122.5,139.6,122.5,138
			L122.5,138L122.5,138z M125.1,138.2c0,0.9,0.2,1.5,0.5,2s0.8,0.7,1.4,0.7c0.8,0,1.3-0.3,1.7-0.9v-4c-0.3-0.6-0.9-0.9-1.6-0.9
			c-0.6,0-1.1,0.2-1.4,0.8C125.2,136.5,125.1,137.2,125.1,138.2z"/>
		<path class="st4" d="M138.3,142.8v-7.6h-1.4v-1.9h1.4v-0.8c0-1.1,0.3-1.9,0.9-2.5s1.5-0.9,2.6-0.9c0.4,0,0.8,0.1,1.3,0.2l0,2
			c-0.2-0.1-0.5-0.1-0.8-0.1c-1,0-1.4,0.4-1.4,1.3v0.8h1.9v1.9h-1.9v7.6L138.3,142.8L138.3,142.8z"/>
		<path class="st4" d="M148.5,143c-1.4,0-2.5-0.4-3.4-1.3s-1.3-2-1.3-3.4v-0.2c0-1,0.2-1.8,0.6-2.6s0.9-1.3,1.6-1.7s1.4-0.6,2.3-0.6
			c1.3,0,2.3,0.4,3.1,1.2c0.8,0.8,1.1,2,1.1,3.5v1h-6.1c0.1,0.6,0.3,1.1,0.7,1.5s0.9,0.6,1.6,0.6c1,0,1.7-0.4,2.3-1.1l1.2,1.4
			c-0.4,0.5-0.9,1-1.6,1.3C150,142.9,149.3,143,148.5,143z M148.2,135.2c-0.5,0-0.9,0.2-1.2,0.5c-0.3,0.3-0.5,0.8-0.6,1.5h3.5V137
			c0-0.6-0.2-1-0.5-1.3C149.1,135.3,148.7,135.2,148.2,135.2z"/>
		<path class="st4" d="M159.3,142.8c-0.1-0.2-0.2-0.5-0.2-0.9c-0.6,0.7-1.4,1-2.4,1c-0.9,0-1.7-0.3-2.3-0.8s-0.9-1.2-0.9-2
			c0-1,0.4-1.8,1.1-2.3s1.8-0.8,3.2-0.8h1.2v-0.5c0-0.4-0.1-0.8-0.3-1.1s-0.6-0.4-1.1-0.4c-0.4,0-0.8,0.1-1,0.3s-0.4,0.5-0.4,0.8
			h-2.5c0-0.6,0.2-1.1,0.5-1.5s0.8-0.8,1.4-1.1s1.3-0.4,2.1-0.4c1.2,0,2.1,0.3,2.8,0.9c0.7,0.6,1,1.4,1,2.5v4.1
			c0,0.9,0.1,1.6,0.4,2.1v0.1L159.3,142.8L159.3,142.8z M157.2,141.1c0.4,0,0.7-0.1,1-0.2c0.3-0.2,0.6-0.4,0.7-0.7v-1.6H158
			c-1.3,0-1.9,0.4-2,1.3l0,0.1c0,0.3,0.1,0.6,0.3,0.8S156.8,141.1,157.2,141.1z"/>
		<path class="st4" d="M166.5,131v2.3h1.6v1.9h-1.6v4.8c0,0.4,0.1,0.6,0.2,0.8s0.4,0.2,0.8,0.2c0.3,0,0.5,0,0.8-0.1v1.9
			c-0.5,0.1-1,0.2-1.5,0.2c-1.8,0-2.7-0.9-2.7-2.7v-5.1h-1.4v-1.9h1.4V131L166.5,131L166.5,131z"/>
		<path class="st4" d="M175.3,141.9c-0.6,0.8-1.5,1.1-2.6,1.1c-1,0-1.8-0.3-2.3-0.9s-0.8-1.4-0.8-2.6v-6.2h2.5v6.1
			c0,1,0.4,1.5,1.4,1.5c0.9,0,1.4-0.3,1.8-0.9v-6.7h2.6v9.5h-2.4L175.3,141.9z"/>
		<path class="st4" d="M185,135.7c-0.4-0.1-0.6-0.1-0.9-0.1c-1,0-1.6,0.3-1.9,1v6.2h-2.5v-9.5h2.4l0.1,1.1c0.5-0.9,1.2-1.3,2.1-1.3
			c0.3,0,0.5,0,0.8,0.1L185,135.7z"/>
		<path class="st4" d="M190.6,143c-1.4,0-2.5-0.4-3.4-1.3s-1.3-2-1.3-3.4v-0.2c0-1,0.2-1.8,0.6-2.6s0.9-1.3,1.6-1.7s1.4-0.6,2.3-0.6
			c1.3,0,2.3,0.4,3.1,1.2s1.1,2,1.1,3.5v1h-6.1c0.1,0.6,0.3,1.1,0.7,1.5s0.9,0.6,1.6,0.6c1,0,1.7-0.4,2.3-1.1l1.2,1.4
			c-0.4,0.5-0.9,1-1.6,1.3C192.1,142.9,191.4,143,190.6,143z M190.3,135.2c-0.5,0-0.9,0.2-1.2,0.5c-0.3,0.3-0.5,0.8-0.6,1.5h3.5V137
			c0-0.6-0.2-1-0.5-1.3C191.2,135.3,190.8,135.2,190.3,135.2z"/>
		<path class="st4" d="M196.1,141.6c0-0.4,0.1-0.7,0.4-1s0.6-0.4,1-0.4c0.4,0,0.8,0.1,1,0.4s0.4,0.6,0.4,1s-0.1,0.7-0.4,1
			c-0.3,0.2-0.6,0.4-1,0.4s-0.8-0.1-1-0.4C196.2,142.3,196.1,142,196.1,141.6z"/>
		<path class="st4" d="M213.5,137.6h-5.1v5.2h-2.6V130h8.3v2.1h-5.7v3.3h5.1L213.5,137.6L213.5,137.6z"/>
		<path class="st4" d="M215.5,130.9c0-0.4,0.1-0.7,0.4-0.9s0.6-0.4,1-0.4c0.4,0,0.8,0.1,1,0.4s0.4,0.6,0.4,0.9
			c0,0.4-0.1,0.7-0.4,0.9s-0.6,0.4-1,0.4s-0.8-0.1-1-0.4S215.5,131.2,215.5,130.9z M218.2,142.8h-2.6v-9.5h2.6V142.8z"/>
		<path class="st4" d="M222.6,133.3l0.1,1.1c0.7-0.9,1.6-1.3,2.7-1.3c1,0,1.8,0.3,2.2,0.9s0.7,1.5,0.8,2.6v6.1h-2.5v-6.1
			c0-0.5-0.1-0.9-0.4-1.2c-0.2-0.2-0.6-0.4-1.2-0.4c-0.7,0-1.2,0.3-1.6,0.9v6.7h-2.5v-9.5L222.6,133.3L222.6,133.3z"/>
		<path class="st4" d="M230,138c0-1.5,0.3-2.7,1-3.5s1.6-1.3,2.7-1.3c0.9,0,1.7,0.4,2.3,1v-4.9h2.6v13.5h-2.3l-0.1-1
			c-0.6,0.8-1.4,1.2-2.4,1.2c-1.1,0-2-0.4-2.7-1.3S230,139.6,230,138z M232.5,138.2c0,0.9,0.2,1.6,0.5,2.1s0.8,0.7,1.4,0.7
			c0.8,0,1.3-0.3,1.7-1v-3.8c-0.3-0.7-0.9-1-1.6-1C233.1,135.2,232.5,136.2,232.5,138.2z"/>
	</g>
	<g class="st3">
		<path class="st4" d="M55.1,164.4c-0.1-0.2-0.2-0.5-0.2-0.9c-0.6,0.7-1.4,1-2.4,1c-0.9,0-1.7-0.3-2.3-0.8s-0.9-1.2-0.9-2
			c0-1,0.4-1.8,1.1-2.3s1.8-0.8,3.2-0.8h1.2v-0.5c0-0.4-0.1-0.8-0.3-1.1s-0.6-0.4-1.1-0.4c-0.4,0-0.8,0.1-1,0.3s-0.4,0.5-0.4,0.8
			h-2.5c0-0.6,0.2-1.1,0.5-1.5s0.8-0.8,1.4-1.1s1.3-0.4,2.1-0.4c1.2,0,2.1,0.3,2.8,0.9c0.7,0.6,1,1.4,1,2.5v4.1
			c0,0.9,0.1,1.6,0.4,2.1v0.1L55.1,164.4L55.1,164.4z M53,162.7c0.4,0,0.7-0.1,1-0.2s0.5-0.4,0.7-0.7v-1.6h-1c-1.3,0-2,0.4-2,1.3
			l0,0.1c0,0.3,0.1,0.6,0.3,0.8S52.6,162.7,53,162.7z"/>
		<path class="st4" d="M61.6,154.9l0.1,1.1c0.7-0.9,1.6-1.3,2.7-1.3c1,0,1.8,0.3,2.2,0.9c0.5,0.6,0.7,1.5,0.8,2.6v6.1h-2.5v-6.1
			c0-0.5-0.1-0.9-0.3-1.2c-0.2-0.2-0.6-0.4-1.2-0.4c-0.7,0-1.2,0.3-1.6,0.9v6.7h-2.5v-9.5L61.6,154.9L61.6,154.9z"/>
		<path class="st4" d="M69,159.6c0-1.5,0.3-2.7,1-3.5s1.6-1.3,2.7-1.3c0.9,0,1.7,0.4,2.3,1v-4.9h2.6v13.5h-2.3l-0.1-1
			c-0.6,0.8-1.4,1.2-2.4,1.2c-1.1,0-2-0.4-2.7-1.3S69,161.2,69,159.6z M71.5,159.8c0,0.9,0.2,1.6,0.5,2.1s0.8,0.7,1.3,0.7
			c0.8,0,1.3-0.3,1.7-1v-3.8c-0.3-0.7-0.9-1-1.6-1C72.1,156.8,71.5,157.8,71.5,159.8z"/>
		<path class="st4" d="M83.6,159.6c0-1.5,0.3-2.6,1-3.5s1.6-1.3,2.8-1.3c1,0,1.8,0.4,2.4,1.1l0.1-0.9h2.3v9.2c0,0.8-0.2,1.6-0.6,2.2
			s-0.9,1.1-1.6,1.4s-1.5,0.5-2.4,0.5c-0.7,0-1.4-0.1-2-0.4s-1.2-0.6-1.5-1.1l1.1-1.6c0.6,0.7,1.4,1.1,2.3,1.1
			c0.7,0,1.2-0.2,1.6-0.5c0.4-0.4,0.6-0.9,0.6-1.5v-0.5c-0.6,0.7-1.4,1-2.3,1c-1.1,0-2.1-0.4-2.8-1.3S83.6,161.2,83.6,159.6
			L83.6,159.6L83.6,159.6z M86.1,159.8c0,0.9,0.2,1.5,0.5,2s0.8,0.7,1.4,0.7c0.8,0,1.3-0.3,1.7-0.9v-4c-0.3-0.6-0.9-0.9-1.6-0.9
			c-0.6,0-1.1,0.2-1.4,0.8C86.3,158.1,86.1,158.8,86.1,159.8z"/>
		<path class="st4" d="M99.6,157.3c-0.3-0.1-0.7-0.1-0.9-0.1c-1,0-1.6,0.3-1.9,1v6.2h-2.5v-9.5h2.4l0.1,1.1c0.5-0.9,1.2-1.3,2.1-1.3
			c0.3,0,0.5,0,0.8,0.1L99.6,157.3z"/>
		<path class="st4" d="M106.1,164.4c-0.1-0.2-0.2-0.5-0.2-0.9c-0.6,0.7-1.4,1-2.4,1c-0.9,0-1.7-0.3-2.3-0.8s-0.9-1.2-0.9-2
			c0-1,0.4-1.8,1.1-2.3s1.8-0.8,3.2-0.8h1.2v-0.5c0-0.4-0.1-0.8-0.3-1.1s-0.6-0.4-1.1-0.4c-0.4,0-0.8,0.1-1,0.3s-0.4,0.5-0.4,0.8
			h-2.5c0-0.6,0.2-1.1,0.5-1.5s0.8-0.8,1.4-1.1s1.3-0.4,2.1-0.4c1.2,0,2.1,0.3,2.8,0.9c0.7,0.6,1,1.4,1,2.5v4.1
			c0,0.9,0.1,1.6,0.4,2.1v0.1L106.1,164.4L106.1,164.4z M104,162.7c0.4,0,0.7-0.1,1-0.2s0.6-0.4,0.7-0.7v-1.6h-0.9
			c-1.3,0-1.9,0.4-2,1.3l0,0.1c0,0.3,0.1,0.6,0.3,0.8S103.6,162.7,104,162.7z"/>
		<path class="st4" d="M118.8,159.8c0,1.5-0.3,2.6-1,3.5s-1.6,1.3-2.7,1.3c-1,0-1.7-0.3-2.3-1v4.5h-2.5v-13.2h2.4l0.1,0.9
			c0.6-0.7,1.4-1.1,2.4-1.1c1.2,0,2.1,0.4,2.7,1.3s1,2.1,1,3.6L118.8,159.8L118.8,159.8z M116.2,159.6c0-0.9-0.2-1.6-0.5-2.1
			s-0.8-0.7-1.4-0.7c-0.8,0-1.3,0.3-1.6,0.9v3.9c0.3,0.6,0.9,0.9,1.7,0.9C115.6,162.6,116.2,161.6,116.2,159.6z"/>
		<path class="st4" d="M122.8,156c0.7-0.8,1.5-1.2,2.5-1.2c2.1,0,3.1,1.2,3.1,3.6v6.1H126v-6c0-0.5-0.1-0.9-0.3-1.2
			s-0.6-0.4-1.2-0.4c-0.7,0-1.3,0.3-1.6,0.9v6.8h-2.5v-13.5h2.5V156z"/>
		<path class="st4" d="M131.1,167.6l-1.3-0.7l0.3-0.6c0.4-0.7,0.6-1.4,0.6-2.1v-2h2.1l0,1.8c0,0.6-0.2,1.3-0.5,2
			S131.6,167.2,131.1,167.6z"/>
		<path class="st4" d="M142.3,152.6v2.3h1.6v1.9h-1.6v4.8c0,0.4,0.1,0.6,0.2,0.8s0.4,0.2,0.8,0.2c0.3,0,0.5,0,0.8-0.1v1.9
			c-0.5,0.1-1,0.2-1.5,0.2c-1.8,0-2.7-0.9-2.7-2.7v-5.1h-1.4v-1.9h1.4v-2.3L142.3,152.6L142.3,152.6z"/>
		<path class="st4" d="M147.8,156c0.7-0.8,1.5-1.2,2.5-1.2c2.1,0,3.1,1.2,3.1,3.6v6.1H151v-6c0-0.5-0.1-0.9-0.4-1.2
			c-0.2-0.3-0.6-0.4-1.2-0.4c-0.7,0-1.3,0.3-1.6,0.9v6.8h-2.5v-13.5h2.5V156z"/>
		<path class="st4" d="M159.8,164.6c-1.4,0-2.5-0.4-3.4-1.3s-1.3-2-1.3-3.4v-0.2c0-1,0.2-1.8,0.6-2.6s0.9-1.3,1.6-1.7
			s1.4-0.6,2.3-0.6c1.3,0,2.3,0.4,3.1,1.2s1.1,2,1.1,3.5v1h-6.1c0.1,0.6,0.3,1.1,0.7,1.5s0.9,0.6,1.6,0.6c1,0,1.7-0.4,2.3-1.1
			l1.2,1.4c-0.4,0.5-0.9,1-1.6,1.3C161.3,164.5,160.6,164.6,159.8,164.6z M159.5,156.8c-0.5,0-0.9,0.2-1.2,0.5
			c-0.3,0.3-0.5,0.8-0.6,1.5h3.5v-0.2c0-0.6-0.2-1-0.5-1.3C160.5,156.9,160.1,156.8,159.5,156.8z"/>
		<path class="st4" d="M172,154.9l0.1,1.1c0.7-0.9,1.6-1.3,2.7-1.3c1,0,1.8,0.3,2.2,0.9s0.7,1.5,0.8,2.6v6.1h-2.5v-6.1
			c0-0.5-0.1-0.9-0.4-1.2c-0.2-0.2-0.6-0.4-1.2-0.4c-0.7,0-1.2,0.3-1.6,0.9v6.7h-2.5v-9.5L172,154.9L172,154.9z"/>
		<path class="st4" d="M184.1,164.6c-1.4,0-2.5-0.4-3.4-1.3s-1.3-2-1.3-3.4v-0.2c0-1,0.2-1.8,0.6-2.6s0.9-1.3,1.6-1.7
			s1.4-0.6,2.3-0.6c1.3,0,2.3,0.4,3.1,1.2s1.1,2,1.1,3.5v1H182c0.1,0.6,0.3,1.1,0.7,1.5s0.9,0.6,1.6,0.6c1,0,1.7-0.4,2.3-1.1
			l1.2,1.4c-0.4,0.5-0.9,1-1.6,1.3C185.6,164.5,184.9,164.6,184.1,164.6z M183.8,156.8c-0.5,0-0.9,0.2-1.2,0.5
			c-0.3,0.3-0.5,0.8-0.6,1.5h3.5v-0.2c0-0.6-0.2-1-0.5-1.3C184.8,156.9,184.4,156.8,183.8,156.8z"/>
		<path class="st4" d="M193.4,162.6c0.5,0,0.9-0.1,1.1-0.4s0.4-0.6,0.5-1h2.4c0,0.6-0.2,1.2-0.5,1.8c-0.4,0.5-0.8,0.9-1.4,1.2
			c-0.6,0.3-1.3,0.4-2,0.4c-1.4,0-2.4-0.4-3.2-1.3c-0.8-0.9-1.2-2.1-1.2-3.6v-0.2c0-1.5,0.4-2.6,1.2-3.5s1.9-1.3,3.2-1.3
			c1.2,0,2.1,0.3,2.9,1c0.7,0.7,1.1,1.6,1.1,2.7H195c0-0.5-0.2-0.9-0.5-1.2s-0.7-0.5-1.2-0.5c-0.6,0-1,0.2-1.3,0.6s-0.4,1.1-0.4,2.1
			v0.3c0,1,0.1,1.7,0.4,2.1S192.8,162.6,193.4,162.6z"/>
		<path class="st4" d="M202.8,162.6c0.5,0,0.9-0.1,1.1-0.4s0.4-0.6,0.5-1h2.4c0,0.6-0.2,1.2-0.5,1.8c-0.4,0.5-0.8,0.9-1.4,1.2
			c-0.6,0.3-1.3,0.4-2,0.4c-1.4,0-2.4-0.4-3.2-1.3c-0.8-0.9-1.2-2.1-1.2-3.6v-0.2c0-1.5,0.4-2.6,1.2-3.5s1.9-1.3,3.2-1.3
			c1.2,0,2.1,0.3,2.9,1c0.7,0.7,1.1,1.6,1.1,2.7h-2.4c0-0.5-0.2-0.9-0.5-1.2s-0.7-0.5-1.2-0.5c-0.6,0-1,0.2-1.3,0.6
			s-0.4,1.1-0.4,2.1v0.3c0,1,0.1,1.7,0.4,2.1S202.2,162.6,202.8,162.6z"/>
		<path class="st4" d="M212.6,164.6c-1.4,0-2.5-0.4-3.4-1.3s-1.3-2-1.3-3.4v-0.2c0-1,0.2-1.8,0.6-2.6s0.9-1.3,1.6-1.7
			s1.4-0.6,2.3-0.6c1.3,0,2.3,0.4,3.1,1.2s1.1,2,1.1,3.5v1h-6.1c0.1,0.6,0.3,1.1,0.7,1.5s0.9,0.6,1.6,0.6c1,0,1.7-0.4,2.3-1.1
			l1.2,1.4c-0.4,0.5-0.9,1-1.6,1.3C214.1,164.5,213.4,164.6,212.6,164.6z M212.3,156.8c-0.5,0-0.9,0.2-1.2,0.5
			c-0.3,0.3-0.5,0.8-0.6,1.5h3.5v-0.2c0-0.6-0.2-1-0.5-1.3C213.3,156.9,212.9,156.8,212.3,156.8z"/>
		<path class="st4" d="M223.1,161.8c0-0.3-0.1-0.6-0.5-0.7s-0.8-0.3-1.5-0.5c-2.3-0.5-3.4-1.4-3.4-2.9c0-0.8,0.4-1.6,1.1-2.1
			s1.6-0.9,2.8-0.9c1.2,0,2.2,0.3,2.9,0.9s1.1,1.3,1.1,2.2H223c0-0.4-0.1-0.7-0.4-0.9c-0.2-0.2-0.6-0.4-1.1-0.4
			c-0.4,0-0.8,0.1-1,0.3s-0.4,0.4-0.4,0.7c0,0.3,0.1,0.5,0.4,0.7c0.3,0.2,0.7,0.3,1.4,0.4s1.2,0.3,1.6,0.4c1.3,0.5,2,1.3,2,2.6
			c0,0.9-0.4,1.6-1.1,2.1c-0.7,0.5-1.7,0.8-2.9,0.8c-0.8,0-1.5-0.1-2.1-0.4c-0.6-0.3-1.1-0.7-1.4-1.2c-0.4-0.5-0.5-1-0.5-1.6h2.4
			c0,0.4,0.2,0.8,0.5,1s0.7,0.4,1.2,0.4c0.5,0,0.9-0.1,1.1-0.3C223,162.3,223.1,162.1,223.1,161.8z"/>
		<path class="st4" d="M232.7,164.4c-0.1-0.2-0.2-0.5-0.2-0.9c-0.6,0.7-1.4,1-2.4,1c-0.9,0-1.7-0.3-2.3-0.8s-0.9-1.2-0.9-2
			c0-1,0.4-1.8,1.1-2.3s1.8-0.8,3.2-0.8h1.2v-0.5c0-0.4-0.1-0.8-0.3-1.1s-0.6-0.4-1.1-0.4c-0.4,0-0.8,0.1-1,0.3s-0.4,0.5-0.4,0.8
			h-2.5c0-0.6,0.2-1.1,0.5-1.5s0.8-0.8,1.4-1.1s1.3-0.4,2.1-0.4c1.2,0,2.1,0.3,2.8,0.9c0.7,0.6,1,1.4,1,2.5v4.1
			c0,0.9,0.1,1.6,0.4,2.1v0.1L232.7,164.4L232.7,164.4z M230.6,162.7c0.4,0,0.7-0.1,1-0.2c0.3-0.2,0.6-0.4,0.7-0.7v-1.6h-0.9
			c-1.3,0-1.9,0.4-2,1.3l0,0.1c0,0.3,0.1,0.6,0.3,0.8S230.2,162.7,230.6,162.7z"/>
		<path class="st4" d="M242.2,157.3c-0.4-0.1-0.6-0.1-0.9-0.1c-1,0-1.6,0.3-1.9,1v6.2h-2.5v-9.5h2.4l0.1,1.1
			c0.5-0.9,1.2-1.3,2.1-1.3c0.3,0,0.5,0,0.8,0.1L242.2,157.3z"/>
		<path class="st4" d="M247,160.8l1.8-5.9h2.7l-3.8,11l-0.2,0.5c-0.6,1.2-1.5,1.9-2.8,1.9c-0.4,0-0.7-0.1-1.1-0.2v-1.9l0.4,0
			c0.5,0,0.8-0.1,1.1-0.2s0.4-0.4,0.6-0.7l0.3-0.8l-3.3-9.5h2.7L247,160.8z"/>
	</g>
	<g class="st3">
		<path class="st4" d="M66.6,181.4c0,1.5-0.3,2.6-1,3.5s-1.6,1.3-2.7,1.3c-1,0-1.7-0.3-2.3-1v4.5h-2.5v-13.2h2.4l0.1,0.9
			c0.6-0.7,1.4-1.1,2.4-1.1c1.2,0,2.1,0.4,2.7,1.3c0.6,0.9,1,2.1,1,3.6L66.6,181.4L66.6,181.4z M64.1,181.2c0-0.9-0.2-1.6-0.5-2.1
			s-0.8-0.7-1.4-0.7c-0.8,0-1.3,0.3-1.6,0.9v3.9c0.3,0.6,0.9,0.9,1.7,0.9C63.5,184.2,64.1,183.2,64.1,181.2z"/>
		<path class="st4" d="M73.6,178.9c-0.3-0.1-0.7-0.1-0.9-0.1c-1,0-1.6,0.3-1.9,1v6.2h-2.5v-9.5h2.4l0.1,1.1c0.5-0.9,1.2-1.3,2.1-1.3
			c0.3,0,0.5,0,0.8,0.1L73.6,178.9z"/>
		<path class="st4" d="M79.2,186.2c-1.4,0-2.5-0.4-3.4-1.3s-1.3-2-1.3-3.4v-0.2c0-1,0.2-1.8,0.6-2.6s0.9-1.3,1.6-1.7
			s1.4-0.6,2.3-0.6c1.3,0,2.3,0.4,3.1,1.2s1.1,2,1.1,3.5v1H77c0.1,0.6,0.3,1.1,0.7,1.5s0.9,0.6,1.6,0.6c1,0,1.7-0.4,2.3-1.1l1.2,1.4
			c-0.4,0.5-0.9,1-1.6,1.3C80.7,186.1,79.9,186.2,79.2,186.2z M78.9,178.4c-0.5,0-0.9,0.2-1.2,0.5c-0.3,0.3-0.5,0.8-0.6,1.5h3.5
			v-0.2c0-0.6-0.2-1-0.5-1.3C79.8,178.5,79.4,178.4,78.9,178.4z"/>
		<path class="st4" d="M84.1,181.2c0-1.5,0.3-2.7,1-3.5s1.6-1.3,2.7-1.3c1,0,1.8,0.4,2.4,1.2l0.2-1h2.2v13.2h-2.6v-4.5
			c-0.6,0.7-1.3,1-2.3,1c-1.1,0-2-0.4-2.7-1.3S84.1,182.8,84.1,181.2z M86.7,181.4c0,0.9,0.2,1.6,0.5,2.1s0.8,0.7,1.3,0.7
			c0.8,0,1.3-0.3,1.7-0.9v-3.9c-0.3-0.6-0.9-0.9-1.6-0.9c-0.6,0-1,0.2-1.4,0.7S86.7,180.3,86.7,181.4z"/>
		<path class="st4" d="M99.8,183.4c0-0.3-0.2-0.6-0.5-0.7s-0.8-0.3-1.5-0.5c-2.3-0.5-3.4-1.4-3.4-2.9c0-0.8,0.3-1.6,1.1-2.1
			c0.7-0.6,1.6-0.9,2.8-0.9c1.2,0,2.2,0.3,2.9,0.9s1.1,1.3,1.1,2.2h-2.5c0-0.4-0.1-0.7-0.3-0.9c-0.2-0.2-0.6-0.4-1.1-0.4
			c-0.4,0-0.8,0.1-1,0.3s-0.3,0.4-0.3,0.7c0,0.3,0.1,0.5,0.4,0.7c0.3,0.2,0.7,0.3,1.3,0.4s1.2,0.3,1.6,0.4c1.3,0.5,2,1.3,2,2.6
			c0,0.9-0.4,1.6-1.1,2.1c-0.7,0.5-1.7,0.8-2.9,0.8c-0.8,0-1.5-0.1-2.1-0.4c-0.6-0.3-1.1-0.7-1.4-1.2c-0.3-0.5-0.5-1-0.5-1.6h2.4
			c0,0.4,0.2,0.8,0.5,1s0.7,0.4,1.2,0.4c0.5,0,0.8-0.1,1.1-0.3C99.7,183.9,99.8,183.7,99.8,183.4z"/>
		<path class="st4" d="M113.9,186c-0.1-0.2-0.2-0.5-0.2-0.9c-0.6,0.7-1.4,1-2.4,1c-0.9,0-1.7-0.3-2.3-0.8s-0.9-1.2-0.9-2
			c0-1,0.4-1.8,1.1-2.3s1.8-0.8,3.2-0.8h1.2v-0.5c0-0.4-0.1-0.8-0.3-1.1s-0.6-0.4-1.1-0.4c-0.4,0-0.8,0.1-1,0.3s-0.4,0.5-0.4,0.8
			h-2.5c0-0.6,0.2-1.1,0.5-1.5s0.8-0.8,1.4-1.1s1.3-0.4,2.1-0.4c1.2,0,2.1,0.3,2.8,0.9c0.7,0.6,1,1.4,1,2.5v4.1
			c0,0.9,0.1,1.6,0.4,2.1v0.1L113.9,186L113.9,186z M111.8,184.3c0.4,0,0.7-0.1,1-0.2s0.6-0.4,0.7-0.7v-1.6h-0.9
			c-1.3,0-1.9,0.4-2,1.3l0,0.1c0,0.3,0.1,0.6,0.3,0.8S111.4,184.3,111.8,184.3z"/>
		<path class="st4" d="M120.4,176.5l0.1,1.1c0.7-0.9,1.6-1.3,2.7-1.3c1,0,1.8,0.3,2.2,0.9s0.7,1.5,0.8,2.6v6.1h-2.5V180
			c0-0.5-0.1-0.9-0.3-1.2c-0.2-0.2-0.6-0.4-1.2-0.4c-0.7,0-1.2,0.3-1.6,0.9v6.7H118v-9.5L120.4,176.5L120.4,176.5z"/>
		<path class="st4" d="M127.7,181.2c0-1.5,0.3-2.7,1-3.5s1.6-1.3,2.7-1.3c0.9,0,1.7,0.4,2.3,1v-4.9h2.6V186H134l-0.1-1
			c-0.6,0.8-1.4,1.2-2.4,1.2c-1.1,0-2-0.4-2.7-1.3C128.1,184,127.7,182.8,127.7,181.2z M130.3,181.4c0,0.9,0.2,1.6,0.5,2.1
			s0.8,0.7,1.3,0.7c0.8,0,1.3-0.3,1.7-1v-3.8c-0.3-0.7-0.9-1-1.6-1C130.9,178.4,130.3,179.4,130.3,181.4z"/>
		<path class="st4" d="M142.4,181.2c0-0.9,0.2-1.8,0.5-2.5s0.9-1.3,1.6-1.7s1.5-0.6,2.4-0.6c1.3,0,2.3,0.4,3.1,1.2s1.3,1.9,1.4,3.2
			l0,0.6c0,1.5-0.4,2.6-1.2,3.5c-0.8,0.9-1.9,1.3-3.3,1.3s-2.5-0.4-3.3-1.3s-1.2-2.1-1.2-3.6L142.4,181.2L142.4,181.2z M144.9,181.4
			c0,0.9,0.2,1.6,0.5,2.1c0.3,0.5,0.8,0.7,1.5,0.7c0.6,0,1.1-0.2,1.4-0.7c0.4-0.5,0.5-1.2,0.5-2.3c0-0.9-0.2-1.6-0.5-2.1
			s-0.8-0.7-1.5-0.7c-0.6,0-1.1,0.2-1.4,0.7C145.1,179.6,144.9,180.4,144.9,181.4z"/>
		<path class="st4" d="M156,174.2v2.3h1.6v1.9H156v4.8c0,0.4,0.1,0.6,0.2,0.8s0.4,0.2,0.8,0.2c0.3,0,0.5,0,0.8-0.1v1.9
			c-0.5,0.1-1,0.2-1.5,0.2c-1.8,0-2.7-0.9-2.7-2.7v-5.1h-1.4v-1.9h1.4v-2.3L156,174.2L156,174.2z"/>
		<path class="st4" d="M161.5,177.6c0.7-0.8,1.5-1.2,2.5-1.2c2.1,0,3.1,1.2,3.1,3.6v6.1h-2.5v-6c0-0.5-0.1-0.9-0.4-1.2
			s-0.6-0.4-1.2-0.4c-0.7,0-1.3,0.3-1.6,0.9v6.8H159v-13.5h2.5V177.6z"/>
		<path class="st4" d="M173.5,186.2c-1.4,0-2.5-0.4-3.4-1.3s-1.3-2-1.3-3.4v-0.2c0-1,0.2-1.8,0.6-2.6s0.9-1.3,1.6-1.7
			s1.4-0.6,2.3-0.6c1.3,0,2.3,0.4,3.1,1.2s1.1,2,1.1,3.5v1h-6.1c0.1,0.6,0.3,1.1,0.7,1.5s0.9,0.6,1.6,0.6c1,0,1.7-0.4,2.3-1.1
			l1.2,1.4c-0.4,0.5-0.9,1-1.6,1.3C175,186.1,174.3,186.2,173.5,186.2z M173.2,178.4c-0.5,0-0.9,0.2-1.2,0.5
			c-0.3,0.3-0.5,0.8-0.6,1.5h3.5v-0.2c0-0.6-0.2-1-0.5-1.3C174.1,178.5,173.7,178.4,173.2,178.4z"/>
		<path class="st4" d="M184.2,178.9c-0.4-0.1-0.6-0.1-0.9-0.1c-1,0-1.6,0.3-1.9,1v6.2h-2.5v-9.5h2.4l0.1,1.1
			c0.5-0.9,1.2-1.3,2.1-1.3c0.3,0,0.5,0,0.8,0.1L184.2,178.9z"/>
		<path class="st4" d="M189.5,181.2c0-1.5,0.3-2.7,1-3.5s1.6-1.3,2.7-1.3c0.9,0,1.7,0.4,2.3,1v-4.9h2.6V186h-2.3l-0.1-1
			c-0.6,0.8-1.4,1.2-2.4,1.2c-1.1,0-2-0.4-2.7-1.3S189.5,182.8,189.5,181.2z M192,181.4c0,0.9,0.2,1.6,0.5,2.1s0.8,0.7,1.4,0.7
			c0.8,0,1.3-0.3,1.7-1v-3.8c-0.3-0.7-0.9-1-1.6-1C192.6,178.4,192,179.4,192,181.4z"/>
		<path class="st4" d="M204.4,186.2c-1.4,0-2.5-0.4-3.4-1.3s-1.3-2-1.3-3.4v-0.2c0-1,0.2-1.8,0.6-2.6s0.9-1.3,1.6-1.7
			s1.4-0.6,2.3-0.6c1.3,0,2.3,0.4,3.1,1.2s1.1,2,1.1,3.5v1h-6.1c0.1,0.6,0.3,1.1,0.7,1.5s0.9,0.6,1.6,0.6c1,0,1.7-0.4,2.3-1.1
			l1.2,1.4c-0.4,0.5-0.9,1-1.6,1.3C205.9,186.1,205.2,186.2,204.4,186.2z M204.1,178.4c-0.5,0-0.9,0.2-1.2,0.5
			c-0.3,0.3-0.5,0.8-0.6,1.5h3.5v-0.2c0-0.6-0.2-1-0.5-1.3C205.1,178.5,204.6,178.4,204.1,178.4z"/>
		<path class="st4" d="M212.8,174.2v2.3h1.6v1.9h-1.6v4.8c0,0.4,0.1,0.6,0.2,0.8s0.4,0.2,0.8,0.2c0.3,0,0.5,0,0.8-0.1v1.9
			c-0.5,0.1-1,0.2-1.5,0.2c-1.8,0-2.7-0.9-2.7-2.7v-5.1h-1.4v-1.9h1.4v-2.3L212.8,174.2L212.8,174.2z"/>
		<path class="st4" d="M221.3,186c-0.1-0.2-0.2-0.5-0.2-0.9c-0.6,0.7-1.4,1-2.4,1c-0.9,0-1.7-0.3-2.3-0.8s-0.9-1.2-0.9-2
			c0-1,0.4-1.8,1.1-2.3s1.8-0.8,3.2-0.8h1.2v-0.5c0-0.4-0.1-0.8-0.3-1.1s-0.6-0.4-1.1-0.4c-0.4,0-0.8,0.1-1,0.3s-0.4,0.5-0.4,0.8
			h-2.5c0-0.6,0.2-1.1,0.5-1.5s0.8-0.8,1.4-1.1s1.3-0.4,2.1-0.4c1.2,0,2.1,0.3,2.8,0.9c0.7,0.6,1,1.4,1,2.5v4.1
			c0,0.9,0.1,1.6,0.4,2.1v0.1L221.3,186L221.3,186z M219.2,184.3c0.4,0,0.7-0.1,1-0.2c0.3-0.2,0.6-0.4,0.7-0.7v-1.6H220
			c-1.3,0-1.9,0.4-2,1.3l0,0.1c0,0.3,0.1,0.6,0.3,0.8S218.9,184.3,219.2,184.3z"/>
		<path class="st4" d="M225.5,174.1c0-0.4,0.1-0.7,0.4-0.9s0.6-0.4,1-0.4c0.4,0,0.8,0.1,1,0.4s0.4,0.6,0.4,0.9
			c0,0.4-0.1,0.7-0.4,0.9s-0.6,0.4-1,0.4s-0.8-0.1-1-0.4S225.5,174.4,225.5,174.1z M228.2,186h-2.6v-9.5h2.6V186z"/>
		<path class="st4" d="M232.9,186h-2.6v-13.5h2.6V186z"/>
		<path class="st4" d="M240.2,183.4c0-0.3-0.1-0.6-0.5-0.7s-0.8-0.3-1.5-0.5c-2.3-0.5-3.4-1.4-3.4-2.9c0-0.8,0.4-1.6,1.1-2.1
			s1.6-0.9,2.8-0.9c1.2,0,2.2,0.3,2.9,0.9s1.1,1.3,1.1,2.2h-2.5c0-0.4-0.1-0.7-0.4-0.9c-0.2-0.2-0.6-0.4-1.1-0.4
			c-0.4,0-0.8,0.1-1,0.3s-0.4,0.4-0.4,0.7c0,0.3,0.1,0.5,0.4,0.7c0.3,0.2,0.7,0.3,1.4,0.4s1.2,0.3,1.6,0.4c1.3,0.5,2,1.3,2,2.6
			c0,0.9-0.4,1.6-1.1,2.1c-0.7,0.5-1.7,0.8-2.9,0.8c-0.8,0-1.5-0.1-2.1-0.4c-0.6-0.3-1.1-0.7-1.4-1.2c-0.4-0.5-0.5-1-0.5-1.6h2.4
			c0,0.4,0.2,0.8,0.5,1s0.7,0.4,1.2,0.4c0.5,0,0.9-0.1,1.1-0.3C240.1,183.9,240.2,183.7,240.2,183.4z"/>
	</g>
	<g class="st3">
		<path class="st4" d="M69.2,207.6V200h-1.4v-1.9h1.4v-0.8c0-1.1,0.3-1.9,0.9-2.5s1.5-0.9,2.6-0.9c0.3,0,0.8,0.1,1.3,0.2l0,2
			c-0.2-0.1-0.5-0.1-0.8-0.1c-1,0-1.4,0.4-1.4,1.3v0.8h1.9v1.9h-1.9v7.6L69.2,207.6L69.2,207.6z"/>
		<path class="st4" d="M74.5,202.8c0-0.9,0.2-1.8,0.5-2.5s0.9-1.3,1.6-1.7s1.5-0.6,2.4-0.6c1.3,0,2.3,0.4,3.1,1.2s1.3,1.9,1.4,3.2
			l0,0.6c0,1.5-0.4,2.6-1.2,3.5s-1.9,1.3-3.3,1.3s-2.5-0.4-3.3-1.3s-1.2-2.1-1.2-3.6C74.5,202.9,74.5,202.8,74.5,202.8z M77.1,203
			c0,0.9,0.2,1.6,0.5,2.1c0.3,0.5,0.8,0.7,1.5,0.7c0.6,0,1.1-0.2,1.4-0.7c0.3-0.5,0.5-1.2,0.5-2.3c0-0.9-0.2-1.6-0.5-2.1
			S79.7,200,79,200c-0.6,0-1.1,0.2-1.4,0.7C77.3,201.2,77.1,202,77.1,203z"/>
		<path class="st4" d="M90.5,200.5c-0.3-0.1-0.7-0.1-0.9-0.1c-1,0-1.6,0.3-1.9,1v6.2h-2.5v-9.5h2.4l0.1,1.1c0.5-0.9,1.2-1.3,2.1-1.3
			c0.3,0,0.5,0,0.8,0.1L90.5,200.5z"/>
		<path class="st4" d="M101.7,207.6c-0.1-0.2-0.2-0.5-0.2-0.9c-0.6,0.7-1.4,1-2.4,1c-0.9,0-1.7-0.3-2.3-0.8s-0.9-1.2-0.9-2
			c0-1,0.4-1.8,1.1-2.3s1.8-0.8,3.2-0.8h1.2v-0.5c0-0.4-0.1-0.8-0.3-1.1s-0.6-0.4-1.1-0.4c-0.4,0-0.8,0.1-1,0.3s-0.4,0.5-0.4,0.8H96
			c0-0.6,0.2-1.1,0.5-1.5s0.8-0.8,1.4-1.1s1.3-0.4,2.1-0.4c1.2,0,2.1,0.3,2.8,0.9c0.7,0.6,1,1.4,1,2.5v4.1c0,0.9,0.1,1.6,0.4,2.1
			v0.1L101.7,207.6L101.7,207.6z M99.6,205.9c0.4,0,0.7-0.1,1-0.2s0.6-0.4,0.7-0.7v-1.6h-0.9c-1.3,0-1.9,0.4-2,1.3l0,0.1
			c0,0.3,0.1,0.6,0.3,0.8S99.2,205.9,99.6,205.9z"/>
		<path class="st4" d="M115.4,205c0-0.3-0.2-0.6-0.5-0.7s-0.8-0.3-1.5-0.5c-2.3-0.5-3.4-1.4-3.4-2.9c0-0.8,0.3-1.6,1.1-2.1
			c0.7-0.6,1.6-0.9,2.8-0.9c1.2,0,2.2,0.3,2.9,0.9s1.1,1.3,1.1,2.2h-2.5c0-0.4-0.1-0.7-0.3-0.9c-0.2-0.2-0.6-0.4-1.1-0.4
			c-0.4,0-0.8,0.1-1,0.3s-0.3,0.4-0.3,0.7c0,0.3,0.1,0.5,0.4,0.7c0.3,0.2,0.7,0.3,1.3,0.4s1.2,0.3,1.6,0.4c1.3,0.5,2,1.3,2,2.6
			c0,0.9-0.4,1.6-1.1,2.1c-0.7,0.5-1.7,0.8-2.9,0.8c-0.8,0-1.5-0.1-2.1-0.4c-0.6-0.3-1.1-0.7-1.4-1.2c-0.3-0.5-0.5-1-0.5-1.6h2.4
			c0,0.4,0.2,0.8,0.5,1s0.7,0.4,1.2,0.4c0.5,0,0.8-0.1,1.1-0.3C115.3,205.5,115.4,205.3,115.4,205z"/>
		<path class="st4" d="M128.1,203c0,1.5-0.3,2.6-1,3.5s-1.6,1.3-2.7,1.3c-1,0-1.7-0.3-2.3-1v4.5h-2.5v-13.2h2.4l0.1,0.9
			c0.6-0.7,1.4-1.1,2.4-1.1c1.2,0,2.1,0.4,2.7,1.3s1,2.1,1,3.6L128.1,203L128.1,203z M125.6,202.8c0-0.9-0.2-1.6-0.5-2.1
			s-0.8-0.7-1.4-0.7c-0.8,0-1.3,0.3-1.6,0.9v3.9c0.3,0.6,0.9,0.9,1.7,0.9C125,205.8,125.6,204.8,125.6,202.8z"/>
		<path class="st4" d="M134.1,207.8c-1.4,0-2.5-0.4-3.4-1.3s-1.3-2-1.3-3.4v-0.2c0-1,0.2-1.8,0.6-2.6c0.4-0.8,0.9-1.3,1.6-1.7
			c0.7-0.4,1.4-0.6,2.3-0.6c1.3,0,2.3,0.4,3.1,1.2s1.1,2,1.1,3.5v1h-6.1c0.1,0.6,0.3,1.1,0.7,1.5s0.9,0.6,1.6,0.6
			c1,0,1.7-0.4,2.3-1.1l1.2,1.4c-0.4,0.5-0.9,1-1.6,1.3C135.6,207.7,134.9,207.8,134.1,207.8z M133.8,200c-0.5,0-0.9,0.2-1.2,0.5
			c-0.3,0.3-0.5,0.8-0.6,1.5h3.5v-0.2c0-0.6-0.2-1-0.5-1.3C134.7,200.1,134.3,200,133.8,200z"/>
		<path class="st4" d="M143.4,205.8c0.5,0,0.9-0.1,1.1-0.4s0.4-0.6,0.5-1h2.4c0,0.6-0.2,1.2-0.5,1.8c-0.4,0.5-0.8,0.9-1.4,1.2
			c-0.6,0.3-1.3,0.4-2,0.4c-1.4,0-2.4-0.4-3.2-1.3c-0.8-0.9-1.2-2.1-1.2-3.6v-0.2c0-1.5,0.4-2.6,1.2-3.5s1.9-1.3,3.2-1.3
			c1.2,0,2.1,0.3,2.9,1c0.7,0.7,1.1,1.6,1.1,2.7H145c0-0.5-0.2-0.9-0.5-1.2s-0.7-0.5-1.2-0.5c-0.6,0-1,0.2-1.3,0.6s-0.4,1.1-0.4,2.1
			v0.3c0,1,0.1,1.7,0.4,2.1S142.8,205.8,143.4,205.8z"/>
		<path class="st4" d="M148.8,195.7c0-0.4,0.1-0.7,0.4-0.9s0.6-0.4,1-0.4c0.4,0,0.8,0.1,1,0.4s0.4,0.6,0.4,0.9
			c0,0.4-0.1,0.7-0.4,0.9s-0.6,0.4-1,0.4s-0.8-0.1-1-0.4S148.8,196,148.8,195.7z M151.5,207.6h-2.6v-9.5h2.6V207.6z"/>
		<path class="st4" d="M154.3,207.6V200h-1.4v-1.9h1.4v-0.8c0-1.1,0.3-1.9,0.9-2.5s1.5-0.9,2.6-0.9c0.4,0,0.8,0.1,1.3,0.2l0,2
			c-0.2-0.1-0.5-0.1-0.8-0.1c-1,0-1.4,0.4-1.4,1.3v0.8h1.9v1.9h-1.9v7.6L154.3,207.6L154.3,207.6z"/>
		<path class="st4" d="M160,195.7c0-0.4,0.1-0.7,0.4-0.9s0.6-0.4,1-0.4c0.4,0,0.8,0.1,1,0.4s0.4,0.6,0.4,0.9c0,0.4-0.1,0.7-0.4,0.9
			s-0.6,0.4-1,0.4s-0.8-0.1-1-0.4S160,196,160,195.7z M162.7,207.6h-2.6v-9.5h2.6V207.6z"/>
		<path class="st4" d="M168.8,205.8c0.5,0,0.9-0.1,1.1-0.4s0.4-0.6,0.5-1h2.4c0,0.6-0.2,1.2-0.5,1.8c-0.4,0.5-0.8,0.9-1.4,1.2
			c-0.6,0.3-1.3,0.4-2,0.4c-1.4,0-2.4-0.4-3.2-1.3c-0.8-0.9-1.2-2.1-1.2-3.6v-0.2c0-1.5,0.4-2.6,1.2-3.5s1.9-1.3,3.2-1.3
			c1.2,0,2.1,0.3,2.9,1c0.7,0.7,1.1,1.6,1.1,2.7h-2.4c0-0.5-0.2-0.9-0.5-1.2s-0.7-0.5-1.2-0.5c-0.6,0-1,0.2-1.3,0.6
			s-0.4,1.1-0.4,2.1v0.3c0,1,0.1,1.7,0.4,2.1S168.1,205.8,168.8,205.8z"/>
		<path class="st4" d="M182.6,205.8c0.5,0,0.9-0.1,1.1-0.4s0.4-0.6,0.5-1h2.4c0,0.6-0.2,1.2-0.5,1.8c-0.4,0.5-0.8,0.9-1.4,1.2
			c-0.6,0.3-1.3,0.4-2,0.4c-1.4,0-2.4-0.4-3.2-1.3c-0.8-0.9-1.2-2.1-1.2-3.6v-0.2c0-1.5,0.4-2.6,1.2-3.5s1.9-1.3,3.2-1.3
			c1.2,0,2.1,0.3,2.9,1c0.7,0.7,1.1,1.6,1.1,2.7h-2.4c0-0.5-0.2-0.9-0.5-1.2s-0.7-0.5-1.2-0.5c-0.6,0-1,0.2-1.3,0.6
			s-0.4,1.1-0.4,2.1v0.3c0,1,0.1,1.7,0.4,2.1S182,205.8,182.6,205.8z"/>
		<path class="st4" d="M187.7,202.8c0-0.9,0.2-1.8,0.5-2.5s0.9-1.3,1.6-1.7s1.5-0.6,2.4-0.6c1.3,0,2.3,0.4,3.1,1.2s1.3,1.9,1.4,3.2
			l0,0.6c0,1.5-0.4,2.6-1.2,3.5s-1.9,1.3-3.3,1.3s-2.5-0.4-3.3-1.3s-1.2-2.1-1.2-3.6L187.7,202.8L187.7,202.8z M190.2,203
			c0,0.9,0.2,1.6,0.5,2.1c0.3,0.5,0.8,0.7,1.5,0.7c0.6,0,1.1-0.2,1.4-0.7c0.4-0.5,0.5-1.2,0.5-2.3c0-0.9-0.2-1.6-0.5-2.1
			s-0.8-0.7-1.5-0.7c-0.6,0-1.1,0.2-1.4,0.7C190.4,201.2,190.2,202,190.2,203z"/>
		<path class="st4" d="M203.9,206.7c-0.6,0.8-1.5,1.1-2.6,1.1c-1,0-1.8-0.3-2.3-0.9s-0.8-1.4-0.8-2.6v-6.2h2.5v6.1
			c0,1,0.4,1.5,1.4,1.5c0.9,0,1.4-0.3,1.8-0.9v-6.7h2.6v9.5H204L203.9,206.7z"/>
		<path class="st4" d="M213.6,200.5c-0.4-0.1-0.6-0.1-0.9-0.1c-1,0-1.6,0.3-1.9,1v6.2h-2.5v-9.5h2.4l0.1,1.1
			c0.5-0.9,1.2-1.3,2.1-1.3c0.3,0,0.5,0,0.8,0.1L213.6,200.5z"/>
		<path class="st4" d="M220,205c0-0.3-0.1-0.6-0.5-0.7s-0.8-0.3-1.5-0.5c-2.3-0.5-3.4-1.4-3.4-2.9c0-0.8,0.4-1.6,1.1-2.1
			s1.6-0.9,2.8-0.9c1.2,0,2.2,0.3,2.9,0.9s1.1,1.3,1.1,2.2h-2.5c0-0.4-0.1-0.7-0.4-0.9c-0.2-0.2-0.6-0.4-1.1-0.4
			c-0.4,0-0.8,0.1-1,0.3s-0.4,0.4-0.4,0.7c0,0.3,0.1,0.5,0.4,0.7c0.3,0.2,0.7,0.3,1.4,0.4s1.2,0.3,1.6,0.4c1.3,0.5,2,1.3,2,2.6
			c0,0.9-0.4,1.6-1.1,2.1c-0.7,0.5-1.7,0.8-2.9,0.8c-0.8,0-1.5-0.1-2.1-0.4c-0.6-0.3-1.1-0.7-1.5-1.2c-0.4-0.5-0.5-1-0.5-1.6h2.4
			c0,0.4,0.2,0.8,0.5,1s0.7,0.4,1.2,0.4c0.5,0,0.9-0.1,1.1-0.3C219.9,205.5,220,205.3,220,205z"/>
		<path class="st4" d="M228.5,207.8c-1.4,0-2.5-0.4-3.4-1.3s-1.3-2-1.3-3.4v-0.2c0-1,0.2-1.8,0.6-2.6s0.9-1.3,1.6-1.7
			s1.4-0.6,2.3-0.6c1.3,0,2.3,0.4,3.1,1.2s1.1,2,1.1,3.5v1h-6.1c0.1,0.6,0.3,1.1,0.7,1.5s0.9,0.6,1.6,0.6c1,0,1.7-0.4,2.3-1.1
			l1.2,1.4c-0.4,0.5-0.9,1-1.6,1.3C230,207.7,229.3,207.8,228.5,207.8z M228.2,200c-0.5,0-0.9,0.2-1.2,0.5c-0.3,0.3-0.5,0.8-0.6,1.5
			h3.5v-0.2c0-0.6-0.2-1-0.5-1.3C229.2,200.1,228.8,200,228.2,200z"/>
	</g>
</g>
<g>
	<g class="st3">
		<path class="st5" d="M69.6,94.1v4.5H67V85.8h5c1,0,1.8,0.2,2.5,0.5s1.3,0.8,1.7,1.5s0.6,1.4,0.6,2.2c0,1.3-0.4,2.2-1.3,3
			s-2.1,1.1-3.6,1.1L69.6,94.1L69.6,94.1z M69.6,91.9H72c0.7,0,1.2-0.2,1.6-0.5s0.6-0.8,0.6-1.4c0-0.6-0.2-1.1-0.6-1.5
			s-0.9-0.6-1.5-0.6h-2.4L69.6,91.9L69.6,91.9z"/>
		<path class="st5" d="M81.1,98.6h-2.6V85.1h2.6V98.6z"/>
		<path class="st5" d="M88.7,98.6c-0.1-0.2-0.2-0.5-0.2-0.9c-0.6,0.7-1.4,1-2.4,1c-0.9,0-1.7-0.3-2.3-0.8s-0.9-1.2-0.9-2
			c0-1,0.4-1.8,1.1-2.3s1.8-0.8,3.2-0.8h1.2v-0.5c0-0.4-0.1-0.8-0.3-1.1s-0.6-0.4-1.1-0.4c-0.4,0-0.8,0.1-1,0.3s-0.4,0.5-0.4,0.8H83
			c0-0.6,0.2-1.1,0.5-1.5s0.8-0.8,1.4-1.1s1.3-0.4,2.1-0.4c1.2,0,2.1,0.3,2.8,0.9s1,1.4,1,2.5v4.1c0,0.9,0.1,1.6,0.4,2.1v0.1
			L88.7,98.6L88.7,98.6z M86.6,96.8c0.4,0,0.7-0.1,1-0.2s0.6-0.4,0.7-0.7v-1.6h-0.9c-1.3,0-1.9,0.4-2,1.3l0,0.1
			c0,0.3,0.1,0.6,0.3,0.8S86.2,96.8,86.6,96.8z"/>
		<path class="st5" d="M95.2,89.1l0.1,1.1c0.7-0.8,1.6-1.3,2.7-1.3c1,0,1.8,0.3,2.2,0.9s0.7,1.5,0.8,2.7v6.1h-2.6v-6.1
			c0-0.5-0.1-0.9-0.3-1.2c-0.2-0.2-0.6-0.4-1.2-0.4c-0.7,0-1.2,0.3-1.6,0.9v6.7h-2.5v-9.5L95.2,89.1L95.2,89.1z"/>
		<path class="st5" d="M107,93.7c0-0.9,0.2-1.8,0.5-2.5s0.9-1.3,1.6-1.7s1.5-0.6,2.4-0.6c1.3,0,2.3,0.4,3.1,1.2
			c0.8,0.8,1.3,1.9,1.4,3.2l0,0.6c0,1.5-0.4,2.6-1.2,3.5s-1.9,1.3-3.3,1.3s-2.5-0.4-3.3-1.3s-1.2-2.1-1.2-3.6
			C107,93.8,107,93.7,107,93.7z M109.6,93.9c0,0.9,0.2,1.6,0.5,2.1c0.3,0.5,0.8,0.7,1.5,0.7c0.6,0,1.1-0.2,1.4-0.7
			c0.3-0.5,0.5-1.2,0.5-2.3c0-0.9-0.2-1.6-0.5-2.1s-0.8-0.7-1.5-0.7c-0.6,0-1.1,0.2-1.4,0.7C109.7,92.1,109.6,92.9,109.6,93.9z"/>
		<path class="st5" d="M123.3,97.6c-0.6,0.8-1.5,1.1-2.6,1.1c-1,0-1.8-0.3-2.3-0.9s-0.8-1.4-0.8-2.6v-6.2h2.5v6.2
			c0,1,0.4,1.5,1.3,1.5c0.9,0,1.4-0.3,1.8-0.9v-6.7h2.6v9.5h-2.4L123.3,97.6z"/>
		<path class="st5" d="M130.7,86.7v2.3h1.6v1.9h-1.6v4.8c0,0.4,0.1,0.6,0.2,0.8c0.1,0.2,0.4,0.2,0.8,0.2c0.3,0,0.5,0,0.8-0.1v1.9
			c-0.5,0.1-1,0.2-1.5,0.2c-1.8,0-2.7-0.9-2.7-2.7v-5.1h-1.4v-1.9h1.4v-2.3L130.7,86.7L130.7,86.7z"/>
		<path class="st5" d="M141.8,95l1.8-5.9h2.7l-3.8,11l-0.2,0.5c-0.6,1.2-1.5,1.9-2.8,1.9c-0.4,0-0.7-0.1-1.1-0.2v-1.9l0.4,0
			c0.5,0,0.8-0.1,1.1-0.2s0.4-0.4,0.6-0.7l0.3-0.8l-3.3-9.5h2.7L141.8,95z"/>
		<path class="st5" d="M146.9,93.7c0-0.9,0.2-1.8,0.5-2.5s0.9-1.3,1.6-1.7s1.5-0.6,2.4-0.6c1.3,0,2.3,0.4,3.1,1.2
			c0.8,0.8,1.3,1.9,1.4,3.2l0,0.6c0,1.5-0.4,2.6-1.2,3.5s-1.9,1.3-3.3,1.3s-2.5-0.4-3.3-1.3s-1.2-2.1-1.2-3.6L146.9,93.7L146.9,93.7
			z M149.4,93.9c0,0.9,0.2,1.6,0.5,2.1c0.3,0.5,0.8,0.7,1.5,0.7c0.6,0,1.1-0.2,1.4-0.7c0.4-0.5,0.5-1.2,0.5-2.3
			c0-0.9-0.2-1.6-0.5-2.1s-0.8-0.7-1.5-0.7c-0.6,0-1.1,0.2-1.4,0.7C149.6,92.1,149.4,92.9,149.4,93.9z"/>
		<path class="st5" d="M163.1,97.6c-0.6,0.8-1.5,1.1-2.6,1.1c-1,0-1.8-0.3-2.3-0.9s-0.8-1.4-0.8-2.6v-6.2h2.5v6.2
			c0,1,0.4,1.5,1.4,1.5c0.9,0,1.4-0.3,1.8-0.9v-6.7h2.6v9.5h-2.4L163.1,97.6z"/>
		<path class="st5" d="M172.8,91.4c-0.4-0.1-0.6-0.1-0.9-0.1c-1,0-1.6,0.3-1.9,1v6.2h-2.5v-9.5h2.4l0.1,1.1c0.5-0.9,1.2-1.3,2.1-1.3
			c0.3,0,0.5,0,0.8,0.1L172.8,91.4z"/>
		<path class="st5" d="M178.2,93.7c0-1.5,0.3-2.7,1-3.5s1.6-1.3,2.7-1.3c0.9,0,1.7,0.3,2.3,1v-4.8h2.6v13.5h-2.3l-0.1-1
			c-0.6,0.8-1.4,1.2-2.4,1.2c-1.1,0-2-0.4-2.7-1.3S178.2,95.3,178.2,93.7z M180.7,93.9c0,0.9,0.2,1.6,0.5,2.1s0.8,0.7,1.4,0.7
			c0.8,0,1.3-0.3,1.7-1v-3.8c-0.3-0.7-0.9-1-1.6-1C181.3,91,180.7,91.9,180.7,93.9z"/>
		<path class="st5" d="M193.1,98.7c-1.4,0-2.5-0.4-3.4-1.3s-1.3-2-1.3-3.4v-0.2c0-1,0.2-1.8,0.6-2.6s0.9-1.3,1.6-1.7
			s1.4-0.6,2.3-0.6c1.3,0,2.3,0.4,3.1,1.2c0.8,0.8,1.1,2,1.1,3.5v1h-6.1c0.1,0.6,0.3,1.1,0.7,1.5s0.9,0.6,1.6,0.6
			c1,0,1.7-0.4,2.3-1.1l1.2,1.4c-0.4,0.5-0.9,1-1.6,1.3C194.6,98.6,193.9,98.7,193.1,98.7z M192.8,90.9c-0.5,0-0.9,0.2-1.2,0.5
			c-0.3,0.3-0.5,0.8-0.6,1.5h3.5v-0.2c0-0.6-0.2-1-0.5-1.3C193.7,91.1,193.3,90.9,192.8,90.9z"/>
		<path class="st5" d="M198.1,93.7c0-1.5,0.4-2.6,1-3.5s1.6-1.3,2.8-1.3c1,0,1.9,0.4,2.4,1.1l0.1-0.9h2.3v9.2c0,0.8-0.2,1.6-0.6,2.2
			s-0.9,1.1-1.6,1.4s-1.5,0.5-2.4,0.5c-0.7,0-1.4-0.1-2-0.4s-1.2-0.6-1.5-1.1l1.1-1.6c0.6,0.7,1.4,1.1,2.3,1.1
			c0.7,0,1.2-0.2,1.6-0.5c0.4-0.4,0.6-0.9,0.6-1.5v-0.5c-0.6,0.7-1.4,1-2.3,1c-1.1,0-2.1-0.4-2.8-1.3S198,95.3,198.1,93.7
			L198.1,93.7L198.1,93.7z M200.6,93.9c0,0.9,0.2,1.5,0.5,2s0.8,0.7,1.4,0.7c0.8,0,1.3-0.3,1.7-0.9v-4c-0.3-0.6-0.9-0.9-1.6-0.9
			c-0.6,0-1.1,0.2-1.4,0.8C200.8,92.2,200.6,92.9,200.6,93.9z"/>
		<path class="st5" d="M214,91.4c-0.4-0.1-0.6-0.1-0.9-0.1c-1,0-1.6,0.3-1.9,1v6.2h-2.5v-9.5h2.4l0.1,1.1c0.5-0.9,1.2-1.3,2.1-1.3
			c0.3,0,0.5,0,0.8,0.1L214,91.4z"/>
		<path class="st5" d="M219.6,98.7c-1.4,0-2.5-0.4-3.4-1.3s-1.3-2-1.3-3.4v-0.2c0-1,0.2-1.8,0.6-2.6s0.9-1.3,1.6-1.7
			s1.4-0.6,2.3-0.6c1.3,0,2.3,0.4,3.1,1.2c0.8,0.8,1.1,2,1.1,3.5v1h-6.1c0.1,0.6,0.3,1.1,0.7,1.5s0.9,0.6,1.6,0.6
			c1,0,1.7-0.4,2.3-1.1l1.2,1.4c-0.4,0.5-0.9,1-1.6,1.3C221.2,98.6,220.4,98.7,219.6,98.7z M219.4,90.9c-0.5,0-0.9,0.2-1.2,0.5
			c-0.3,0.3-0.5,0.8-0.6,1.5h3.5v-0.2c0-0.6-0.2-1-0.5-1.3C220.3,91.1,219.9,90.9,219.4,90.9z"/>
		<path class="st5" d="M229.4,98.7c-1.4,0-2.5-0.4-3.4-1.3s-1.3-2-1.3-3.4v-0.2c0-1,0.2-1.8,0.6-2.6s0.9-1.3,1.6-1.7
			s1.4-0.6,2.3-0.6c1.3,0,2.3,0.4,3.1,1.2c0.8,0.8,1.1,2,1.1,3.5v1h-6.1c0.1,0.6,0.3,1.1,0.7,1.5s0.9,0.6,1.6,0.6
			c1,0,1.7-0.4,2.3-1.1l1.2,1.4c-0.4,0.5-0.9,1-1.6,1.3C230.9,98.6,230.2,98.7,229.4,98.7z M229.1,90.9c-0.5,0-0.9,0.2-1.2,0.5
			c-0.3,0.3-0.5,0.8-0.6,1.5h3.5v-0.2c0-0.6-0.2-1-0.5-1.3C230,91.1,229.6,90.9,229.1,90.9z"/>
	</g>
	<g class="st3">
		<path class="st5" d="M68,119.2c-0.6,0.8-1.5,1.1-2.6,1.1c-1,0-1.8-0.3-2.3-0.9s-0.8-1.4-0.8-2.6v-6.2h2.5v6.1c0,1,0.5,1.5,1.3,1.5
			c0.9,0,1.4-0.3,1.8-0.9v-6.7h2.6v9.5h-2.4L68,119.2z"/>
		<path class="st5" d="M77.6,117.5c0-0.3-0.2-0.6-0.5-0.7s-0.8-0.3-1.5-0.5c-2.3-0.5-3.4-1.4-3.4-2.9c0-0.8,0.3-1.6,1.1-2.1
			c0.7-0.6,1.6-0.9,2.8-0.9c1.2,0,2.2,0.3,2.9,0.9s1.1,1.3,1.1,2.2h-2.6c0-0.4-0.1-0.7-0.3-0.9c-0.2-0.2-0.6-0.4-1.1-0.4
			c-0.4,0-0.8,0.1-1,0.3s-0.3,0.4-0.3,0.7c0,0.3,0.1,0.5,0.4,0.7c0.3,0.2,0.7,0.3,1.3,0.4s1.2,0.3,1.6,0.4c1.3,0.5,2,1.3,2,2.6
			c0,0.9-0.4,1.6-1.1,2.1c-0.7,0.5-1.7,0.8-2.9,0.8c-0.8,0-1.5-0.1-2.1-0.4c-0.6-0.3-1.1-0.7-1.4-1.2c-0.3-0.5-0.5-1-0.5-1.6h2.4
			c0,0.4,0.2,0.8,0.5,1s0.7,0.4,1.2,0.4c0.5,0,0.8-0.1,1.1-0.3C77.4,118.1,77.6,117.8,77.6,117.5z"/>
		<path class="st5" d="M81.6,108.2c0-0.4,0.1-0.7,0.4-0.9s0.6-0.4,1-0.4c0.4,0,0.8,0.1,1,0.4s0.4,0.6,0.4,0.9c0,0.4-0.1,0.7-0.4,0.9
			s-0.6,0.4-1,0.4s-0.8-0.1-1-0.4S81.6,108.6,81.6,108.2z M84.3,120.2h-2.6v-9.5h2.6V120.2z"/>
		<path class="st5" d="M88.8,110.7l0.1,1.1c0.7-0.9,1.6-1.3,2.7-1.3c1,0,1.8,0.3,2.2,0.9s0.7,1.5,0.8,2.6v6.1H92v-6.1
			c0-0.5-0.1-0.9-0.3-1.2c-0.2-0.2-0.6-0.4-1.2-0.4c-0.7,0-1.2,0.3-1.6,0.9v6.7h-2.5v-9.5L88.8,110.7L88.8,110.7z"/>
		<path class="st5" d="M96.1,115.3c0-1.5,0.3-2.6,1-3.5s1.6-1.3,2.8-1.3c1,0,1.8,0.4,2.4,1.1l0.1-0.9h2.3v9.2c0,0.8-0.2,1.6-0.6,2.2
			s-0.9,1.1-1.6,1.4s-1.5,0.5-2.4,0.5c-0.7,0-1.4-0.1-2-0.4s-1.2-0.6-1.5-1.1l1.1-1.6c0.6,0.7,1.4,1.1,2.3,1.1
			c0.7,0,1.2-0.2,1.6-0.5c0.4-0.4,0.6-0.9,0.6-1.5v-0.5c-0.6,0.7-1.4,1-2.3,1c-1.1,0-2.1-0.4-2.8-1.3S96.1,116.9,96.1,115.3
			L96.1,115.3L96.1,115.3z M98.7,115.5c0,0.9,0.2,1.5,0.5,2s0.8,0.7,1.4,0.7c0.8,0,1.3-0.3,1.7-0.9v-4c-0.3-0.6-0.9-0.9-1.6-0.9
			c-0.6,0-1.1,0.2-1.4,0.8C98.9,113.8,98.7,114.5,98.7,115.5z"/>
		<path class="st5" d="M114.3,108.3v2.3h1.6v1.9h-1.6v4.8c0,0.4,0.1,0.6,0.2,0.8s0.4,0.2,0.8,0.2c0.3,0,0.5,0,0.8-0.1v1.9
			c-0.5,0.1-1,0.2-1.5,0.2c-1.8,0-2.7-0.9-2.7-2.7v-5.1h-1.4v-1.9h1.4v-2.3L114.3,108.3L114.3,108.3z"/>
		<path class="st5" d="M119.8,111.7c0.7-0.8,1.5-1.2,2.5-1.2c2.1,0,3.1,1.2,3.1,3.6v6.1H123v-6c0-0.5-0.1-0.9-0.3-1.2
			s-0.6-0.4-1.2-0.4c-0.7,0-1.3,0.3-1.6,0.9v6.8h-2.5v-13.5h2.5V111.7z"/>
		<path class="st5" d="M131.8,120.3c-1.4,0-2.5-0.4-3.4-1.3s-1.3-2-1.3-3.4v-0.2c0-1,0.2-1.8,0.6-2.6s0.9-1.3,1.6-1.7
			c0.7-0.4,1.5-0.6,2.3-0.6c1.3,0,2.3,0.4,3.1,1.2s1.1,2,1.1,3.5v1h-6.1c0.1,0.6,0.3,1.1,0.7,1.5c0.4,0.4,0.9,0.6,1.6,0.6
			c1,0,1.7-0.4,2.3-1.1l1.2,1.4c-0.4,0.5-0.9,1-1.6,1.3C133.3,120.2,132.6,120.3,131.8,120.3z M131.5,112.5c-0.5,0-0.9,0.2-1.2,0.5
			c-0.3,0.3-0.5,0.8-0.6,1.5h3.5v-0.2c0-0.6-0.2-1-0.5-1.3C132.5,112.7,132,112.5,131.5,112.5z"/>
		<path class="st5" d="M150.2,115.5c0,1.5-0.3,2.6-1,3.5s-1.6,1.3-2.7,1.3c-1,0-1.7-0.3-2.3-1v4.5h-2.5v-13.2h2.4l0.1,0.9
			c0.6-0.7,1.4-1.1,2.4-1.1c1.2,0,2.1,0.4,2.7,1.3s1,2.1,1,3.6L150.2,115.5L150.2,115.5z M147.7,115.3c0-0.9-0.2-1.6-0.5-2.1
			s-0.8-0.7-1.4-0.7c-0.8,0-1.3,0.3-1.6,0.9v3.9c0.3,0.6,0.9,0.9,1.7,0.9C147,118.3,147.7,117.3,147.7,115.3z"/>
		<path class="st5" d="M157.1,113c-0.4-0.1-0.6-0.1-0.9-0.1c-1,0-1.6,0.3-1.9,1v6.2h-2.5v-9.5h2.4l0.1,1.1c0.5-0.9,1.2-1.3,2.1-1.3
			c0.3,0,0.5,0,0.8,0.1L157.1,113z"/>
		<path class="st5" d="M162.7,120.3c-1.4,0-2.5-0.4-3.4-1.3s-1.3-2-1.3-3.4v-0.2c0-1,0.2-1.8,0.6-2.6s0.9-1.3,1.6-1.7
			s1.4-0.6,2.3-0.6c1.3,0,2.3,0.4,3.1,1.2s1.1,2,1.1,3.5v1h-6.1c0.1,0.6,0.3,1.1,0.7,1.5s0.9,0.6,1.6,0.6c1,0,1.7-0.4,2.3-1.1
			l1.2,1.4c-0.4,0.5-0.9,1-1.6,1.3C164.2,120.2,163.5,120.3,162.7,120.3z M162.4,112.5c-0.5,0-0.9,0.2-1.2,0.5
			c-0.3,0.3-0.5,0.8-0.6,1.5h3.5v-0.2c0-0.6-0.2-1-0.5-1.3C163.4,112.7,163,112.5,162.4,112.5z"/>
		<path class="st5" d="M173.4,113c-0.4-0.1-0.6-0.1-0.9-0.1c-1,0-1.6,0.3-1.9,1v6.2h-2.5v-9.5h2.4l0.1,1.1c0.5-0.9,1.2-1.3,2.1-1.3
			c0.3,0,0.5,0,0.8,0.1L173.4,113z"/>
		<path class="st5" d="M179,120.3c-1.4,0-2.5-0.4-3.4-1.3s-1.3-2-1.3-3.4v-0.2c0-1,0.2-1.8,0.6-2.6s0.9-1.3,1.6-1.7s1.4-0.6,2.3-0.6
			c1.3,0,2.3,0.4,3.1,1.2s1.1,2,1.1,3.5v1h-6.1c0.1,0.6,0.3,1.1,0.7,1.5s0.9,0.6,1.6,0.6c1,0,1.7-0.4,2.3-1.1l1.2,1.4
			c-0.4,0.5-0.9,1-1.6,1.3C180.5,120.2,179.8,120.3,179,120.3z M178.7,112.5c-0.5,0-0.9,0.2-1.2,0.5c-0.3,0.3-0.5,0.8-0.6,1.5h3.5
			v-0.2c0-0.6-0.2-1-0.5-1.3C179.7,112.7,179.2,112.5,178.7,112.5z"/>
		<path class="st5" d="M184,115.3c0-1.5,0.3-2.7,1-3.5s1.6-1.3,2.7-1.3c1,0,1.8,0.4,2.4,1.2l0.2-1h2.2v13.2H190v-4.5
			c-0.6,0.7-1.4,1-2.3,1c-1.1,0-2-0.4-2.7-1.3S184,116.9,184,115.3z M186.5,115.5c0,0.9,0.2,1.6,0.5,2.1s0.8,0.7,1.4,0.7
			c0.8,0,1.3-0.3,1.6-0.9v-3.9c-0.3-0.6-0.9-0.9-1.6-0.9c-0.6,0-1,0.2-1.4,0.7S186.5,114.5,186.5,115.5z"/>
		<path class="st5" d="M200.2,119.2c-0.6,0.8-1.5,1.1-2.6,1.1c-1,0-1.8-0.3-2.3-0.9s-0.8-1.4-0.8-2.6v-6.2h2.5v6.1
			c0,1,0.4,1.5,1.4,1.5c0.9,0,1.4-0.3,1.8-0.9v-6.7h2.6v9.5h-2.4L200.2,119.2z"/>
		<path class="st5" d="M204.6,108.2c0-0.4,0.1-0.7,0.4-0.9s0.6-0.4,1-0.4c0.4,0,0.8,0.1,1,0.4s0.4,0.6,0.4,0.9
			c0,0.4-0.1,0.7-0.4,0.9s-0.6,0.4-1,0.4s-0.8-0.1-1-0.4S204.6,108.6,204.6,108.2z M207.3,120.2h-2.6v-9.5h2.6V120.2z"/>
		<path class="st5" d="M214.5,117.5c0-0.3-0.1-0.6-0.5-0.7s-0.8-0.3-1.5-0.5c-2.3-0.5-3.4-1.4-3.4-2.9c0-0.8,0.4-1.6,1.1-2.1
			s1.6-0.9,2.8-0.9c1.2,0,2.2,0.3,2.9,0.9s1.1,1.3,1.1,2.2h-2.5c0-0.4-0.1-0.7-0.4-0.9c-0.2-0.2-0.6-0.4-1.1-0.4
			c-0.4,0-0.8,0.1-1,0.3s-0.4,0.4-0.4,0.7c0,0.3,0.1,0.5,0.4,0.7c0.3,0.2,0.7,0.3,1.4,0.4s1.2,0.3,1.6,0.4c1.3,0.5,2,1.3,2,2.6
			c0,0.9-0.4,1.6-1.1,2.1c-0.7,0.5-1.7,0.8-2.9,0.8c-0.8,0-1.5-0.1-2.1-0.4c-0.6-0.3-1.1-0.7-1.5-1.2c-0.4-0.5-0.5-1-0.5-1.6h2.4
			c0,0.4,0.2,0.8,0.5,1s0.7,0.4,1.2,0.4c0.5,0,0.9-0.1,1.1-0.3C214.4,118.1,214.5,117.8,214.5,117.5z"/>
		<path class="st5" d="M218.6,108.2c0-0.4,0.1-0.7,0.4-0.9s0.6-0.4,1-0.4c0.4,0,0.8,0.1,1,0.4s0.4,0.6,0.4,0.9
			c0,0.4-0.1,0.7-0.4,0.9s-0.6,0.4-1,0.4s-0.8-0.1-1-0.4S218.6,108.6,218.6,108.2z M221.3,120.2h-2.6v-9.5h2.6V120.2z"/>
		<path class="st5" d="M226.4,108.3v2.3h1.6v1.9h-1.6v4.8c0,0.4,0.1,0.6,0.2,0.8s0.4,0.2,0.8,0.2c0.3,0,0.5,0,0.8-0.1v1.9
			c-0.5,0.1-1,0.2-1.5,0.2c-1.8,0-2.7-0.9-2.7-2.7v-5.1h-1.4v-1.9h1.4v-2.3L226.4,108.3L226.4,108.3z"/>
		<path class="st5" d="M233.9,120.3c-1.4,0-2.5-0.4-3.4-1.3s-1.3-2-1.3-3.4v-0.2c0-1,0.2-1.8,0.6-2.6s0.9-1.3,1.6-1.7
			s1.4-0.6,2.3-0.6c1.3,0,2.3,0.4,3.1,1.2s1.1,2,1.1,3.5v1h-6.1c0.1,0.6,0.3,1.1,0.7,1.5s0.9,0.6,1.6,0.6c1,0,1.7-0.4,2.3-1.1
			l1.2,1.4c-0.4,0.5-0.9,1-1.6,1.3C235.4,120.2,234.6,120.3,233.9,120.3z M233.6,112.5c-0.5,0-0.9,0.2-1.2,0.5
			c-0.3,0.3-0.5,0.8-0.6,1.5h3.5v-0.2c0-0.6-0.2-1-0.5-1.3C234.5,112.7,234.1,112.5,233.6,112.5z"/>
	</g>
	<g class="st3">
		<path class="st5" d="M60.8,136.9c0-1.5,0.3-2.6,1-3.5s1.6-1.3,2.8-1.3c1,0,1.9,0.4,2.4,1.1l0.1-0.9h2.3v9.2c0,0.8-0.2,1.6-0.6,2.2
			s-0.9,1.1-1.6,1.4s-1.5,0.5-2.4,0.5c-0.7,0-1.4-0.1-2-0.4s-1.2-0.6-1.5-1.1l1.1-1.6c0.6,0.7,1.4,1.1,2.3,1.1
			c0.7,0,1.2-0.2,1.6-0.5c0.4-0.4,0.6-0.9,0.6-1.5v-0.5c-0.6,0.7-1.4,1-2.3,1c-1.1,0-2.1-0.4-2.8-1.3S60.8,138.5,60.8,136.9
			L60.8,136.9L60.8,136.9z M63.4,137.1c0,0.9,0.2,1.5,0.5,2c0.3,0.5,0.8,0.7,1.4,0.7c0.8,0,1.3-0.3,1.7-0.9v-4
			c-0.3-0.6-0.9-0.9-1.6-0.9c-0.6,0-1.1,0.2-1.4,0.8C63.5,135.4,63.4,136.1,63.4,137.1z"/>
		<path class="st5" d="M76.8,134.6c-0.3-0.1-0.7-0.1-0.9-0.1c-1,0-1.6,0.3-1.9,1v6.2h-2.5v-9.5h2.4l0.1,1.1c0.5-0.9,1.2-1.3,2.1-1.3
			c0.3,0,0.5,0,0.8,0.1L76.8,134.6z"/>
		<path class="st5" d="M83.3,141.8c-0.1-0.2-0.2-0.5-0.2-0.9c-0.6,0.7-1.4,1-2.4,1c-0.9,0-1.7-0.3-2.3-0.8s-0.9-1.2-0.9-2
			c0-1,0.4-1.8,1.1-2.3s1.8-0.8,3.2-0.8h1.2v-0.5c0-0.4-0.1-0.8-0.3-1.1S82,134,81.5,134c-0.4,0-0.8,0.1-1,0.3s-0.4,0.5-0.4,0.8
			h-2.5c0-0.6,0.2-1.1,0.5-1.5s0.8-0.8,1.4-1.1s1.3-0.4,2.1-0.4c1.2,0,2.1,0.3,2.8,0.9c0.7,0.6,1,1.4,1,2.5v4.1
			c0,0.9,0.1,1.6,0.4,2.1v0.1L83.3,141.8L83.3,141.8z M81.2,140c0.4,0,0.7-0.1,1-0.2s0.6-0.4,0.7-0.7v-1.6H82c-1.3,0-1.9,0.4-2,1.3
			l0,0.1c0,0.3,0.1,0.6,0.3,0.8S80.8,140,81.2,140z"/>
		<path class="st5" d="M96,137.1c0,1.5-0.3,2.6-1,3.5s-1.6,1.3-2.7,1.3c-1,0-1.7-0.3-2.3-1v4.5h-2.5v-13.2h2.4l0.1,0.9
			c0.6-0.7,1.4-1.1,2.4-1.1c1.2,0,2.1,0.4,2.7,1.3s1,2.1,1,3.6L96,137.1L96,137.1z M93.4,136.9c0-0.9-0.2-1.6-0.5-2.1
			s-0.8-0.7-1.4-0.7c-0.8,0-1.3,0.3-1.6,0.9v3.9c0.3,0.6,0.9,0.9,1.7,0.9C92.8,139.9,93.4,138.9,93.4,136.9z"/>
		<path class="st5" d="M100,133.3c0.7-0.8,1.5-1.2,2.5-1.2c2.1,0,3.1,1.2,3.1,3.6v6.1h-2.5v-6c0-0.5-0.1-0.9-0.3-1.2
			s-0.6-0.4-1.2-0.4c-0.7,0-1.3,0.3-1.6,0.9v6.8h-2.5v-13.5h2.5V133.3z"/>
		<path class="st5" d="M107.6,129.8c0-0.4,0.1-0.7,0.4-0.9s0.6-0.4,1-0.4c0.4,0,0.8,0.1,1,0.4s0.4,0.6,0.4,0.9
			c0,0.4-0.1,0.7-0.4,0.9s-0.6,0.4-1,0.4s-0.8-0.1-1-0.4S107.6,130.2,107.6,129.8z M110.3,141.8h-2.6v-9.5h2.6V141.8z"/>
		<path class="st5" d="M114.7,132.3l0.1,1.1c0.7-0.9,1.6-1.3,2.7-1.3c1,0,1.8,0.3,2.2,0.9s0.7,1.5,0.8,2.6v6.1H118v-6.1
			c0-0.5-0.1-0.9-0.3-1.2c-0.2-0.2-0.6-0.4-1.2-0.4c-0.7,0-1.2,0.3-1.6,0.9v6.7h-2.5v-9.5L114.7,132.3L114.7,132.3z"/>
		<path class="st5" d="M122.1,136.9c0-1.5,0.3-2.6,1-3.5s1.6-1.3,2.8-1.3c1,0,1.8,0.4,2.4,1.1l0.1-0.9h2.3v9.2
			c0,0.8-0.2,1.6-0.6,2.2c-0.4,0.6-0.9,1.1-1.6,1.4c-0.7,0.3-1.5,0.5-2.4,0.5c-0.7,0-1.4-0.1-2-0.4s-1.2-0.6-1.5-1.1l1.1-1.6
			c0.6,0.7,1.4,1.1,2.3,1.1c0.7,0,1.2-0.2,1.6-0.5c0.4-0.4,0.6-0.9,0.6-1.5v-0.5c-0.6,0.7-1.4,1-2.3,1c-1.1,0-2.1-0.4-2.8-1.3
			S122.1,138.5,122.1,136.9L122.1,136.9L122.1,136.9z M124.6,137.1c0,0.9,0.2,1.5,0.5,2s0.8,0.7,1.4,0.7c0.8,0,1.3-0.3,1.7-0.9v-4
			c-0.3-0.6-0.9-0.9-1.6-0.9c-0.6,0-1.1,0.2-1.4,0.8C124.8,135.4,124.6,136.1,124.6,137.1z"/>
		<path class="st5" d="M137.9,141.8v-7.6h-1.4v-1.9h1.4v-0.8c0-1.1,0.3-1.9,0.9-2.5s1.5-0.9,2.6-0.9c0.4,0,0.8,0.1,1.3,0.2l0,2
			c-0.2-0.1-0.5-0.1-0.8-0.1c-1,0-1.4,0.4-1.4,1.3v0.8h1.9v1.9h-1.9v7.6L137.9,141.8L137.9,141.8z"/>
		<path class="st5" d="M148.1,141.9c-1.4,0-2.5-0.4-3.4-1.3s-1.3-2-1.3-3.4V137c0-1,0.2-1.8,0.6-2.6s0.9-1.3,1.6-1.7
			s1.4-0.6,2.3-0.6c1.3,0,2.3,0.4,3.1,1.2c0.8,0.8,1.1,2,1.1,3.5v1h-6.1c0.1,0.6,0.3,1.1,0.7,1.5s0.9,0.6,1.6,0.6
			c1,0,1.7-0.4,2.3-1.1l1.2,1.4c-0.4,0.5-0.9,1-1.6,1.3C149.6,141.8,148.9,141.9,148.1,141.9z M147.8,134.1c-0.5,0-0.9,0.2-1.2,0.5
			c-0.3,0.3-0.5,0.8-0.6,1.5h3.5v-0.2c0-0.6-0.2-1-0.5-1.3C148.7,134.3,148.3,134.1,147.8,134.1z"/>
		<path class="st5" d="M158.9,141.8c-0.1-0.2-0.2-0.5-0.2-0.9c-0.6,0.7-1.4,1-2.4,1c-0.9,0-1.7-0.3-2.3-0.8s-0.9-1.2-0.9-2
			c0-1,0.4-1.8,1.1-2.3s1.8-0.8,3.2-0.8h1.2v-0.5c0-0.4-0.1-0.8-0.3-1.1s-0.6-0.4-1.1-0.4c-0.4,0-0.8,0.1-1,0.3s-0.4,0.5-0.4,0.8
			h-2.5c0-0.6,0.2-1.1,0.5-1.5s0.8-0.8,1.4-1.1s1.3-0.4,2.1-0.4c1.2,0,2.1,0.3,2.8,0.9c0.7,0.6,1,1.4,1,2.5v4.1
			c0,0.9,0.1,1.6,0.4,2.1v0.1L158.9,141.8L158.9,141.8z M156.8,140c0.4,0,0.7-0.1,1-0.2c0.3-0.2,0.6-0.4,0.7-0.7v-1.6h-0.9
			c-1.3,0-1.9,0.4-2,1.3l0,0.1c0,0.3,0.1,0.6,0.3,0.8S156.4,140,156.8,140z"/>
		<path class="st5" d="M166.1,129.9v2.3h1.6v1.9h-1.6v4.8c0,0.4,0.1,0.6,0.2,0.8s0.4,0.2,0.8,0.2c0.3,0,0.5,0,0.8-0.1v1.9
			c-0.5,0.1-1,0.2-1.5,0.2c-1.8,0-2.7-0.9-2.7-2.7v-5.1h-1.4v-1.9h1.4v-2.3L166.1,129.9L166.1,129.9z"/>
		<path class="st5" d="M174.8,140.8c-0.6,0.8-1.5,1.1-2.6,1.1c-1,0-1.8-0.3-2.3-0.9s-0.8-1.4-0.8-2.6v-6.2h2.5v6.1
			c0,1,0.4,1.5,1.4,1.5c0.9,0,1.4-0.3,1.8-0.9v-6.7h2.6v9.5h-2.4L174.8,140.8z"/>
		<path class="st5" d="M184.6,134.6c-0.4-0.1-0.6-0.1-0.9-0.1c-1,0-1.6,0.3-1.9,1v6.2h-2.5v-9.5h2.4l0.1,1.1
			c0.5-0.9,1.2-1.3,2.1-1.3c0.3,0,0.5,0,0.8,0.1L184.6,134.6z"/>
		<path class="st5" d="M190.2,141.9c-1.4,0-2.5-0.4-3.4-1.3s-1.3-2-1.3-3.4V137c0-1,0.2-1.8,0.6-2.6s0.9-1.3,1.6-1.7
			s1.4-0.6,2.3-0.6c1.3,0,2.3,0.4,3.1,1.2s1.1,2,1.1,3.5v1H188c0.1,0.6,0.3,1.1,0.7,1.5s0.9,0.6,1.6,0.6c1,0,1.7-0.4,2.3-1.1
			l1.2,1.4c-0.4,0.5-0.9,1-1.6,1.3C191.7,141.8,191,141.9,190.2,141.9z M189.9,134.1c-0.5,0-0.9,0.2-1.2,0.5
			c-0.3,0.3-0.5,0.8-0.6,1.5h3.5v-0.2c0-0.6-0.2-1-0.5-1.3C190.8,134.3,190.4,134.1,189.9,134.1z"/>
		<path class="st5" d="M195.6,140.5c0-0.4,0.1-0.7,0.4-1s0.6-0.4,1-0.4c0.4,0,0.8,0.1,1,0.4s0.4,0.6,0.4,1s-0.1,0.7-0.4,1
			c-0.3,0.2-0.6,0.4-1,0.4s-0.8-0.1-1-0.4C195.8,141.2,195.6,140.9,195.6,140.5z"/>
		<path class="st5" d="M213.1,136.5H208v5.2h-2.6V129h8.3v2.1H208v3.3h5.1L213.1,136.5L213.1,136.5z"/>
		<path class="st5" d="M215.1,129.8c0-0.4,0.1-0.7,0.4-0.9s0.6-0.4,1-0.4c0.4,0,0.8,0.1,1,0.4s0.4,0.6,0.4,0.9
			c0,0.4-0.1,0.7-0.4,0.9s-0.6,0.4-1,0.4s-0.8-0.1-1-0.4S215.1,130.2,215.1,129.8z M217.8,141.8h-2.6v-9.5h2.6V141.8z"/>
		<path class="st5" d="M222.2,132.3l0.1,1.1c0.7-0.9,1.6-1.3,2.7-1.3c1,0,1.8,0.3,2.2,0.9s0.7,1.5,0.8,2.6v6.1h-2.5v-6.1
			c0-0.5-0.1-0.9-0.4-1.2c-0.2-0.2-0.6-0.4-1.2-0.4c-0.7,0-1.2,0.3-1.6,0.9v6.7h-2.5v-9.5L222.2,132.3L222.2,132.3z"/>
		<path class="st5" d="M229.5,136.9c0-1.5,0.3-2.7,1-3.5s1.6-1.3,2.7-1.3c0.9,0,1.7,0.4,2.3,1v-4.9h2.6v13.5h-2.3l-0.1-1
			c-0.6,0.8-1.4,1.2-2.4,1.2c-1.1,0-2-0.4-2.7-1.3S229.5,138.5,229.5,136.9z M232.1,137.1c0,0.9,0.2,1.6,0.5,2.1s0.8,0.7,1.4,0.7
			c0.8,0,1.3-0.3,1.7-1v-3.8c-0.3-0.7-0.9-1-1.6-1C232.7,134.2,232.1,135.1,232.1,137.1z"/>
	</g>
	<g class="st3">
		<path class="st5" d="M54.7,163.4c-0.1-0.2-0.2-0.5-0.2-0.9c-0.6,0.7-1.4,1-2.4,1c-0.9,0-1.7-0.3-2.3-0.8s-0.9-1.2-0.9-2
			c0-1,0.4-1.8,1.1-2.3s1.8-0.8,3.2-0.8h1.2V157c0-0.4-0.1-0.8-0.3-1.1s-0.6-0.4-1.1-0.4c-0.4,0-0.8,0.1-1,0.3s-0.4,0.5-0.4,0.8H49
			c0-0.6,0.2-1.1,0.5-1.5s0.8-0.8,1.4-1.1s1.3-0.4,2.1-0.4c1.2,0,2.1,0.3,2.8,0.9c0.7,0.6,1,1.4,1,2.5v4.1c0,0.9,0.1,1.6,0.4,2.1
			v0.1L54.7,163.4L54.7,163.4z M52.6,161.6c0.4,0,0.7-0.1,1-0.2s0.5-0.4,0.7-0.7v-1.6h-1c-1.3,0-2,0.4-2,1.3l0,0.1
			c0,0.3,0.1,0.6,0.3,0.8S52.2,161.6,52.6,161.6z"/>
		<path class="st5" d="M61.2,153.9l0.1,1.1c0.7-0.9,1.6-1.3,2.7-1.3c1,0,1.8,0.3,2.2,0.9s0.7,1.5,0.8,2.6v6.1h-2.5v-6.1
			c0-0.5-0.1-0.9-0.3-1.2c-0.2-0.2-0.6-0.4-1.2-0.4c-0.7,0-1.2,0.3-1.6,0.9v6.7h-2.5v-9.5L61.2,153.9L61.2,153.9z"/>
		<path class="st5" d="M68.5,158.5c0-1.5,0.3-2.7,1-3.5s1.6-1.3,2.7-1.3c0.9,0,1.7,0.4,2.3,1v-4.9h2.6v13.5h-2.3l-0.1-1
			c-0.6,0.8-1.4,1.2-2.4,1.2c-1.1,0-2-0.4-2.7-1.3S68.5,160.1,68.5,158.5z M71.1,158.7c0,0.9,0.2,1.6,0.5,2.1s0.8,0.7,1.3,0.7
			c0.8,0,1.3-0.3,1.7-1v-3.8c-0.3-0.7-0.9-1-1.6-1C71.7,155.8,71.1,156.7,71.1,158.7z"/>
		<path class="st5" d="M83.2,158.5c0-1.5,0.3-2.6,1-3.5s1.6-1.3,2.8-1.3c1,0,1.8,0.4,2.4,1.1l0.1-0.9h2.3v9.2c0,0.8-0.2,1.6-0.6,2.2
			s-0.9,1.1-1.6,1.4s-1.5,0.5-2.4,0.5c-0.7,0-1.4-0.1-2-0.4s-1.2-0.6-1.5-1.1l1.1-1.6c0.6,0.7,1.4,1.1,2.3,1.1
			c0.7,0,1.2-0.2,1.6-0.5c0.4-0.4,0.6-0.9,0.6-1.5v-0.5c-0.6,0.7-1.4,1-2.3,1c-1.1,0-2.1-0.4-2.8-1.3S83.2,160.1,83.2,158.5
			L83.2,158.5L83.2,158.5z M85.7,158.7c0,0.9,0.2,1.5,0.5,2s0.8,0.7,1.4,0.7c0.8,0,1.3-0.3,1.7-0.9v-4c-0.3-0.6-0.9-0.9-1.6-0.9
			c-0.6,0-1.1,0.2-1.4,0.8C85.9,157,85.7,157.7,85.7,158.7z"/>
		<path class="st5" d="M99.2,156.2c-0.3-0.1-0.7-0.1-0.9-0.1c-1,0-1.6,0.3-1.9,1v6.2h-2.5v-9.5h2.4l0.1,1.1c0.5-0.9,1.2-1.3,2.1-1.3
			c0.3,0,0.5,0,0.8,0.1L99.2,156.2z"/>
		<path class="st5" d="M105.7,163.4c-0.1-0.2-0.2-0.5-0.2-0.9c-0.6,0.7-1.4,1-2.4,1c-0.9,0-1.7-0.3-2.3-0.8s-0.9-1.2-0.9-2
			c0-1,0.4-1.8,1.1-2.3s1.8-0.8,3.2-0.8h1.2V157c0-0.4-0.1-0.8-0.3-1.1s-0.6-0.4-1.1-0.4c-0.4,0-0.8,0.1-1,0.3s-0.4,0.5-0.4,0.8H100
			c0-0.6,0.2-1.1,0.5-1.5s0.8-0.8,1.4-1.1s1.3-0.4,2.1-0.4c1.2,0,2.1,0.3,2.8,0.9c0.7,0.6,1,1.4,1,2.5v4.1c0,0.9,0.1,1.6,0.4,2.1
			v0.1L105.7,163.4L105.7,163.4z M103.6,161.6c0.4,0,0.7-0.1,1-0.2s0.6-0.4,0.7-0.7v-1.6h-0.9c-1.3,0-1.9,0.4-2,1.3l0,0.1
			c0,0.3,0.1,0.6,0.3,0.8S103.2,161.6,103.6,161.6z"/>
		<path class="st5" d="M118.4,158.7c0,1.5-0.3,2.6-1,3.5s-1.6,1.3-2.7,1.3c-1,0-1.7-0.3-2.3-1v4.5h-2.5v-13.2h2.4l0.1,0.9
			c0.6-0.7,1.4-1.1,2.4-1.1c1.2,0,2.1,0.4,2.7,1.3s1,2.1,1,3.6L118.4,158.7L118.4,158.7z M115.8,158.5c0-0.9-0.2-1.6-0.5-2.1
			s-0.8-0.7-1.4-0.7c-0.8,0-1.3,0.3-1.6,0.9v3.9c0.3,0.6,0.9,0.9,1.7,0.9C115.2,161.5,115.8,160.5,115.8,158.5z"/>
		<path class="st5" d="M122.4,154.9c0.7-0.8,1.5-1.2,2.5-1.2c2.1,0,3.1,1.2,3.1,3.6v6.1h-2.5v-6c0-0.5-0.1-0.9-0.3-1.2
			s-0.6-0.4-1.2-0.4c-0.7,0-1.3,0.3-1.6,0.9v6.8h-2.5v-13.5h2.5V154.9z"/>
		<path class="st5" d="M130.7,166.6l-1.3-0.7l0.3-0.6c0.4-0.7,0.6-1.4,0.6-2.1v-2h2.1l0,1.8c0,0.6-0.2,1.3-0.5,2
			S131.2,166.1,130.7,166.6z"/>
		<path class="st5" d="M141.9,151.5v2.3h1.6v1.9h-1.6v4.8c0,0.4,0.1,0.6,0.2,0.8s0.4,0.2,0.8,0.2c0.3,0,0.5,0,0.8-0.1v1.9
			c-0.5,0.1-1,0.2-1.5,0.2c-1.8,0-2.7-0.9-2.7-2.7v-5.1H138v-1.9h1.4v-2.3L141.9,151.5L141.9,151.5z"/>
		<path class="st5" d="M147.4,154.9c0.7-0.8,1.5-1.2,2.5-1.2c2.1,0,3.1,1.2,3.1,3.6v6.1h-2.5v-6c0-0.5-0.1-0.9-0.4-1.2
			c-0.2-0.3-0.6-0.4-1.2-0.4c-0.7,0-1.3,0.3-1.6,0.9v6.8h-2.5v-13.5h2.5V154.9z"/>
		<path class="st5" d="M159.4,163.5c-1.4,0-2.5-0.4-3.4-1.3s-1.3-2-1.3-3.4v-0.2c0-1,0.2-1.8,0.6-2.6s0.9-1.3,1.6-1.7
			s1.4-0.6,2.3-0.6c1.3,0,2.3,0.4,3.1,1.2s1.1,2,1.1,3.5v1h-6.1c0.1,0.6,0.3,1.1,0.7,1.5s0.9,0.6,1.6,0.6c1,0,1.7-0.4,2.3-1.1
			l1.2,1.4c-0.4,0.5-0.9,1-1.6,1.3C160.9,163.4,160.2,163.5,159.4,163.5z M159.1,155.7c-0.5,0-0.9,0.2-1.2,0.5
			c-0.3,0.3-0.5,0.8-0.6,1.5h3.5v-0.2c0-0.6-0.2-1-0.5-1.3C160.1,155.9,159.7,155.7,159.1,155.7z"/>
		<path class="st5" d="M171.6,153.9l0.1,1.1c0.7-0.9,1.6-1.3,2.7-1.3c1,0,1.8,0.3,2.2,0.9s0.7,1.5,0.8,2.6v6.1h-2.5v-6.1
			c0-0.5-0.1-0.9-0.4-1.2c-0.2-0.2-0.6-0.4-1.2-0.4c-0.7,0-1.2,0.3-1.6,0.9v6.7h-2.5v-9.5L171.6,153.9L171.6,153.9z"/>
		<path class="st5" d="M183.7,163.5c-1.4,0-2.5-0.4-3.4-1.3s-1.3-2-1.3-3.4v-0.2c0-1,0.2-1.8,0.6-2.6s0.9-1.3,1.6-1.7
			s1.4-0.6,2.3-0.6c1.3,0,2.3,0.4,3.1,1.2s1.1,2,1.1,3.5v1h-6.1c0.1,0.6,0.3,1.1,0.7,1.5s0.9,0.6,1.6,0.6c1,0,1.7-0.4,2.3-1.1
			l1.2,1.4c-0.4,0.5-0.9,1-1.6,1.3C185.2,163.4,184.5,163.5,183.7,163.5z M183.4,155.7c-0.5,0-0.9,0.2-1.2,0.5
			c-0.3,0.3-0.5,0.8-0.6,1.5h3.5v-0.2c0-0.6-0.2-1-0.5-1.3C184.4,155.9,183.9,155.7,183.4,155.7z"/>
		<path class="st5" d="M193,161.5c0.5,0,0.9-0.1,1.1-0.4s0.4-0.6,0.5-1h2.4c0,0.6-0.2,1.2-0.5,1.8c-0.4,0.5-0.8,0.9-1.4,1.2
			c-0.6,0.3-1.3,0.4-2,0.4c-1.4,0-2.4-0.4-3.2-1.3c-0.8-0.9-1.2-2.1-1.2-3.6v-0.2c0-1.5,0.4-2.6,1.2-3.5s1.9-1.3,3.2-1.3
			c1.2,0,2.1,0.3,2.9,1c0.7,0.7,1.1,1.6,1.1,2.7h-2.4c0-0.5-0.2-0.9-0.5-1.2s-0.7-0.5-1.2-0.5c-0.6,0-1,0.2-1.3,0.6
			s-0.4,1.1-0.4,2.1v0.3c0,1,0.1,1.7,0.4,2.1S192.4,161.5,193,161.5z"/>
		<path class="st5" d="M202.4,161.5c0.5,0,0.9-0.1,1.1-0.4s0.4-0.6,0.5-1h2.4c0,0.6-0.2,1.2-0.5,1.8c-0.4,0.5-0.8,0.9-1.4,1.2
			c-0.6,0.3-1.3,0.4-2,0.4c-1.4,0-2.4-0.4-3.2-1.3c-0.8-0.9-1.2-2.1-1.2-3.6v-0.2c0-1.5,0.4-2.6,1.2-3.5s1.9-1.3,3.2-1.3
			c1.2,0,2.1,0.3,2.9,1c0.7,0.7,1.1,1.6,1.1,2.7H204c0-0.5-0.2-0.9-0.5-1.2s-0.7-0.5-1.2-0.5c-0.6,0-1,0.2-1.3,0.6s-0.4,1.1-0.4,2.1
			v0.3c0,1,0.1,1.7,0.4,2.1S201.8,161.5,202.4,161.5z"/>
		<path class="st5" d="M212.2,163.5c-1.4,0-2.5-0.4-3.4-1.3s-1.3-2-1.3-3.4v-0.2c0-1,0.2-1.8,0.6-2.6s0.9-1.3,1.6-1.7
			s1.4-0.6,2.3-0.6c1.3,0,2.3,0.4,3.1,1.2s1.1,2,1.1,3.5v1h-6.1c0.1,0.6,0.3,1.1,0.7,1.5s0.9,0.6,1.6,0.6c1,0,1.7-0.4,2.3-1.1
			l1.2,1.4c-0.4,0.5-0.9,1-1.6,1.3C213.7,163.4,213,163.5,212.2,163.5z M211.9,155.7c-0.5,0-0.9,0.2-1.2,0.5
			c-0.3,0.3-0.5,0.8-0.6,1.5h3.5v-0.2c0-0.6-0.2-1-0.5-1.3C212.9,155.9,212.5,155.7,211.9,155.7z"/>
		<path class="st5" d="M222.7,160.7c0-0.3-0.1-0.6-0.5-0.7s-0.8-0.3-1.5-0.5c-2.3-0.5-3.4-1.4-3.4-2.9c0-0.8,0.4-1.6,1.1-2.1
			s1.6-0.9,2.8-0.9c1.2,0,2.2,0.3,2.9,0.9s1.1,1.3,1.1,2.2h-2.5c0-0.4-0.1-0.7-0.4-0.9c-0.2-0.2-0.6-0.4-1.1-0.4
			c-0.4,0-0.8,0.1-1,0.3s-0.4,0.4-0.4,0.7c0,0.3,0.1,0.5,0.4,0.7c0.3,0.2,0.7,0.3,1.4,0.4s1.2,0.3,1.6,0.4c1.3,0.5,2,1.3,2,2.6
			c0,0.9-0.4,1.6-1.1,2.1c-0.7,0.5-1.7,0.8-2.9,0.8c-0.8,0-1.5-0.1-2.1-0.4c-0.6-0.3-1.1-0.7-1.4-1.2c-0.4-0.5-0.5-1-0.5-1.6h2.4
			c0,0.4,0.2,0.8,0.5,1s0.7,0.4,1.2,0.4c0.5,0,0.9-0.1,1.1-0.3C222.6,161.3,222.7,161,222.7,160.7z"/>
		<path class="st5" d="M232.3,163.4c-0.1-0.2-0.2-0.5-0.2-0.9c-0.6,0.7-1.4,1-2.4,1c-0.9,0-1.7-0.3-2.3-0.8s-0.9-1.2-0.9-2
			c0-1,0.4-1.8,1.1-2.3s1.8-0.8,3.2-0.8h1.2V157c0-0.4-0.1-0.8-0.3-1.1s-0.6-0.4-1.1-0.4c-0.4,0-0.8,0.1-1,0.3s-0.4,0.5-0.4,0.8
			h-2.5c0-0.6,0.2-1.1,0.5-1.5s0.8-0.8,1.4-1.1s1.3-0.4,2.1-0.4c1.2,0,2.1,0.3,2.8,0.9c0.7,0.6,1,1.4,1,2.5v4.1
			c0,0.9,0.1,1.6,0.4,2.1v0.1L232.3,163.4L232.3,163.4z M230.2,161.6c0.4,0,0.7-0.1,1-0.2c0.3-0.2,0.6-0.4,0.7-0.7v-1.6H231
			c-1.3,0-1.9,0.4-2,1.3l0,0.1c0,0.3,0.1,0.6,0.3,0.8S229.8,161.6,230.2,161.6z"/>
		<path class="st5" d="M241.8,156.2c-0.4-0.1-0.6-0.1-0.9-0.1c-1,0-1.6,0.3-1.9,1v6.2h-2.5v-9.5h2.4l0.1,1.1
			c0.5-0.9,1.2-1.3,2.1-1.3c0.3,0,0.5,0,0.8,0.1L241.8,156.2z"/>
		<path class="st5" d="M246.6,159.8l1.8-5.9h2.7l-3.8,11l-0.2,0.5c-0.6,1.2-1.5,1.9-2.8,1.9c-0.4,0-0.7-0.1-1.1-0.2v-1.9l0.4,0
			c0.5,0,0.8-0.1,1.1-0.2s0.4-0.4,0.6-0.7l0.3-0.8l-3.3-9.5h2.7L246.6,159.8z"/>
	</g>
	<g class="st3">
		<path class="st5" d="M66.2,180.3c0,1.5-0.3,2.6-1,3.5s-1.6,1.3-2.7,1.3c-1,0-1.7-0.3-2.3-1v4.5h-2.5v-13.2H60l0.1,0.9
			c0.6-0.7,1.4-1.1,2.4-1.1c1.2,0,2.1,0.4,2.7,1.3c0.7,0.9,1,2.1,1,3.6L66.2,180.3L66.2,180.3z M63.7,180.1c0-0.9-0.2-1.6-0.5-2.1
			s-0.8-0.7-1.4-0.7c-0.8,0-1.3,0.3-1.6,0.9v3.9c0.3,0.6,0.9,0.9,1.7,0.9C63.1,183.1,63.7,182.1,63.7,180.1z"/>
		<path class="st5" d="M73.1,177.8c-0.3-0.1-0.7-0.1-0.9-0.1c-1,0-1.6,0.3-1.9,1v6.2h-2.5v-9.5h2.4l0.1,1.1c0.5-0.9,1.2-1.3,2.1-1.3
			c0.3,0,0.5,0,0.8,0.1L73.1,177.8z"/>
		<path class="st5" d="M78.7,185.1c-1.4,0-2.5-0.4-3.4-1.3s-1.3-2-1.3-3.4v-0.2c0-1,0.2-1.8,0.6-2.6s0.9-1.3,1.6-1.7
			s1.4-0.6,2.3-0.6c1.3,0,2.3,0.4,3.1,1.2s1.1,2,1.1,3.5v1h-6.1c0.1,0.6,0.3,1.1,0.7,1.5s0.9,0.6,1.6,0.6c1,0,1.7-0.4,2.3-1.1
			l1.2,1.4c-0.4,0.5-0.9,1-1.6,1.3C80.3,185,79.5,185.1,78.7,185.1z M78.5,177.3c-0.5,0-0.9,0.2-1.2,0.5c-0.3,0.3-0.5,0.8-0.6,1.5
			h3.5v-0.2c0-0.6-0.2-1-0.5-1.3C79.4,177.5,79,177.3,78.5,177.3z"/>
		<path class="st5" d="M83.7,180.1c0-1.5,0.3-2.7,1-3.5s1.6-1.3,2.7-1.3c1,0,1.8,0.4,2.4,1.2l0.2-1h2.2v13.2h-2.6v-4.5
			c-0.6,0.7-1.3,1-2.3,1c-1.1,0-2-0.4-2.7-1.3S83.7,181.7,83.7,180.1z M86.2,180.3c0,0.9,0.2,1.6,0.5,2.1s0.8,0.7,1.3,0.7
			c0.8,0,1.3-0.3,1.7-0.9v-3.9c-0.3-0.6-0.9-0.9-1.6-0.9c-0.6,0-1,0.2-1.4,0.7S86.2,179.3,86.2,180.3z"/>
		<path class="st5" d="M99.4,182.3c0-0.3-0.2-0.6-0.5-0.7s-0.8-0.3-1.5-0.5c-2.3-0.5-3.4-1.4-3.4-2.9c0-0.8,0.3-1.6,1.1-2.1
			c0.7-0.6,1.6-0.9,2.8-0.9c1.2,0,2.2,0.3,2.9,0.9s1.1,1.3,1.1,2.2h-2.5c0-0.4-0.1-0.7-0.3-0.9c-0.2-0.2-0.6-0.4-1.1-0.4
			c-0.4,0-0.8,0.1-1,0.3s-0.3,0.4-0.3,0.7c0,0.3,0.1,0.5,0.4,0.7c0.3,0.2,0.7,0.3,1.3,0.4s1.2,0.3,1.6,0.4c1.3,0.5,2,1.3,2,2.6
			c0,0.9-0.4,1.6-1.1,2.1c-0.7,0.5-1.7,0.8-2.9,0.8c-0.8,0-1.5-0.1-2.1-0.4c-0.6-0.3-1.1-0.7-1.4-1.2c-0.3-0.5-0.5-1-0.5-1.6h2.4
			c0,0.4,0.2,0.8,0.5,1s0.7,0.4,1.2,0.4c0.5,0,0.8-0.1,1.1-0.3C99.3,182.9,99.4,182.6,99.4,182.3z"/>
		<path class="st5" d="M113.5,185c-0.1-0.2-0.2-0.5-0.2-0.9c-0.6,0.7-1.4,1-2.4,1c-0.9,0-1.7-0.3-2.3-0.8s-0.9-1.2-0.9-2
			c0-1,0.4-1.8,1.1-2.3s1.8-0.8,3.2-0.8h1.2v-0.5c0-0.4-0.1-0.8-0.3-1.1s-0.6-0.4-1.1-0.4c-0.4,0-0.8,0.1-1,0.3s-0.4,0.5-0.4,0.8
			h-2.5c0-0.6,0.2-1.1,0.5-1.5s0.8-0.8,1.4-1.1s1.3-0.4,2.1-0.4c1.2,0,2.1,0.3,2.8,0.9c0.7,0.6,1,1.4,1,2.5v4.1
			c0,0.9,0.1,1.6,0.4,2.1v0.1L113.5,185L113.5,185z M111.4,183.2c0.4,0,0.7-0.1,1-0.2s0.6-0.4,0.7-0.7v-1.6h-0.9
			c-1.3,0-1.9,0.4-2,1.3l0,0.1c0,0.3,0.1,0.6,0.3,0.8S111,183.2,111.4,183.2z"/>
		<path class="st5" d="M120,175.5l0.1,1.1c0.7-0.9,1.6-1.3,2.7-1.3c1,0,1.8,0.3,2.2,0.9s0.7,1.5,0.8,2.6v6.1h-2.5v-6.1
			c0-0.5-0.1-0.9-0.3-1.2c-0.2-0.2-0.6-0.4-1.2-0.4c-0.7,0-1.2,0.3-1.6,0.9v6.7h-2.5v-9.5L120,175.5L120,175.5z"/>
		<path class="st5" d="M127.3,180.1c0-1.5,0.3-2.7,1-3.5c0.7-0.9,1.6-1.3,2.7-1.3c0.9,0,1.7,0.4,2.3,1v-4.9h2.6V185h-2.3l-0.1-1
			c-0.6,0.8-1.4,1.2-2.4,1.2c-1.1,0-2-0.4-2.7-1.3C127.7,183,127.3,181.7,127.3,180.1z M129.9,180.3c0,0.9,0.2,1.6,0.5,2.1
			s0.8,0.7,1.4,0.7c0.8,0,1.3-0.3,1.7-1v-3.8c-0.3-0.7-0.9-1-1.6-1C130.5,177.4,129.9,178.3,129.9,180.3z"/>
		<path class="st5" d="M142,180.1c0-0.9,0.2-1.8,0.5-2.5s0.9-1.3,1.6-1.7s1.5-0.6,2.4-0.6c1.3,0,2.3,0.4,3.1,1.2s1.3,1.9,1.4,3.2
			l0,0.6c0,1.5-0.4,2.6-1.2,3.5c-0.8,0.9-1.9,1.3-3.3,1.3s-2.5-0.4-3.3-1.3s-1.2-2.1-1.2-3.6L142,180.1L142,180.1z M144.5,180.3
			c0,0.9,0.2,1.6,0.5,2.1c0.3,0.5,0.8,0.7,1.5,0.7c0.6,0,1.1-0.2,1.4-0.7c0.4-0.5,0.5-1.2,0.5-2.3c0-0.9-0.2-1.6-0.5-2.1
			s-0.8-0.7-1.5-0.7c-0.6,0-1.1,0.2-1.4,0.7C144.7,178.5,144.5,179.3,144.5,180.3z"/>
		<path class="st5" d="M155.6,173.1v2.3h1.6v1.9h-1.6v4.8c0,0.4,0.1,0.6,0.2,0.8s0.4,0.2,0.8,0.2c0.3,0,0.5,0,0.8-0.1v1.9
			c-0.5,0.1-1,0.2-1.5,0.2c-1.8,0-2.7-0.9-2.7-2.7v-5.1h-1.4v-1.9h1.4v-2.3L155.6,173.1L155.6,173.1z"/>
		<path class="st5" d="M161.1,176.5c0.7-0.8,1.5-1.2,2.5-1.2c2.1,0,3.1,1.2,3.1,3.6v6.1h-2.5v-6c0-0.5-0.1-0.9-0.4-1.2
			s-0.6-0.4-1.2-0.4c-0.7,0-1.3,0.3-1.6,0.9v6.8h-2.5v-13.5h2.5V176.5z"/>
		<path class="st5" d="M173.1,185.1c-1.4,0-2.5-0.4-3.4-1.3s-1.3-2-1.3-3.4v-0.2c0-1,0.2-1.8,0.6-2.6s0.9-1.3,1.6-1.7
			s1.4-0.6,2.3-0.6c1.3,0,2.3,0.4,3.1,1.2s1.1,2,1.1,3.5v1h-6.1c0.1,0.6,0.3,1.1,0.7,1.5s0.9,0.6,1.6,0.6c1,0,1.7-0.4,2.3-1.1
			l1.2,1.4c-0.4,0.5-0.9,1-1.6,1.3C174.6,185,173.9,185.1,173.1,185.1z M172.8,177.3c-0.5,0-0.9,0.2-1.2,0.5
			c-0.3,0.3-0.5,0.8-0.6,1.5h3.5v-0.2c0-0.6-0.2-1-0.5-1.3C173.7,177.5,173.3,177.3,172.8,177.3z"/>
		<path class="st5" d="M183.8,177.8c-0.4-0.1-0.6-0.1-0.9-0.1c-1,0-1.6,0.3-1.9,1v6.2h-2.5v-9.5h2.4l0.1,1.1
			c0.5-0.9,1.2-1.3,2.1-1.3c0.3,0,0.5,0,0.8,0.1L183.8,177.8z"/>
		<path class="st5" d="M189.1,180.1c0-1.5,0.3-2.7,1-3.5s1.6-1.3,2.7-1.3c0.9,0,1.7,0.4,2.3,1v-4.9h2.6V185h-2.3l-0.1-1
			c-0.6,0.8-1.4,1.2-2.4,1.2c-1.1,0-2-0.4-2.7-1.3S189.1,181.7,189.1,180.1z M191.6,180.3c0,0.9,0.2,1.6,0.5,2.1s0.8,0.7,1.4,0.7
			c0.8,0,1.3-0.3,1.7-1v-3.8c-0.3-0.7-0.9-1-1.6-1C192.2,177.4,191.6,178.3,191.6,180.3z"/>
		<path class="st5" d="M204,185.1c-1.4,0-2.5-0.4-3.4-1.3s-1.3-2-1.3-3.4v-0.2c0-1,0.2-1.8,0.6-2.6s0.9-1.3,1.6-1.7s1.4-0.6,2.3-0.6
			c1.3,0,2.3,0.4,3.1,1.2s1.1,2,1.1,3.5v1h-6.1c0.1,0.6,0.3,1.1,0.7,1.5s0.9,0.6,1.6,0.6c1,0,1.7-0.4,2.3-1.1l1.2,1.4
			c-0.4,0.5-0.9,1-1.6,1.3C205.5,185,204.8,185.1,204,185.1z M203.7,177.3c-0.5,0-0.9,0.2-1.2,0.5c-0.3,0.3-0.5,0.8-0.6,1.5h3.5
			v-0.2c0-0.6-0.2-1-0.5-1.3C204.7,177.5,204.2,177.3,203.7,177.3z"/>
		<path class="st5" d="M212.4,173.1v2.3h1.6v1.9h-1.6v4.8c0,0.4,0.1,0.6,0.2,0.8s0.4,0.2,0.8,0.2c0.3,0,0.5,0,0.8-0.1v1.9
			c-0.5,0.1-1,0.2-1.5,0.2c-1.8,0-2.7-0.9-2.7-2.7v-5.1h-1.4v-1.9h1.4v-2.3L212.4,173.1L212.4,173.1z"/>
		<path class="st5" d="M220.9,185c-0.1-0.2-0.2-0.5-0.2-0.9c-0.6,0.7-1.4,1-2.4,1c-0.9,0-1.7-0.3-2.3-0.8s-0.9-1.2-0.9-2
			c0-1,0.4-1.8,1.1-2.3s1.8-0.8,3.2-0.8h1.2v-0.5c0-0.4-0.1-0.8-0.3-1.1s-0.6-0.4-1.1-0.4c-0.4,0-0.8,0.1-1,0.3s-0.4,0.5-0.4,0.8
			h-2.5c0-0.6,0.2-1.1,0.5-1.5s0.8-0.8,1.4-1.1s1.3-0.4,2.1-0.4c1.2,0,2.1,0.3,2.8,0.9c0.7,0.6,1,1.4,1,2.5v4.1
			c0,0.9,0.1,1.6,0.4,2.1v0.1L220.9,185L220.9,185z M218.8,183.2c0.4,0,0.7-0.1,1-0.2c0.3-0.2,0.6-0.4,0.7-0.7v-1.6h-0.9
			c-1.3,0-1.9,0.4-2,1.3l0,0.1c0,0.3,0.1,0.6,0.3,0.8S218.4,183.2,218.8,183.2z"/>
		<path class="st5" d="M225.1,173c0-0.4,0.1-0.7,0.4-0.9s0.6-0.4,1-0.4c0.4,0,0.8,0.1,1,0.4s0.4,0.6,0.4,0.9c0,0.4-0.1,0.7-0.4,0.9
			s-0.6,0.4-1,0.4s-0.8-0.1-1-0.4S225.1,173.4,225.1,173z M227.8,185h-2.6v-9.5h2.6V185z"/>
		<path class="st5" d="M232.5,185H230v-13.5h2.6V185z"/>
		<path class="st5" d="M239.8,182.3c0-0.3-0.1-0.6-0.5-0.7s-0.8-0.3-1.5-0.5c-2.3-0.5-3.4-1.4-3.4-2.9c0-0.8,0.4-1.6,1.1-2.1
			s1.6-0.9,2.8-0.9c1.2,0,2.2,0.3,2.9,0.9s1.1,1.3,1.1,2.2h-2.5c0-0.4-0.1-0.7-0.4-0.9c-0.2-0.2-0.6-0.4-1.1-0.4
			c-0.4,0-0.8,0.1-1,0.3s-0.4,0.4-0.4,0.7c0,0.3,0.1,0.5,0.4,0.7c0.3,0.2,0.7,0.3,1.4,0.4s1.2,0.3,1.6,0.4c1.3,0.5,2,1.3,2,2.6
			c0,0.9-0.4,1.6-1.1,2.1c-0.7,0.5-1.7,0.8-2.9,0.8c-0.8,0-1.5-0.1-2.1-0.4c-0.6-0.3-1.1-0.7-1.4-1.2c-0.4-0.5-0.5-1-0.5-1.6h2.4
			c0,0.4,0.2,0.8,0.5,1s0.7,0.4,1.2,0.4c0.5,0,0.9-0.1,1.1-0.3C239.6,182.9,239.8,182.6,239.8,182.3z"/>
	</g>
	<g class="st3">
		<path class="st5" d="M68.8,206.6v-7.6h-1.4v-1.9h1.4v-0.8c0-1.1,0.3-1.9,0.9-2.5s1.5-0.9,2.6-0.9c0.3,0,0.8,0.1,1.3,0.2l0,2
			c-0.2-0.1-0.5-0.1-0.8-0.1c-1,0-1.4,0.4-1.4,1.3v0.8h1.9v1.9h-1.9v7.6L68.8,206.6L68.8,206.6z"/>
		<path class="st5" d="M74.1,201.7c0-0.9,0.2-1.8,0.5-2.5s0.9-1.3,1.6-1.7s1.5-0.6,2.4-0.6c1.3,0,2.3,0.4,3.1,1.2s1.3,1.9,1.4,3.2
			l0,0.6c0,1.5-0.4,2.6-1.2,3.5s-1.9,1.3-3.3,1.3s-2.5-0.4-3.3-1.3s-1.2-2.1-1.2-3.6C74.1,201.8,74.1,201.7,74.1,201.7z M76.7,201.9
			c0,0.9,0.2,1.6,0.5,2.1c0.3,0.5,0.8,0.7,1.5,0.7c0.6,0,1.1-0.2,1.4-0.7c0.3-0.5,0.5-1.2,0.5-2.3c0-0.9-0.2-1.6-0.5-2.1
			s-0.8-0.7-1.5-0.7c-0.6,0-1.1,0.2-1.4,0.7C76.8,200.1,76.7,200.9,76.7,201.9z"/>
		<path class="st5" d="M90.1,199.4c-0.3-0.1-0.7-0.1-0.9-0.1c-1,0-1.6,0.3-1.9,1v6.2h-2.5v-9.5h2.4l0.1,1.1c0.5-0.9,1.2-1.3,2.1-1.3
			c0.3,0,0.5,0,0.8,0.1L90.1,199.4z"/>
		<path class="st5" d="M101.3,206.6c-0.1-0.2-0.2-0.5-0.2-0.9c-0.6,0.7-1.4,1-2.4,1c-0.9,0-1.7-0.3-2.3-0.8s-0.9-1.2-0.9-2
			c0-1,0.4-1.8,1.1-2.3s1.8-0.8,3.2-0.8h1.2v-0.5c0-0.4-0.1-0.8-0.3-1.1s-0.6-0.4-1.1-0.4c-0.4,0-0.8,0.1-1,0.3s-0.4,0.5-0.4,0.8
			h-2.5c0-0.6,0.2-1.1,0.5-1.5s0.8-0.8,1.4-1.1s1.3-0.4,2.1-0.4c1.2,0,2.1,0.3,2.8,0.9c0.7,0.6,1,1.4,1,2.5v4.1
			c0,0.9,0.1,1.6,0.4,2.1v0.1L101.3,206.6L101.3,206.6z M99.2,204.8c0.4,0,0.7-0.1,1-0.2s0.6-0.4,0.7-0.7v-1.6H100
			c-1.3,0-1.9,0.4-2,1.3l0,0.1c0,0.3,0.1,0.6,0.3,0.8S98.8,204.8,99.2,204.8z"/>
		<path class="st5" d="M115,203.9c0-0.3-0.2-0.6-0.5-0.7s-0.8-0.3-1.5-0.5c-2.3-0.5-3.4-1.4-3.4-2.9c0-0.8,0.3-1.6,1.1-2.1
			c0.7-0.6,1.6-0.9,2.8-0.9c1.2,0,2.2,0.3,2.9,0.9s1.1,1.3,1.1,2.2H115c0-0.4-0.1-0.7-0.3-0.9c-0.2-0.2-0.6-0.4-1.1-0.4
			c-0.4,0-0.8,0.1-1,0.3s-0.3,0.4-0.3,0.7c0,0.3,0.1,0.5,0.4,0.7c0.3,0.2,0.7,0.3,1.3,0.4s1.2,0.3,1.6,0.4c1.3,0.5,2,1.3,2,2.6
			c0,0.9-0.4,1.6-1.1,2.1c-0.7,0.5-1.7,0.8-2.9,0.8c-0.8,0-1.5-0.1-2.1-0.4c-0.6-0.3-1.1-0.7-1.4-1.2c-0.3-0.5-0.5-1-0.5-1.6h2.4
			c0,0.4,0.2,0.8,0.5,1s0.7,0.4,1.2,0.4c0.5,0,0.8-0.1,1.1-0.3C114.9,204.5,115,204.2,115,203.9z"/>
		<path class="st5" d="M127.7,201.9c0,1.5-0.3,2.6-1,3.5s-1.6,1.3-2.7,1.3c-1,0-1.7-0.3-2.3-1v4.5h-2.5v-13.2h2.4l0.1,0.9
			c0.6-0.7,1.4-1.1,2.4-1.1c1.2,0,2.1,0.4,2.7,1.3s1,2.1,1,3.6L127.7,201.9L127.7,201.9z M125.2,201.7c0-0.9-0.2-1.6-0.5-2.1
			s-0.8-0.7-1.4-0.7c-0.8,0-1.3,0.3-1.6,0.9v3.9c0.3,0.6,0.9,0.9,1.7,0.9C124.6,204.7,125.2,203.7,125.2,201.7z"/>
		<path class="st5" d="M133.7,206.7c-1.4,0-2.5-0.4-3.4-1.3s-1.3-2-1.3-3.4v-0.2c0-1,0.2-1.8,0.6-2.6s0.9-1.3,1.6-1.7
			c0.7-0.4,1.4-0.6,2.3-0.6c1.3,0,2.3,0.4,3.1,1.2s1.1,2,1.1,3.5v1h-6.1c0.1,0.6,0.3,1.1,0.7,1.5s0.9,0.6,1.6,0.6
			c1,0,1.7-0.4,2.3-1.1l1.2,1.4c-0.4,0.5-0.9,1-1.6,1.3C135.2,206.6,134.4,206.7,133.7,206.7z M133.4,198.9c-0.5,0-0.9,0.2-1.2,0.5
			c-0.3,0.3-0.5,0.8-0.6,1.5h3.5v-0.2c0-0.6-0.2-1-0.5-1.3C134.3,199.1,133.9,198.9,133.4,198.9z"/>
		<path class="st5" d="M143,204.7c0.5,0,0.9-0.1,1.1-0.4s0.4-0.6,0.5-1h2.4c0,0.6-0.2,1.2-0.5,1.8c-0.4,0.5-0.8,0.9-1.4,1.2
			c-0.6,0.3-1.3,0.4-2,0.4c-1.4,0-2.4-0.4-3.2-1.3c-0.8-0.9-1.2-2.1-1.2-3.6v-0.2c0-1.5,0.4-2.6,1.2-3.5s1.9-1.3,3.2-1.3
			c1.2,0,2.1,0.3,2.9,1c0.7,0.7,1.1,1.6,1.1,2.7h-2.4c0-0.5-0.2-0.9-0.5-1.2s-0.7-0.5-1.2-0.5c-0.6,0-1,0.2-1.3,0.6
			s-0.4,1.1-0.4,2.1v0.3c0,1,0.1,1.7,0.4,2.1S142.4,204.7,143,204.7z"/>
		<path class="st5" d="M148.4,194.6c0-0.4,0.1-0.7,0.4-0.9s0.6-0.4,1-0.4c0.4,0,0.8,0.1,1,0.4s0.4,0.6,0.4,0.9
			c0,0.4-0.1,0.7-0.4,0.9s-0.6,0.4-1,0.4s-0.8-0.1-1-0.4S148.4,195,148.4,194.6z M151.1,206.6h-2.6v-9.5h2.6V206.6z"/>
		<path class="st5" d="M153.9,206.6v-7.6h-1.4v-1.9h1.4v-0.8c0-1.1,0.3-1.9,0.9-2.5s1.5-0.9,2.6-0.9c0.4,0,0.8,0.1,1.3,0.2l0,2
			c-0.2-0.1-0.5-0.1-0.8-0.1c-1,0-1.4,0.4-1.4,1.3v0.8h1.9v1.9h-1.9v7.6L153.9,206.6L153.9,206.6z"/>
		<path class="st5" d="M159.6,194.6c0-0.4,0.1-0.7,0.4-0.9s0.6-0.4,1-0.4c0.4,0,0.8,0.1,1,0.4s0.4,0.6,0.4,0.9
			c0,0.4-0.1,0.7-0.4,0.9s-0.6,0.4-1,0.4s-0.8-0.1-1-0.4S159.6,195,159.6,194.6z M162.3,206.6h-2.6v-9.5h2.6V206.6z"/>
		<path class="st5" d="M168.3,204.7c0.5,0,0.9-0.1,1.1-0.4s0.4-0.6,0.5-1h2.4c0,0.6-0.2,1.2-0.5,1.8c-0.4,0.5-0.8,0.9-1.4,1.2
			c-0.6,0.3-1.3,0.4-2,0.4c-1.4,0-2.4-0.4-3.2-1.3c-0.8-0.9-1.2-2.1-1.2-3.6v-0.2c0-1.5,0.4-2.6,1.2-3.5s1.9-1.3,3.2-1.3
			c1.2,0,2.1,0.3,2.9,1c0.7,0.7,1.1,1.6,1.1,2.7h-2.4c0-0.5-0.2-0.9-0.5-1.2s-0.7-0.5-1.2-0.5c-0.6,0-1,0.2-1.3,0.6
			s-0.4,1.1-0.4,2.1v0.3c0,1,0.1,1.7,0.4,2.1S167.7,204.7,168.3,204.7z"/>
		<path class="st5" d="M182.2,204.7c0.5,0,0.9-0.1,1.1-0.4s0.4-0.6,0.5-1h2.4c0,0.6-0.2,1.2-0.5,1.8c-0.4,0.5-0.8,0.9-1.4,1.2
			c-0.6,0.3-1.3,0.4-2,0.4c-1.4,0-2.4-0.4-3.2-1.3c-0.8-0.9-1.2-2.1-1.2-3.6v-0.2c0-1.5,0.4-2.6,1.2-3.5s1.9-1.3,3.2-1.3
			c1.2,0,2.1,0.3,2.9,1c0.7,0.7,1.1,1.6,1.1,2.7h-2.4c0-0.5-0.2-0.9-0.5-1.2s-0.7-0.5-1.2-0.5c-0.6,0-1,0.2-1.3,0.6
			s-0.4,1.1-0.4,2.1v0.3c0,1,0.1,1.7,0.4,2.1S181.6,204.7,182.2,204.7z"/>
		<path class="st5" d="M187.2,201.7c0-0.9,0.2-1.8,0.5-2.5s0.9-1.3,1.6-1.7s1.5-0.6,2.4-0.6c1.3,0,2.3,0.4,3.1,1.2s1.3,1.9,1.4,3.2
			l0,0.6c0,1.5-0.4,2.6-1.2,3.5s-1.9,1.3-3.3,1.3s-2.5-0.4-3.3-1.3s-1.2-2.1-1.2-3.6L187.2,201.7L187.2,201.7z M189.8,201.9
			c0,0.9,0.2,1.6,0.5,2.1c0.3,0.5,0.8,0.7,1.5,0.7c0.6,0,1.1-0.2,1.4-0.7c0.4-0.5,0.5-1.2,0.5-2.3c0-0.9-0.2-1.6-0.5-2.1
			s-0.8-0.7-1.5-0.7c-0.6,0-1.1,0.2-1.4,0.7C190,200.1,189.8,200.9,189.8,201.9z"/>
		<path class="st5" d="M203.5,205.6c-0.6,0.8-1.5,1.1-2.6,1.1c-1,0-1.8-0.3-2.3-0.9s-0.8-1.4-0.8-2.6v-6.2h2.5v6.1
			c0,1,0.4,1.5,1.4,1.5c0.9,0,1.4-0.3,1.8-0.9v-6.7h2.6v9.5h-2.4L203.5,205.6z"/>
		<path class="st5" d="M213.2,199.4c-0.4-0.1-0.6-0.1-0.9-0.1c-1,0-1.6,0.3-1.9,1v6.2h-2.5v-9.5h2.4l0.1,1.1
			c0.5-0.9,1.2-1.3,2.1-1.3c0.3,0,0.5,0,0.8,0.1L213.2,199.4z"/>
		<path class="st5" d="M219.6,203.9c0-0.3-0.1-0.6-0.5-0.7s-0.8-0.3-1.5-0.5c-2.3-0.5-3.4-1.4-3.4-2.9c0-0.8,0.4-1.6,1.1-2.1
			s1.6-0.9,2.8-0.9c1.2,0,2.2,0.3,2.9,0.9s1.1,1.3,1.1,2.2h-2.5c0-0.4-0.1-0.7-0.4-0.9c-0.2-0.2-0.6-0.4-1.1-0.4
			c-0.4,0-0.8,0.1-1,0.3s-0.4,0.4-0.4,0.7c0,0.3,0.1,0.5,0.4,0.7c0.3,0.2,0.7,0.3,1.4,0.4s1.2,0.3,1.6,0.4c1.3,0.5,2,1.3,2,2.6
			c0,0.9-0.4,1.6-1.1,2.1c-0.7,0.5-1.7,0.8-2.9,0.8c-0.8,0-1.5-0.1-2.1-0.4c-0.6-0.3-1.1-0.7-1.5-1.2c-0.4-0.5-0.5-1-0.5-1.6h2.4
			c0,0.4,0.2,0.8,0.5,1s0.7,0.4,1.2,0.4c0.5,0,0.9-0.1,1.1-0.3C219.5,204.5,219.6,204.2,219.6,203.9z"/>
		<path class="st5" d="M228.1,206.7c-1.4,0-2.5-0.4-3.4-1.3s-1.3-2-1.3-3.4v-0.2c0-1,0.2-1.8,0.6-2.6s0.9-1.3,1.6-1.7
			s1.4-0.6,2.3-0.6c1.3,0,2.3,0.4,3.1,1.2s1.1,2,1.1,3.5v1h-6.1c0.1,0.6,0.3,1.1,0.7,1.5s0.9,0.6,1.6,0.6c1,0,1.7-0.4,2.3-1.1
			l1.2,1.4c-0.4,0.5-0.9,1-1.6,1.3C229.6,206.6,228.9,206.7,228.1,206.7z M227.8,198.9c-0.5,0-0.9,0.2-1.2,0.5
			c-0.3,0.3-0.5,0.8-0.6,1.5h3.5v-0.2c0-0.6-0.2-1-0.5-1.3C228.8,199.1,228.3,198.9,227.8,198.9z"/>
	</g>
</g>
</svg>
